<svg width="698" height="628" viewBox="0 0 698 628" fill="none" xmlns="http://www.w3.org/2000/svg">
<g clip-path="url(#clip0_212_67)">
<path d="M629.344 326.821C629.435 404.53 600.357 479.248 548.222 535.27C545.079 538.67 541.851 541.987 538.538 545.222C533.491 550.181 528.274 554.948 522.888 559.523C472.502 602.403 409.6 626.499 344.33 627.924C342.155 627.975 339.972 628 337.781 628C285.727 628 220.255 599.28 160.839 559.523C155.923 556.234 151.051 552.868 146.223 549.427C143.966 547.833 141.72 546.217 139.485 544.578C116.57 527.864 94.818 509.508 74.3909 489.647C61.0166 476.682 48.4749 462.829 36.8459 448.178C-8.80728 390.009 -18.8767 337.595 46.2096 326.821C53.9155 325.55 61.3945 324.191 68.6463 322.744C79.1508 320.658 89.2038 318.406 98.8055 315.988C111.739 312.741 123.89 309.22 135.259 305.425C139.083 304.154 142.82 302.857 146.469 301.534C200.419 281.961 236.528 256.437 261.107 228.743C265.276 224.055 269.119 219.31 272.637 214.51C278.019 207.202 282.908 199.521 287.269 191.52C293.289 180.403 298.344 168.759 302.378 156.722L302.599 156.061C322.156 97.7901 316.206 43.7408 337.781 25.651C430.006 -51.6846 544.824 58.4484 598.717 188.324C601.433 194.868 603.988 201.452 606.382 208.076C607.457 211.034 608.494 213.998 609.492 216.968C612.118 224.707 614.501 232.467 616.64 240.246C617.461 243.213 618.243 246.177 618.987 249.138C619.783 252.334 620.546 255.521 621.252 258.709C626.496 282.046 629.344 305.061 629.344 326.821Z" fill="#F2F2F2"/>
<path d="M344.33 627.924C342.155 627.975 339.972 628 337.781 628C285.726 628 220.254 599.28 160.839 559.523C155.923 556.234 151.051 552.868 146.223 549.427L150.458 522.809L278.652 505.228L342.992 556.047L344.33 627.924Z" fill="#2F2E41"/>
<path d="M350.501 152.628H332.233C331.667 152.628 331.125 152.86 330.725 153.274C330.325 153.687 330.1 154.247 330.099 154.832V173.71C330.1 173.999 330.155 174.285 330.263 174.552C330.37 174.819 330.527 175.061 330.725 175.265C330.924 175.469 331.159 175.63 331.417 175.74C331.676 175.85 331.953 175.906 332.233 175.906H350.501C351.065 175.906 351.607 175.675 352.007 175.263C352.407 174.852 352.633 174.293 352.635 173.71V154.832C352.633 154.248 352.408 153.688 352.008 153.275C351.608 152.862 351.066 152.629 350.501 152.628Z" fill="white"/>
<path d="M350.501 184.798H332.233C331.667 184.798 331.125 185.03 330.725 185.444C330.325 185.857 330.1 186.417 330.099 187.002V205.88C330.1 206.169 330.155 206.455 330.263 206.722C330.37 206.989 330.527 207.231 330.725 207.435C330.924 207.639 331.159 207.8 331.417 207.91C331.676 208.02 331.953 208.076 332.233 208.076H350.501C351.065 208.076 351.607 207.845 352.007 207.433C352.407 207.022 352.633 206.463 352.635 205.88V187.002C352.633 186.418 352.408 185.858 352.008 185.445C351.608 185.032 351.066 184.8 350.501 184.798Z" fill="#E6E6E6"/>
<path d="M350.501 216.968H332.233C331.667 216.968 331.125 217.201 330.725 217.614C330.325 218.027 330.1 218.588 330.099 219.172V238.042C330.099 238.331 330.154 238.618 330.261 238.886C330.368 239.154 330.525 239.397 330.723 239.602C330.921 239.806 331.157 239.969 331.416 240.079C331.675 240.19 331.953 240.246 332.233 240.246H350.501C351.067 240.246 351.609 240.013 352.009 239.6C352.409 239.187 352.634 238.626 352.635 238.042V219.172C352.633 218.588 352.408 218.028 352.008 217.615C351.608 217.202 351.066 216.97 350.501 216.968Z" fill="#E6E6E6"/>
<path d="M352.602 250.952C352.511 250.445 352.251 249.986 351.868 249.654C351.484 249.323 351.001 249.141 350.501 249.138H332.233C331.667 249.138 331.125 249.371 330.725 249.784C330.325 250.197 330.1 250.758 330.099 251.342V270.212C330.099 270.502 330.154 270.788 330.261 271.056C330.368 271.324 330.525 271.567 330.723 271.772C330.921 271.976 331.157 272.139 331.416 272.249C331.675 272.36 331.953 272.417 332.233 272.416H350.501C351.067 272.416 351.609 272.183 352.009 271.77C352.409 271.357 352.634 270.796 352.635 270.212V251.342C352.636 251.211 352.625 251.081 352.602 250.952Z" fill="#E6E6E6"/>
<path d="M351.33 281.478C351.067 281.366 350.785 281.308 350.501 281.308H332.233C331.953 281.308 331.675 281.364 331.416 281.475C331.157 281.586 330.921 281.748 330.723 281.953C330.525 282.157 330.368 282.401 330.261 282.668C330.154 282.936 330.099 283.223 330.1 283.512V302.382C330.098 302.672 330.153 302.959 330.259 303.227C330.366 303.495 330.523 303.739 330.722 303.944C330.92 304.148 331.156 304.311 331.415 304.421C331.675 304.531 331.953 304.588 332.233 304.586H350.501C351.067 304.586 351.609 304.354 352.01 303.94C352.41 303.527 352.635 302.967 352.635 302.382V283.512C352.634 283.079 352.51 282.655 352.278 282.293C352.046 281.931 351.716 281.648 351.33 281.478Z" fill="#E6E6E6"/>
<path d="M388.875 152.628H370.607C370.041 152.628 369.499 152.86 369.099 153.274C368.699 153.687 368.474 154.247 368.474 154.832V173.71C368.474 173.999 368.529 174.285 368.637 174.552C368.744 174.819 368.901 175.061 369.1 175.265C369.298 175.469 369.533 175.63 369.792 175.74C370.05 175.85 370.327 175.906 370.607 175.906H388.875C389.439 175.906 389.981 175.675 390.381 175.263C390.781 174.852 391.007 174.293 391.009 173.71V154.832C391.007 154.248 390.782 153.688 390.382 153.275C389.982 152.862 389.44 152.629 388.875 152.628Z" fill="#E6E6E6"/>
<path d="M388.875 184.798H370.607C370.041 184.798 369.499 185.03 369.099 185.444C368.699 185.857 368.474 186.417 368.474 187.002V205.88C368.474 206.169 368.529 206.455 368.637 206.722C368.744 206.989 368.901 207.231 369.1 207.435C369.298 207.639 369.533 207.8 369.792 207.91C370.05 208.02 370.327 208.076 370.607 208.076H388.875C389.439 208.076 389.981 207.845 390.381 207.433C390.781 207.022 391.007 206.463 391.009 205.88V187.002C391.007 186.418 390.782 185.858 390.382 185.445C389.982 185.032 389.44 184.8 388.875 184.798Z" fill="#D2D2D2"/>
<path d="M388.875 216.968H370.607C370.041 216.968 369.499 217.201 369.099 217.614C368.699 218.027 368.474 218.588 368.474 219.172V238.042C368.473 238.331 368.528 238.618 368.635 238.886C368.742 239.154 368.899 239.397 369.097 239.602C369.295 239.806 369.531 239.969 369.79 240.079C370.049 240.19 370.327 240.246 370.607 240.246H388.875C389.441 240.246 389.983 240.013 390.383 239.6C390.784 239.187 391.008 238.626 391.009 238.042V219.172C391.007 218.588 390.782 218.028 390.382 217.615C389.982 217.202 389.44 216.97 388.875 216.968Z" fill="#D2D2D2"/>
<path d="M388.875 249.138H370.607C370.16 249.138 369.724 249.284 369.361 249.555C368.999 249.826 368.729 250.208 368.588 250.647C368.512 250.87 368.474 251.105 368.474 251.342V270.212C368.473 270.502 368.528 270.788 368.635 271.056C368.742 271.324 368.899 271.567 369.097 271.772C369.295 271.976 369.531 272.139 369.79 272.249C370.049 272.36 370.327 272.417 370.607 272.416H388.875C389.441 272.416 389.983 272.183 390.383 271.77C390.784 271.357 391.008 270.796 391.009 270.212V251.342C391.007 250.758 390.782 250.199 390.382 249.786C389.982 249.373 389.44 249.14 388.875 249.138Z" fill="#D2D2D2"/>
<path d="M388.875 281.308H370.607C370.327 281.308 370.049 281.364 369.79 281.475C369.531 281.586 369.295 281.748 369.097 281.953C368.899 282.157 368.742 282.401 368.635 282.668C368.528 282.936 368.473 283.223 368.474 283.512V302.382C368.473 302.672 368.528 302.959 368.635 303.226C368.742 303.494 368.899 303.737 369.097 303.942C369.295 304.147 369.531 304.309 369.79 304.42C370.049 304.53 370.327 304.587 370.607 304.586H388.875C389.441 304.586 389.983 304.354 390.383 303.94C390.784 303.527 391.008 302.967 391.009 302.382V283.512C391.008 282.928 390.784 282.367 390.383 281.954C389.983 281.541 389.441 281.309 388.875 281.308Z" fill="#E6E6E6"/>
<path d="M427.249 152.628H408.981C408.415 152.628 407.873 152.86 407.473 153.274C407.073 153.687 406.848 154.247 406.847 154.832V173.71C406.848 173.999 406.903 174.285 407.011 174.552C407.118 174.819 407.275 175.061 407.473 175.265C407.672 175.469 407.907 175.63 408.165 175.74C408.424 175.85 408.701 175.906 408.981 175.906H427.249C427.813 175.906 428.355 175.675 428.755 175.263C429.155 174.852 429.381 174.293 429.383 173.71V154.832C429.381 154.248 429.156 153.688 428.756 153.275C428.356 152.862 427.814 152.629 427.249 152.628Z" fill="#D2D2D2"/>
<path d="M427.249 184.798H408.981C408.415 184.798 407.873 185.03 407.473 185.444C407.073 185.857 406.848 186.417 406.847 187.002V205.88C406.848 206.169 406.903 206.455 407.011 206.722C407.118 206.989 407.275 207.231 407.473 207.435C407.672 207.639 407.907 207.8 408.165 207.91C408.424 208.02 408.701 208.076 408.981 208.076H427.249C427.813 208.076 428.355 207.845 428.755 207.433C429.155 207.022 429.381 206.463 429.383 205.88V187.002C429.381 186.418 429.156 185.858 428.756 185.445C428.356 185.032 427.814 184.8 427.249 184.798Z" fill="#D2D2D2"/>
<path d="M427.249 216.968H408.981C408.415 216.968 407.873 217.201 407.473 217.614C407.073 218.027 406.848 218.588 406.847 219.172V238.042C406.847 238.331 406.902 238.618 407.009 238.886C407.116 239.154 407.273 239.397 407.471 239.602C407.669 239.806 407.905 239.969 408.164 240.079C408.423 240.19 408.701 240.246 408.981 240.246H427.249C427.815 240.246 428.357 240.013 428.757 239.6C429.157 239.187 429.382 238.626 429.383 238.042V219.172C429.381 218.588 429.156 218.028 428.756 217.615C428.356 217.202 427.814 216.97 427.249 216.968Z" fill="#E6E6E6"/>
<path d="M427.249 249.138H408.981C408.415 249.138 407.873 249.371 407.473 249.784C407.073 250.197 406.848 250.758 406.847 251.342V270.212C406.847 270.502 406.902 270.788 407.009 271.056C407.116 271.324 407.273 271.567 407.471 271.772C407.669 271.976 407.905 272.139 408.164 272.249C408.423 272.36 408.701 272.417 408.981 272.416H427.249C427.815 272.416 428.357 272.183 428.757 271.77C429.157 271.357 429.382 270.796 429.383 270.212V251.342C429.381 250.758 429.156 250.199 428.756 249.786C428.356 249.373 427.814 249.14 427.249 249.138Z" fill="#D2D2D2"/>
<path d="M427.249 281.308H408.981C408.701 281.308 408.423 281.364 408.164 281.475C407.905 281.586 407.669 281.748 407.471 281.953C407.273 282.157 407.116 282.401 407.009 282.668C406.902 282.936 406.847 283.223 406.847 283.512V302.382C406.847 302.672 406.902 302.959 407.009 303.226C407.116 303.494 407.273 303.737 407.471 303.942C407.669 304.147 407.905 304.309 408.164 304.42C408.423 304.53 408.701 304.587 408.981 304.586H427.249C427.815 304.586 428.357 304.354 428.757 303.94C429.157 303.527 429.382 302.967 429.383 302.382V283.512C429.382 282.928 429.157 282.367 428.757 281.954C428.357 281.541 427.815 281.309 427.249 281.308Z" fill="#D2D2D2"/>
<path d="M465.623 152.628H447.355C446.789 152.628 446.247 152.86 445.846 153.274C445.446 153.687 445.221 154.247 445.221 154.832V173.71C445.221 173.999 445.277 174.285 445.384 174.552C445.492 174.819 445.649 175.061 445.847 175.265C446.045 175.469 446.281 175.63 446.539 175.74C446.798 175.85 447.075 175.906 447.355 175.906H465.623C466.187 175.906 466.729 175.675 467.129 175.263C467.529 174.852 467.755 174.293 467.757 173.71V154.832C467.755 154.248 467.529 153.688 467.13 153.275C466.73 152.862 466.188 152.629 465.623 152.628Z" fill="#D2D2D2"/>
<path d="M465.623 184.798H447.355C446.789 184.798 446.246 185.03 445.846 185.444C445.446 185.857 445.221 186.417 445.221 187.002V205.88C445.221 206.169 445.277 206.455 445.384 206.722C445.492 206.989 445.649 207.231 445.847 207.435C446.045 207.639 446.281 207.8 446.539 207.91C446.798 208.02 447.075 208.076 447.355 208.076H465.623C466.187 208.076 466.729 207.845 467.129 207.433C467.529 207.022 467.755 206.463 467.757 205.88V187.002C467.755 186.418 467.529 185.858 467.13 185.445C466.73 185.032 466.188 184.8 465.623 184.798Z" fill="white"/>
<path d="M465.623 216.968H447.355C446.789 216.968 446.246 217.201 445.846 217.614C445.446 218.027 445.221 218.588 445.221 219.172V238.042C445.221 238.331 445.275 238.618 445.382 238.886C445.49 239.154 445.647 239.397 445.845 239.602C446.043 239.806 446.279 239.969 446.538 240.079C446.797 240.19 447.075 240.246 447.355 240.246H465.623C466.189 240.246 466.731 240.013 467.131 239.6C467.531 239.187 467.756 238.626 467.757 238.042V219.172C467.755 218.588 467.529 218.028 467.13 217.615C466.73 217.202 466.188 216.97 465.623 216.968Z" fill="white"/>
<path d="M465.623 249.138H447.355C446.789 249.138 446.246 249.371 445.846 249.784C445.446 250.197 445.221 250.758 445.221 251.342V270.212C445.221 270.502 445.275 270.788 445.382 271.056C445.49 271.324 445.647 271.567 445.845 271.772C446.043 271.977 446.279 272.139 446.538 272.249C446.797 272.36 447.075 272.417 447.355 272.416H465.623C466.189 272.416 466.731 272.183 467.131 271.77C467.531 271.357 467.756 270.796 467.757 270.212V251.342C467.755 250.758 467.529 250.199 467.13 249.786C466.73 249.373 466.188 249.14 465.623 249.138Z" fill="#E6E6E6"/>
<path d="M465.623 281.308H447.355C447.075 281.308 446.797 281.364 446.538 281.475C446.279 281.586 446.043 281.748 445.845 281.953C445.647 282.157 445.49 282.401 445.382 282.668C445.275 282.936 445.221 283.223 445.221 283.512V302.382C445.221 302.672 445.275 302.959 445.382 303.226C445.49 303.494 445.647 303.737 445.845 303.942C446.043 304.147 446.279 304.309 446.538 304.42C446.797 304.53 447.075 304.587 447.355 304.586H465.623C466.189 304.586 466.731 304.354 467.131 303.94C467.531 303.527 467.756 302.967 467.757 302.382V283.512C467.756 282.928 467.531 282.367 467.131 281.954C466.731 281.541 466.189 281.309 465.623 281.308Z" fill="#D2D2D2"/>
<path d="M503.997 152.628H485.721C485.156 152.63 484.615 152.863 484.217 153.276C483.819 153.689 483.595 154.249 483.595 154.832V173.71C483.595 174.292 483.819 174.851 484.218 175.262C484.616 175.674 485.157 175.905 485.721 175.906H503.997C504.561 175.906 505.103 175.675 505.503 175.263C505.903 174.852 506.128 174.293 506.13 173.71V154.832C506.129 154.248 505.903 153.688 505.504 153.275C505.104 152.862 504.562 152.629 503.997 152.628Z" fill="white"/>
<path d="M503.997 184.798H485.721C485.156 184.8 484.615 185.033 484.217 185.446C483.818 185.859 483.595 186.419 483.595 187.002V205.88C483.595 206.462 483.819 207.021 484.218 207.433C484.616 207.844 485.157 208.076 485.721 208.076H503.997C504.561 208.076 505.103 207.845 505.503 207.433C505.903 207.022 506.128 206.463 506.13 205.88V187.002C506.129 186.418 505.903 185.858 505.504 185.445C505.104 185.032 504.562 184.8 503.997 184.798Z" fill="white"/>
<path d="M503.997 216.968H485.721C485.156 216.97 484.615 217.203 484.217 217.616C483.819 218.029 483.595 218.589 483.595 219.172V238.042C483.594 238.331 483.649 238.617 483.755 238.884C483.862 239.152 484.018 239.394 484.215 239.599C484.413 239.804 484.647 239.966 484.906 240.077C485.164 240.188 485.441 240.245 485.721 240.246H503.997C504.562 240.246 505.105 240.013 505.505 239.6C505.905 239.187 506.13 238.626 506.13 238.042V219.172C506.129 218.588 505.903 218.028 505.504 217.615C505.104 217.202 504.562 216.97 503.997 216.968Z" fill="white"/>
<path d="M503.997 249.138H485.721C485.156 249.14 484.615 249.373 484.217 249.786C483.819 250.2 483.595 250.759 483.595 251.342V270.212C483.594 270.501 483.649 270.787 483.755 271.054C483.862 271.322 484.018 271.565 484.215 271.769C484.413 271.974 484.647 272.136 484.906 272.247C485.164 272.358 485.441 272.416 485.721 272.416H503.997C504.562 272.416 505.105 272.183 505.505 271.77C505.905 271.357 506.13 270.796 506.13 270.212V251.342C506.129 250.758 505.903 250.199 505.504 249.786C505.104 249.373 504.562 249.14 503.997 249.138Z" fill="#D2D2D2"/>
<path d="M503.997 281.308H485.721C485.441 281.309 485.164 281.366 484.906 281.477C484.647 281.588 484.413 281.75 484.215 281.955C484.018 282.16 483.862 282.403 483.755 282.67C483.649 282.937 483.594 283.223 483.595 283.512V302.382C483.594 302.671 483.649 302.957 483.755 303.225C483.862 303.492 484.018 303.735 484.215 303.939C484.413 304.144 484.647 304.307 484.906 304.418C485.164 304.529 485.441 304.586 485.721 304.586H503.997C504.563 304.586 505.105 304.354 505.505 303.94C505.905 303.527 506.13 302.967 506.13 302.382V283.512C506.13 282.928 505.905 282.367 505.505 281.954C505.105 281.541 504.562 281.309 503.997 281.308Z" fill="#E6E6E6"/>
<path d="M542.371 152.628H524.095C523.53 152.63 522.989 152.863 522.591 153.276C522.192 153.689 521.969 154.249 521.969 154.832V173.71C521.969 174.292 522.193 174.851 522.592 175.262C522.99 175.674 523.531 175.905 524.095 175.906H542.371C542.935 175.906 543.477 175.675 543.877 175.263C544.277 174.852 544.502 174.293 544.504 173.71V154.832C544.503 154.248 544.277 153.688 543.877 153.275C543.478 152.862 542.936 152.629 542.371 152.628Z" fill="white"/>
<path d="M542.371 184.798H524.095C523.53 184.8 522.989 185.033 522.591 185.446C522.192 185.859 521.969 186.419 521.969 187.002V205.88C521.969 206.462 522.193 207.021 522.592 207.433C522.99 207.844 523.531 208.076 524.095 208.076H542.371C542.935 208.076 543.477 207.845 543.877 207.433C544.277 207.022 544.502 206.463 544.504 205.88V187.002C544.503 186.418 544.277 185.858 543.877 185.445C543.478 185.032 542.936 184.8 542.371 184.798Z" fill="white"/>
<path d="M542.371 216.968H524.095C523.53 216.97 522.989 217.203 522.591 217.616C522.192 218.029 521.969 218.589 521.969 219.172V238.042C521.968 238.331 522.023 238.617 522.129 238.884C522.236 239.152 522.392 239.394 522.589 239.599C522.787 239.804 523.021 239.966 523.28 240.077C523.538 240.188 523.815 240.245 524.095 240.246H542.371C542.936 240.246 543.479 240.013 543.879 239.6C544.279 239.187 544.504 238.626 544.504 238.042V219.172C544.503 218.588 544.277 218.028 543.878 217.615C543.478 217.202 542.936 216.97 542.371 216.968Z" fill="#D2D2D2"/>
<path d="M542.371 249.138H524.095C523.53 249.14 522.989 249.373 522.591 249.786C522.192 250.2 521.969 250.759 521.969 251.342V270.212C521.968 270.501 522.023 270.787 522.129 271.054C522.235 271.322 522.392 271.565 522.589 271.769C522.787 271.974 523.021 272.136 523.28 272.247C523.538 272.358 523.815 272.416 524.095 272.416H542.371C542.936 272.416 543.479 272.183 543.879 271.77C544.279 271.357 544.504 270.796 544.504 270.212V251.342C544.503 250.758 544.277 250.199 543.878 249.786C543.478 249.373 542.936 249.14 542.371 249.138Z" fill="#E6E6E6"/>
<path d="M542.371 281.308H524.095C523.815 281.309 523.538 281.366 523.28 281.477C523.021 281.588 522.787 281.75 522.589 281.955C522.392 282.16 522.235 282.403 522.129 282.67C522.023 282.937 521.968 283.223 521.969 283.512V302.382C521.968 302.671 522.023 302.957 522.129 303.225C522.235 303.492 522.392 303.735 522.589 303.939C522.787 304.144 523.021 304.307 523.28 304.418C523.538 304.529 523.815 304.586 524.095 304.586H542.371C542.936 304.586 543.479 304.354 543.879 303.94C544.279 303.527 544.504 302.967 544.504 302.382V283.512C544.504 282.928 544.279 282.367 543.879 281.954C543.479 281.541 542.936 281.309 542.371 281.308Z" fill="white"/>
<path d="M580.745 152.628H562.469C561.904 152.63 561.363 152.863 560.965 153.276C560.566 153.689 560.343 154.249 560.343 154.832V173.71C560.343 174.292 560.567 174.851 560.966 175.262C561.364 175.674 561.905 175.905 562.469 175.906H580.745C581.309 175.906 581.851 175.675 582.251 175.263C582.651 174.852 582.876 174.293 582.878 173.71V154.832C582.877 154.248 582.651 153.688 582.251 153.275C581.852 152.862 581.31 152.629 580.745 152.628Z" fill="#D2D2D2"/>
<path d="M580.745 184.798H562.469C561.904 184.8 561.363 185.033 560.965 185.446C560.566 185.859 560.343 186.419 560.343 187.002V205.88C560.343 206.462 560.567 207.021 560.966 207.433C561.364 207.844 561.905 208.076 562.469 208.076H580.745C581.309 208.076 581.851 207.845 582.251 207.433C582.651 207.022 582.876 206.463 582.878 205.88V187.002C582.877 186.418 582.651 185.858 582.252 185.445C581.852 185.032 581.31 184.8 580.745 184.798Z" fill="#D2D2D2"/>
<path d="M580.745 216.968H562.469C561.904 216.97 561.363 217.203 560.965 217.616C560.566 218.029 560.343 218.589 560.343 219.172V238.042C560.342 238.331 560.397 238.617 560.503 238.884C560.61 239.152 560.766 239.394 560.963 239.599C561.161 239.804 561.395 239.966 561.654 240.077C561.912 240.188 562.189 240.245 562.469 240.246H580.745C581.31 240.246 581.853 240.013 582.253 239.6C582.653 239.187 582.878 238.626 582.878 238.042V219.172C582.877 218.588 582.651 218.028 582.252 217.615C581.852 217.202 581.31 216.97 580.745 216.968Z" fill="#E6E6E6"/>
<path d="M580.745 249.138H562.469C561.904 249.14 561.363 249.373 560.965 249.786C560.566 250.2 560.343 250.759 560.343 251.342V270.212C560.342 270.501 560.397 270.787 560.503 271.054C560.609 271.322 560.766 271.565 560.963 271.769C561.161 271.974 561.395 272.136 561.654 272.247C561.912 272.358 562.189 272.416 562.469 272.416H580.745C581.31 272.416 581.853 272.183 582.253 271.77C582.653 271.357 582.878 270.796 582.878 270.212V251.342C582.877 250.758 582.651 250.199 582.252 249.786C581.852 249.373 581.31 249.14 580.745 249.138Z" fill="white"/>
<path d="M580.745 281.308H562.469C562.189 281.309 561.912 281.366 561.654 281.477C561.395 281.588 561.161 281.75 560.963 281.955C560.766 282.16 560.609 282.403 560.503 282.67C560.397 282.937 560.342 283.223 560.343 283.512V302.382C560.342 302.671 560.397 302.957 560.503 303.225C560.609 303.492 560.766 303.735 560.963 303.939C561.161 304.144 561.395 304.307 561.654 304.418C561.912 304.529 562.189 304.586 562.469 304.586H580.745C581.31 304.586 581.853 304.354 582.253 303.94C582.653 303.527 582.878 302.967 582.878 302.382V283.512C582.878 282.928 582.653 282.367 582.253 281.954C581.853 281.541 581.31 281.309 580.745 281.308Z" fill="#D2D2D2"/>
<path d="M619.119 152.628H600.843C600.278 152.63 599.737 152.863 599.339 153.276C598.94 153.689 598.717 154.249 598.717 154.832V173.71C598.717 174.292 598.941 174.851 599.34 175.262C599.738 175.674 600.279 175.905 600.843 175.906H619.119C619.683 175.906 620.225 175.675 620.625 175.263C621.025 174.852 621.25 174.293 621.252 173.71V154.832C621.251 154.248 621.025 153.688 620.625 153.275C620.226 152.862 619.684 152.629 619.119 152.628Z" fill="#D2D2D2"/>
<path d="M619.119 184.798H600.843C600.278 184.8 599.737 185.033 599.339 185.446C598.94 185.859 598.717 186.419 598.717 187.002V205.88C598.717 206.462 598.941 207.021 599.34 207.433C599.738 207.844 600.279 208.076 600.843 208.076H619.119C619.683 208.076 620.225 207.845 620.625 207.433C621.025 207.022 621.25 206.463 621.252 205.88V187.002C621.251 186.418 621.025 185.858 620.625 185.445C620.226 185.032 619.684 184.8 619.119 184.798Z" fill="#D2D2D2"/>
<path d="M619.119 216.968H600.843C600.278 216.97 599.737 217.203 599.339 217.616C598.94 218.029 598.717 218.589 598.717 219.172V238.042C598.716 238.331 598.771 238.617 598.877 238.884C598.984 239.152 599.14 239.394 599.337 239.599C599.535 239.804 599.769 239.966 600.028 240.077C600.286 240.188 600.563 240.245 600.843 240.246H619.119C619.684 240.246 620.227 240.013 620.627 239.6C621.027 239.187 621.252 238.626 621.252 238.042V219.172C621.251 218.588 621.025 218.028 620.626 217.615C620.226 217.202 619.684 216.97 619.119 216.968Z" fill="#E6E6E6"/>
<path d="M619.119 249.138H600.843C600.278 249.14 599.737 249.373 599.339 249.786C598.94 250.2 598.717 250.759 598.717 251.342V270.212C598.716 270.501 598.771 270.787 598.877 271.054C598.984 271.322 599.14 271.565 599.337 271.769C599.535 271.974 599.769 272.136 600.028 272.247C600.286 272.358 600.563 272.416 600.843 272.416H619.119C619.684 272.416 620.227 272.183 620.627 271.77C621.027 271.357 621.252 270.796 621.252 270.212V251.342C621.251 250.758 621.025 250.199 620.625 249.786C620.226 249.373 619.684 249.14 619.119 249.138Z" fill="#D2D2D2"/>
<path d="M619.119 281.308H600.843C600.563 281.309 600.286 281.366 600.028 281.477C599.769 281.588 599.535 281.75 599.337 281.955C599.14 282.16 598.984 282.403 598.877 282.67C598.771 282.937 598.716 283.223 598.717 283.512V302.382C598.716 302.671 598.771 302.957 598.877 303.225C598.984 303.492 599.14 303.735 599.337 303.939C599.535 304.144 599.769 304.307 600.028 304.418C600.286 304.529 600.563 304.586 600.843 304.586H619.119C619.684 304.586 620.227 304.354 620.627 303.94C621.027 303.527 621.252 302.967 621.252 302.382V283.512C621.252 282.928 621.027 282.367 620.627 281.954C620.227 281.541 619.684 281.309 619.119 281.308Z" fill="#D2D2D2"/>
<path d="M657.492 152.628H639.216C638.652 152.63 638.111 152.863 637.713 153.276C637.314 153.689 637.091 154.249 637.091 154.832V173.71C637.091 174.292 637.315 174.851 637.713 175.262C638.112 175.674 638.653 175.905 639.216 175.906H657.492C658.057 175.906 658.598 175.675 658.998 175.263C659.398 174.852 659.624 174.293 659.626 173.71V154.832C659.624 154.248 659.399 153.688 658.999 153.275C658.599 152.862 658.058 152.629 657.492 152.628Z" fill="#E6E6E6"/>
<path d="M657.492 184.798H639.216C638.652 184.8 638.111 185.033 637.713 185.446C637.314 185.859 637.091 186.419 637.091 187.002V205.88C637.091 206.462 637.315 207.021 637.713 207.433C638.112 207.844 638.653 208.076 639.216 208.076H657.492C658.057 208.076 658.598 207.845 658.998 207.433C659.398 207.022 659.624 206.463 659.626 205.88V187.002C659.624 186.418 659.399 185.858 658.999 185.445C658.599 185.032 658.058 184.8 657.492 184.798Z" fill="#D2D2D2"/>
<path d="M657.492 216.968H639.216C638.652 216.97 638.111 217.203 637.713 217.616C637.314 218.029 637.091 218.589 637.091 219.172V238.042C637.09 238.331 637.144 238.617 637.251 238.884C637.357 239.152 637.514 239.394 637.711 239.599C637.909 239.804 638.143 239.966 638.401 240.077C638.66 240.188 638.937 240.245 639.216 240.246H657.492C658.058 240.246 658.601 240.013 659.001 239.6C659.401 239.187 659.626 238.626 659.626 238.042V219.172C659.624 218.588 659.399 218.028 658.999 217.615C658.599 217.202 658.058 216.97 657.492 216.968Z" fill="#D2D2D2"/>
<path d="M657.492 249.138H639.216C638.652 249.14 638.111 249.373 637.713 249.786C637.314 250.2 637.091 250.759 637.091 251.342V270.212C637.09 270.501 637.144 270.787 637.251 271.054C637.357 271.322 637.514 271.565 637.711 271.769C637.909 271.974 638.143 272.136 638.401 272.247C638.66 272.358 638.937 272.416 639.216 272.416H657.492C658.058 272.416 658.601 272.183 659.001 271.77C659.401 271.357 659.626 270.796 659.626 270.212V251.342C659.624 250.758 659.399 250.199 658.999 249.786C658.599 249.373 658.058 249.14 657.492 249.138Z" fill="#D2D2D2"/>
<path d="M657.492 281.308H639.216C638.937 281.309 638.66 281.366 638.401 281.477C638.143 281.588 637.909 281.75 637.711 281.955C637.514 282.16 637.357 282.403 637.251 282.67C637.144 282.937 637.09 283.223 637.091 283.512V302.382C637.09 302.671 637.144 302.957 637.251 303.225C637.357 303.492 637.514 303.735 637.711 303.939C637.909 304.144 638.143 304.307 638.401 304.418C638.66 304.529 638.937 304.586 639.216 304.586H657.492C658.058 304.586 658.601 304.354 659.001 303.94C659.401 303.527 659.626 302.967 659.626 302.382V283.512C659.626 282.928 659.401 282.367 659.001 281.954C658.601 281.541 658.058 281.309 657.492 281.308Z" fill="#E6E6E6"/>
<path d="M695.866 152.628H677.59C677.026 152.63 676.485 152.863 676.087 153.276C675.688 153.689 675.464 154.249 675.465 154.832V173.71C675.465 174.292 675.689 174.851 676.087 175.262C676.486 175.674 677.026 175.905 677.59 175.906H695.866C696.431 175.906 696.972 175.675 697.372 175.263C697.772 174.852 697.998 174.293 698 173.71V154.832C697.998 154.248 697.773 153.688 697.373 153.275C696.973 152.862 696.432 152.629 695.866 152.628Z" fill="#E6E6E6"/>
<path d="M695.866 184.798H677.59C677.026 184.8 676.485 185.033 676.086 185.446C675.688 185.859 675.464 186.419 675.465 187.002V205.88C675.465 206.462 675.689 207.021 676.087 207.433C676.486 207.844 677.026 208.076 677.59 208.076H695.866C696.431 208.076 696.972 207.845 697.372 207.433C697.772 207.022 697.998 206.463 698 205.88V187.002C697.998 186.418 697.773 185.858 697.373 185.445C696.973 185.032 696.432 184.8 695.866 184.798Z" fill="#E6E6E6"/>
<path d="M695.866 216.968H677.59C677.026 216.97 676.485 217.203 676.086 217.616C675.688 218.029 675.464 218.589 675.465 219.172V238.042C675.464 238.331 675.518 238.617 675.625 238.884C675.731 239.152 675.888 239.394 676.085 239.599C676.282 239.804 676.517 239.966 676.775 240.077C677.034 240.188 677.31 240.245 677.59 240.246H695.866C696.432 240.246 696.975 240.013 697.375 239.6C697.775 239.187 698 238.626 698 238.042V219.172C697.998 218.588 697.773 218.028 697.373 217.615C696.973 217.202 696.432 216.97 695.866 216.968Z" fill="#D2D2D2"/>
<path d="M695.866 249.138H677.59C677.026 249.14 676.485 249.373 676.087 249.786C675.688 250.2 675.464 250.759 675.465 251.342V270.212C675.464 270.501 675.518 270.787 675.625 271.054C675.731 271.322 675.888 271.565 676.085 271.769C676.282 271.974 676.517 272.136 676.775 272.247C677.034 272.358 677.31 272.416 677.59 272.416H695.866C696.432 272.416 696.975 272.183 697.375 271.77C697.775 271.357 698 270.796 698 270.212V251.342C697.998 250.758 697.773 250.199 697.373 249.786C696.973 249.373 696.432 249.14 695.866 249.138Z" fill="#E6E6E6"/>
<path d="M695.866 281.308H677.59C677.31 281.309 677.034 281.366 676.775 281.477C676.517 281.588 676.282 281.75 676.085 281.955C675.888 282.16 675.731 282.403 675.625 282.67C675.518 282.937 675.464 283.223 675.465 283.512V302.382C675.464 302.671 675.518 302.957 675.625 303.225C675.731 303.492 675.888 303.735 676.085 303.939C676.282 304.144 676.517 304.307 676.775 304.418C677.034 304.529 677.31 304.586 677.59 304.586H695.866C696.432 304.586 696.975 304.354 697.375 303.94C697.775 303.527 698 302.967 698 302.382V283.512C698 282.928 697.775 282.367 697.375 281.954C696.975 281.541 696.432 281.309 695.866 281.308Z" fill="#E6E6E6"/>
<path d="M275.819 559.525H275.31L275.745 559.465L275.819 559.525Z" fill="#2F2E41"/>
<path d="M232.094 207.732C263.06 207.732 288.162 181.802 288.162 149.816C288.162 117.83 263.06 91.8998 232.094 91.8998C201.128 91.8998 176.025 117.83 176.025 149.816C176.025 181.802 201.128 207.732 232.094 207.732Z" fill="#E6D9D9"/>
<path d="M281.195 107.353C281.195 107.353 295.859 78.3947 263.597 75.7621C263.597 75.7621 236.093 49.9901 208.058 71.0506C208.058 71.0506 192.767 71.0506 184.405 88.9249C184.405 88.9249 172.378 84.2133 169.735 96.8225C169.735 96.8225 160.935 123.148 169.735 146.841C178.535 170.534 181.458 173.167 181.458 173.167C181.458 173.167 166.998 123.493 202.196 120.86C237.395 118.228 276.783 95.5063 279.717 124.464C282.65 153.423 287.064 160.558 287.064 160.558C287.064 160.558 314.925 119.199 281.195 107.353Z" fill="#2F2E41"/>
<path d="M377.131 292.549L376.951 293.532L374.924 304.586L360.915 381.049L360.086 385.55L358.346 395.069L355.967 408.056L350.69 436.836L349.18 445.084L348.613 448.178L348.416 449.263L346.849 457.799L346.373 460.376L342.549 489.647L339.209 515.154L350.386 526.7L343.722 533.583L339.348 559.464L339.356 559.523H160.839C153.617 554.691 146.499 549.709 139.485 544.578L140.954 533.219C140.954 533.219 146.01 512.933 143.884 510.509C141.767 508.085 137.122 503.753 137.122 503.753L142.973 489.647L143.786 487.689L142.423 458.503L142.391 457.799L141.939 448.178L141.882 446.94L141.791 445.084L140.06 408.056L140.027 407.446L139.502 396.222L139.009 385.55L138.796 381.048L136.687 336.01L135.259 305.425L134.012 278.799L139.026 277.044L192.656 258.217L214.871 228.386L261.107 228.742L283.741 228.921L321.507 265.1L330.1 269.339L330.165 269.373L336.328 272.416L351.954 280.121L368.473 288.276L376.951 292.456L377.131 292.549Z" fill="#CACACA"/>
<path d="M220.846 472.635C217.458 473.991 213.823 474.563 210.198 474.311C206.573 474.059 203.045 472.988 199.863 471.176C196.682 469.363 193.923 466.851 191.783 463.819C189.643 460.786 188.172 457.305 187.475 453.621L100.027 440.806L130.426 405.285L208.808 422.901C214.876 422.101 221.018 423.629 226.069 427.194C231.12 430.759 234.729 436.114 236.213 442.245C237.697 448.375 236.952 454.855 234.12 460.456C231.288 466.057 226.565 470.39 220.846 472.635Z" fill="#E6D9D9"/>
<path d="M181.856 408.056C180.236 405.935 177.943 404.473 175.381 403.928L139.502 396.222L135.817 395.434C133.676 394.972 131.653 394.049 129.881 392.724C128.109 391.399 126.628 389.702 125.534 387.745C124.4 385.691 123.714 383.405 123.524 381.049C123.353 378.906 123.601 376.749 124.254 374.708L136.687 336.01L144.754 310.902C145.732 307.873 146.309 304.722 146.469 301.534C146.919 292.712 144.276 284.018 139.026 277.045C134.41 270.915 128.008 266.482 120.765 264.399C113.522 262.317 105.823 262.697 98.8054 265.482C98.6003 265.558 98.3869 265.643 98.1817 265.728C93.1489 267.803 88.6523 271.06 85.0475 275.24C81.4426 279.419 78.8282 284.408 77.4109 289.811L68.6463 322.744L50.5672 390.636C48.7574 397.438 48.3918 404.564 49.4954 411.526C50.5989 418.487 53.1456 425.121 56.9612 430.971C60.7767 436.822 65.771 441.752 71.6022 445.424C77.4334 449.096 83.9639 451.423 90.7466 452.247L142.423 458.503L166.337 461.402C169.103 461.745 171.892 461 174.148 459.314C176.405 457.628 177.965 455.126 178.516 452.306C178.555 452.153 178.585 451.997 178.606 451.84L179.181 448.178L184.047 417.339L184.096 417.025C184.35 415.451 184.282 413.84 183.896 412.295C183.51 410.751 182.815 409.307 181.856 408.056Z" fill="#CACACA"/>
<path d="M276.547 473.624C280.087 474.472 283.763 474.509 287.318 473.731C290.872 472.954 294.219 471.38 297.121 469.122C300.023 466.864 302.411 463.976 304.116 460.662C305.821 457.347 306.802 453.687 306.989 449.939L391.814 424.513L356.869 393.776L281.675 422.633C275.558 422.725 269.687 425.132 265.173 429.397C260.659 433.663 257.817 439.49 257.185 445.775C256.553 452.061 258.175 458.367 261.743 463.5C265.312 468.632 270.579 472.235 276.547 473.624Z" fill="#E6D9D9"/>
<path d="M433.929 367.638L393.585 271.729C390.286 263.855 384.392 257.443 376.951 253.631C374.651 252.461 372.235 251.552 369.745 250.918C369.36 250.817 368.974 250.723 368.588 250.647C363.31 249.457 357.834 249.562 352.602 250.952C347.819 252.222 343.349 254.518 339.483 257.692C335.617 260.866 332.442 264.846 330.165 269.373C330.14 269.41 330.118 269.45 330.1 269.491C327.557 274.573 326.204 280.2 326.151 285.921C326.099 291.641 327.347 297.294 329.796 302.425L330.297 303.459L358.806 362.603C359.78 364.625 360.328 366.837 360.416 369.094C360.503 371.351 360.128 373.601 359.314 375.698C358.501 377.794 357.267 379.689 355.694 381.259C354.122 382.828 352.246 384.036 350.189 384.804L348.187 385.55L312.176 398.986C309.474 399.982 307.252 402.022 305.977 404.677C304.701 407.331 304.473 410.394 305.34 413.219L305.431 413.515L315.525 446.881C315.574 447.033 315.623 447.186 315.68 447.338C315.769 447.626 315.879 447.907 316.009 448.178C317.082 450.663 318.978 452.671 321.356 453.841C323.735 455.012 326.439 455.267 328.983 454.561L348.416 449.263L352.38 448.178L402.563 434.487C409.167 432.685 415.315 429.43 420.587 424.945C425.859 420.461 430.131 414.852 433.109 408.503C436.088 402.155 437.703 395.217 437.845 388.163C437.986 381.11 436.651 374.108 433.929 367.638Z" fill="#CACACA"/>
<path d="M36.8458 448.178C48.4749 462.829 61.0165 476.682 74.3909 489.647H445.303C448.877 489.653 452.302 491.122 454.828 493.733C457.354 496.344 458.775 499.884 458.778 503.575L459.312 600.662C482.13 589.833 503.499 576.006 522.888 559.523C528.272 554.954 533.488 550.187 538.538 545.222C541.845 541.984 545.073 538.667 548.222 535.27C571.827 509.869 590.942 480.393 604.699 448.178H36.8458Z" fill="#3F3D56"/>
<path d="M548.222 535.27C545.079 538.67 541.851 541.987 538.538 545.222H459.583V535.27H548.222Z" fill="white"/>
<path d="M376.393 216.968C376.003 216.224 375.425 215.603 374.722 215.171C374.018 214.738 373.215 214.51 372.396 214.51H103.352C102.146 214.513 100.99 215.01 100.138 215.892C99.2855 216.774 98.8064 217.968 98.8054 219.214V385.55H376.951V219.214C376.955 218.428 376.763 217.655 376.393 216.968Z" fill="#3F3D56"/>
<path d="M98.5619 381.047V401.573C98.5619 402.423 98.7241 403.266 99.0394 404.052C99.3546 404.838 99.8167 405.553 100.399 406.154C100.982 406.756 101.673 407.233 102.434 407.559C103.195 407.885 104.011 408.052 104.835 408.052H207.496V448.561H206.133C206.026 448.561 205.92 448.583 205.821 448.625C205.722 448.667 205.632 448.729 205.556 448.807C205.481 448.886 205.421 448.978 205.38 449.08C205.339 449.183 205.318 449.292 205.318 449.403V452.22C205.318 452.331 205.339 452.44 205.38 452.542C205.421 452.644 205.481 452.737 205.556 452.815C205.632 452.894 205.722 452.956 205.821 452.998C205.92 453.04 206.025 453.062 206.133 453.062H269.863C269.97 453.062 270.076 453.04 270.175 452.998C270.274 452.956 270.364 452.894 270.44 452.815C270.515 452.737 270.575 452.644 270.616 452.542C270.657 452.44 270.678 452.331 270.678 452.22V449.403C270.678 449.292 270.657 449.183 270.616 449.08C270.575 448.978 270.515 448.886 270.44 448.807C270.364 448.729 270.274 448.667 270.175 448.625C270.076 448.583 269.97 448.561 269.863 448.561H268.5V408.052H371.161C371.985 408.052 372.801 407.885 373.562 407.559C374.323 407.233 375.014 406.756 375.597 406.154C376.179 405.553 376.641 404.838 376.957 404.052C377.272 403.266 377.434 402.423 377.434 401.573V381.047H98.5619Z" fill="#3F3D56"/>
<path d="M234.628 322.134C248.817 322.134 260.32 310.252 260.32 295.596C260.32 280.939 248.817 269.057 234.628 269.057C220.439 269.057 208.936 280.939 208.936 295.596C208.936 310.252 220.439 322.134 234.628 322.134Z" fill="#D2D2D2"/>
<path d="M300.088 146.651H295.985C295.985 114.608 265.284 93.611 234.312 93.594C229.808 93.5804 225.313 94.0319 220.895 94.9418C215.921 95.9676 210.76 97.1967 205.688 98.7989C185.688 105.131 167.142 117.372 167.142 146.651C167.137 152.338 167.838 158.001 169.226 163.504L165.254 164.572C163.781 158.72 163.036 152.698 163.038 146.651C163.038 121.068 173.206 103.495 190.768 93.0176C200.001 87.5075 211.268 83.9557 224.177 82.2264C229.549 81.4882 234.98 81.3177 240.385 81.7178C276.002 84.3625 300.088 112.574 300.088 146.651Z" fill="#D2D2D2"/>
<path d="M306.924 149L305.307 136.657C304.909 133.54 303.455 130.669 301.204 128.553C299.759 127.173 298.029 126.151 296.145 125.564C294.262 124.976 292.273 124.839 290.33 125.162L287.762 125.527C287.059 125.622 286.381 125.861 285.769 126.229C285.156 126.597 284.62 127.088 284.192 127.671C283.76 128.253 283.445 128.918 283.263 129.626C283.081 130.335 283.037 131.074 283.133 131.8L286.867 160.232C287.021 161.39 287.524 162.47 288.305 163.317C289.085 164.165 290.104 164.737 291.217 164.953C291.546 165.021 291.882 165.056 292.218 165.055C292.46 165.055 292.701 165.038 292.94 165.004L295.812 164.606C297.564 164.366 299.249 163.758 300.765 162.821C302.28 161.884 303.594 160.636 304.626 159.155C304.848 158.833 305.061 158.502 305.258 158.163C306.796 155.389 307.383 152.161 306.924 149Z" fill="#D2D2D2"/>
<path d="M286.104 126.044C285.351 126.422 284.695 126.98 284.192 127.671C283.76 128.253 283.445 128.918 283.263 129.626C283.081 130.335 283.037 131.074 283.133 131.8L286.867 160.232C287.021 161.39 287.524 162.47 288.305 163.317C289.085 164.165 290.104 164.737 291.217 164.953L286.104 126.044Z" fill="white"/>
<path d="M306.924 149L305.307 136.657C304.909 133.54 303.455 130.669 301.204 128.553L304.922 156.841C304.977 157.295 305.091 157.739 305.258 158.163C306.796 155.389 307.383 152.161 306.924 149Z" fill="#3F3D56"/>
<path d="M294.147 157.892C295.269 157.735 295.834 154.975 295.407 151.728C294.981 148.48 293.725 145.975 292.602 146.132C291.479 146.29 290.915 149.05 291.341 152.297C291.768 155.545 293.024 158.05 294.147 157.892Z" fill="#3F3D56"/>
<path d="M291.685 142.634C292.808 142.477 293.372 139.716 292.946 136.469C292.519 133.222 291.263 130.717 290.14 130.874C289.018 131.031 288.453 133.791 288.88 137.039C289.306 140.286 290.562 142.791 291.685 142.634Z" fill="#3F3D56"/>
<path d="M307.277 148.568C308.4 148.41 308.964 145.65 308.538 142.403C308.111 139.155 306.856 136.65 305.733 136.808C304.61 136.965 304.045 139.725 304.472 142.973C304.898 146.22 306.154 148.725 307.277 148.568Z" fill="#3F3D56"/>
<path d="M234.312 93.594C229.807 93.5804 225.313 94.0319 220.895 94.9418C215.921 95.9676 210.76 97.1967 205.688 98.7989C197.769 98.4005 191.942 96.2812 190.768 93.0176C200.001 87.5075 211.268 83.9557 224.177 82.2264C229.549 81.4882 234.98 81.3177 240.385 81.7178C240.957 82.0643 241.452 82.5319 241.837 83.09C242.222 83.6482 242.488 84.2841 242.617 84.956C243.003 87.906 239.745 91.0424 234.312 93.594Z" fill="#3F3D56"/>
<path d="M181.922 176.067L175.603 148.932C175.377 147.953 174.877 147.064 174.164 146.378C173.452 145.692 172.559 145.239 171.598 145.075C171.326 145.031 171.052 145.008 170.777 145.007C170.39 145.008 170.004 145.057 169.628 145.151L167.183 145.761C164.034 146.548 161.316 148.593 159.625 151.447C157.934 154.301 157.409 157.732 158.164 160.986L160.995 173.159C161.641 176.025 163.181 178.592 165.377 180.466C165.733 180.763 166.106 181.038 166.493 181.288C167.869 182.179 169.403 182.776 171.006 183.044C172.609 183.312 174.247 183.245 175.824 182.848L178.262 182.238C178.906 182.083 179.512 181.791 180.042 181.382C180.831 180.788 181.43 179.966 181.765 179.019C182.099 178.073 182.154 177.045 181.922 176.067Z" fill="#D2D2D2"/>
<path d="M168.674 171.018C169.776 170.744 170.067 167.939 169.325 164.753C168.583 161.567 167.088 159.206 165.986 159.479C164.885 159.753 164.593 162.558 165.336 165.744C166.078 168.931 167.573 171.292 168.674 171.018Z" fill="#3F3D56"/>
<path d="M160.468 173.561C161.569 173.287 161.861 170.482 161.118 167.296C160.376 164.11 158.881 161.749 157.78 162.023C156.678 162.296 156.387 165.101 157.129 168.288C157.871 171.474 159.366 173.835 160.468 173.561Z" fill="#3F3D56"/>
<path d="M182.324 175.965L176.005 148.83C175.759 147.771 175.215 146.81 174.443 146.068C173.671 145.326 172.704 144.836 171.663 144.659L180.289 181.721C181.14 181.076 181.788 180.186 182.15 179.161C182.513 178.137 182.573 177.025 182.324 175.965Z" fill="white"/>
<path d="M159.592 155.612C159.417 154.857 159.09 154.149 158.631 153.535C157.743 155.911 157.58 158.511 158.164 160.986L160.995 173.159C161.641 176.025 163.181 178.592 165.377 180.466L159.592 155.612Z" fill="#3F3D56"/>
</g>
<defs>
<clipPath id="clip0_212_67">
<rect width="698" height="628" fill="white"/>
</clipPath>
</defs>
</svg>
