<svg width="87" height="124" viewBox="0 0 87 124" fill="none" xmlns="http://www.w3.org/2000/svg">
<path d="M5.29168 24.9484C6.47098 11.469 18.3543 1.49769 31.8338 2.67699L61.7196 5.29166C75.1991 6.47097 85.1704 18.3543 83.9911 31.8337L81.3764 61.7196C80.1971 75.1991 68.3138 85.1703 54.8343 83.991L24.9485 81.3764C11.469 80.1971 1.4977 68.3138 2.677 54.8343L5.29168 24.9484Z" fill="#D9D9D9" stroke="#D9D9D9"/>
<rect x="13.8338" y="13.834" width="59" height="59" rx="19.5" fill="#9BA4B5" stroke="#9BA4B5"/>
<path d="M33.7 34.8C29.4672 34.8 26 38.2672 26 42.5C26 46.7329 29.4672 50.2 33.7 50.2C36.7926 50.2 39.3875 48.3188 41.2031 46.5032C42.2531 45.4532 43.0105 44.4305 43.5 43.725C43.9895 44.4305 44.7469 45.4532 45.7969 46.5032C47.6125 48.3188 50.2074 50.2 53.3 50.2C57.5328 50.2 61 46.7329 61 42.5C61 38.2672 57.5328 34.8 53.3 34.8C50.2074 34.8 47.6125 36.6813 45.7969 38.4969C44.7551 39.5387 43.9895 40.5477 43.5 41.2532C43.0133 40.5477 42.275 39.536 41.2469 38.4969C39.4477 36.6786 36.8555 34.8 33.7 34.8ZM33.7 36.2C36.2867 36.2 38.5973 37.8215 40.2625 39.5032C41.6516 40.9059 42.4062 42.0762 42.6687 42.5C42.3953 42.9293 41.5996 44.0942 40.1969 45.4969C38.5125 47.1813 36.2074 48.8 33.7 48.8C30.2328 48.8 27.4 45.9672 27.4 42.5C27.4 39.0329 30.2328 36.2 33.7 36.2ZM53.3 36.2C56.7672 36.2 59.6 39.0329 59.6 42.5C59.6 45.9672 56.7672 48.8 53.3 48.8C50.7926 48.8 48.4875 47.1813 46.8031 45.4969C45.4004 44.0942 44.6047 42.9293 44.3312 42.5C44.6047 42.0708 45.4004 40.9059 46.8031 39.5032C48.4875 37.8188 50.7926 36.2 53.3 36.2ZM52.6 39.7V41.8H50.5V43.2H52.6V45.3H54V43.2H56.1V41.8H54V39.7H52.6ZM30.9 41.8V43.2H36.5V41.8H30.9Z" fill="#EEEEEE"/>
<path d="M15.8685 115H13.7591L17.5997 104.091H20.0393L23.8852 115H21.7758L18.8621 106.328H18.7769L15.8685 115ZM15.9378 110.723H21.6906V112.31H15.9378V110.723ZM25.2369 115V106.818H27.1065V108.182H27.1918C27.3409 107.71 27.5966 107.346 27.9588 107.09C28.3246 106.831 28.7418 106.701 29.2106 106.701C29.3171 106.701 29.4361 106.706 29.5675 106.717C29.7024 106.724 29.8143 106.737 29.9031 106.754V108.528C29.8214 108.5 29.6918 108.475 29.5142 108.453C29.3402 108.429 29.1715 108.416 29.0082 108.416C28.6566 108.416 28.3406 108.493 28.06 108.645C27.783 108.794 27.5646 109.002 27.4048 109.268C27.245 109.535 27.1651 109.842 27.1651 110.19V115H25.2369ZM33.8834 115.144C33.2407 115.144 32.6654 114.979 32.1576 114.648C31.6498 114.318 31.2485 113.839 30.9537 113.21C30.659 112.582 30.5116 111.818 30.5116 110.92C30.5116 110.011 30.6608 109.244 30.9591 108.619C31.2609 107.99 31.6675 107.516 32.1789 107.196C32.6903 106.873 33.2602 106.712 33.8888 106.712C34.3682 106.712 34.7623 106.793 35.0713 106.957C35.3802 107.116 35.6253 107.31 35.8064 107.537C35.9875 107.761 36.1278 107.972 36.2272 108.171H36.3071V104.091H38.2407V115H36.3444V113.711H36.2272C36.1278 113.91 35.9839 114.121 35.7957 114.345C35.6075 114.565 35.3589 114.753 35.05 114.909C34.741 115.066 34.3522 115.144 33.8834 115.144ZM34.4214 113.562C34.8298 113.562 35.1778 113.452 35.4655 113.232C35.7531 113.008 35.9715 112.697 36.1207 112.299C36.2698 111.902 36.3444 111.438 36.3444 110.909C36.3444 110.38 36.2698 109.92 36.1207 109.529C35.9751 109.139 35.7584 108.835 35.4708 108.619C35.1867 108.402 34.8369 108.294 34.4214 108.294C33.9917 108.294 33.6331 108.406 33.3454 108.629C33.0578 108.853 32.8412 109.162 32.6956 109.556C32.55 109.95 32.4772 110.401 32.4772 110.909C32.4772 111.42 32.55 111.877 32.6956 112.278C32.8447 112.676 33.0631 112.99 33.3508 113.221C33.642 113.448 33.9988 113.562 34.4214 113.562ZM45.5103 111.559V106.818H47.4386V115H45.5689V113.546H45.4837C45.299 114.004 44.9954 114.379 44.5728 114.67C44.1538 114.961 43.6371 115.107 43.0227 115.107C42.4865 115.107 42.0124 114.988 41.6005 114.75C41.1921 114.508 40.8725 114.158 40.6417 113.7C40.4109 113.239 40.2955 112.681 40.2955 112.028V106.818H42.2237V111.729C42.2237 112.248 42.3658 112.66 42.6499 112.965C42.9339 113.271 43.3068 113.423 43.7685 113.423C44.0526 113.423 44.3278 113.354 44.5941 113.216C44.8604 113.077 45.0788 112.871 45.2493 112.598C45.4233 112.321 45.5103 111.974 45.5103 111.559ZM49.4214 115V106.818H51.3497V115H49.4214ZM50.3909 105.657C50.0855 105.657 49.8227 105.556 49.6025 105.353C49.3824 105.147 49.2723 104.901 49.2723 104.613C49.2723 104.322 49.3824 104.075 49.6025 103.873C49.8227 103.667 50.0855 103.564 50.3909 103.564C50.6998 103.564 50.9626 103.667 51.1792 103.873C51.3994 104.075 51.5095 104.322 51.5095 104.613C51.5095 104.901 51.3994 105.147 51.1792 105.353C50.9626 105.556 50.6998 105.657 50.3909 105.657ZM55.2608 110.206V115H53.3326V106.818H55.1756V108.208H55.2715C55.4597 107.75 55.7598 107.386 56.1717 107.116C56.5872 106.847 57.1003 106.712 57.7111 106.712C58.2757 106.712 58.7676 106.832 59.1866 107.074C59.6092 107.315 59.9359 107.665 60.1667 108.123C60.4011 108.581 60.5165 109.137 60.513 109.79V115H58.5847V110.089C58.5847 109.542 58.4426 109.114 58.1586 108.805C57.878 108.496 57.4892 108.342 56.992 108.342C56.6547 108.342 56.3546 108.416 56.0918 108.565C55.8326 108.711 55.6284 108.922 55.4792 109.199C55.3336 109.476 55.2608 109.812 55.2608 110.206ZM66.0421 115.16C65.2431 115.16 64.5506 114.984 63.9647 114.632C63.3787 114.281 62.9242 113.789 62.601 113.157C62.2814 112.525 62.1216 111.786 62.1216 110.941C62.1216 110.096 62.2814 109.355 62.601 108.72C62.9242 108.084 63.3787 107.591 63.9647 107.239C64.5506 106.887 65.2431 106.712 66.0421 106.712C66.8411 106.712 67.5336 106.887 68.1195 107.239C68.7054 107.591 69.1582 108.084 69.4778 108.72C69.801 109.355 69.9625 110.096 69.9625 110.941C69.9625 111.786 69.801 112.525 69.4778 113.157C69.1582 113.789 68.7054 114.281 68.1195 114.632C67.5336 114.984 66.8411 115.16 66.0421 115.16ZM66.0527 113.615C66.486 113.615 66.8482 113.496 67.1394 113.258C67.4306 113.017 67.6472 112.694 67.7892 112.289C67.9348 111.884 68.0076 111.433 68.0076 110.936C68.0076 110.435 67.9348 109.982 67.7892 109.577C67.6472 109.169 67.4306 108.844 67.1394 108.603C66.8482 108.361 66.486 108.24 66.0527 108.24C65.6088 108.24 65.2395 108.361 64.9448 108.603C64.6536 108.844 64.4352 109.169 64.2896 109.577C64.1475 109.982 64.0765 110.435 64.0765 110.936C64.0765 111.433 64.1475 111.884 64.2896 112.289C64.4352 112.694 64.6536 113.017 64.9448 113.258C65.2395 113.496 65.6088 113.615 66.0527 113.615Z" fill="#9BA4B5"/>
</svg>
