<svg width="112" height="123" viewBox="0 0 112 123" fill="none" xmlns="http://www.w3.org/2000/svg">
<path d="M18.2917 24.9484C19.471 11.469 31.3543 1.49769 44.8338 2.67699L74.7196 5.29166C88.1991 6.47097 98.1704 18.3543 96.9911 31.8337L94.3764 61.7196C93.1971 75.1991 81.3138 85.1703 67.8343 83.991L37.9485 81.3764C24.469 80.1971 14.4977 68.3138 15.677 54.8343L18.2917 24.9484Z" fill="#D9D9D9" stroke="#D9D9D9"/>
<rect x="26.8338" y="13.834" width="59" height="59" rx="19.5" fill="#9BA4B5" stroke="#9BA4B5"/>
<path d="M43.7013 50H39.7468L45.7724 32.5455H50.5281L56.5451 50H52.5906L48.2184 36.5341H48.082L43.7013 50ZM43.4542 43.1392H52.7951V46.0199H43.4542V43.1392ZM58.646 50V32.5455H70.4073V35.5881H62.3363V39.7472H69.8022V42.7898H62.3363V46.9574H70.4414V50H58.646Z" fill="#EEEEEE"/>
<path d="M2.93737 114H0.827992L4.66855 103.091H7.10818L10.9541 114H8.84468L5.93097 105.328H5.84575L2.93737 114ZM3.00661 109.723H8.75946V111.31H3.00661V109.723ZM17.5206 110.559V105.818H19.4488V114H17.5791V112.546H17.4939C17.3093 113.004 17.0056 113.379 16.5831 113.67C16.164 113.961 15.6473 114.107 15.033 114.107C14.4968 114.107 14.0227 113.988 13.6108 113.75C13.2024 113.508 12.8828 113.158 12.6519 112.7C12.4211 112.239 12.3057 111.681 12.3057 111.028V105.818H14.234V110.729C14.234 111.248 14.376 111.66 14.6601 111.965C14.9442 112.271 15.3171 112.423 15.7787 112.423C16.0628 112.423 16.338 112.354 16.6044 112.216C16.8707 112.077 17.0891 111.871 17.2595 111.598C17.4335 111.321 17.5206 110.974 17.5206 110.559ZM25.5173 105.818V107.31H20.8138V105.818H25.5173ZM21.975 103.858H23.9033V111.539C23.9033 111.798 23.9423 111.997 24.0205 112.136C24.1021 112.271 24.2087 112.363 24.3401 112.413C24.4715 112.462 24.6171 112.487 24.7769 112.487C24.8976 112.487 25.0077 112.478 25.1071 112.461C25.2101 112.443 25.2882 112.427 25.3415 112.413L25.6664 113.92C25.5634 113.956 25.4161 113.995 25.2243 114.037C25.0361 114.08 24.8053 114.105 24.5318 114.112C24.0489 114.126 23.6139 114.053 23.2268 113.893C22.8397 113.73 22.5325 113.478 22.3053 113.137C22.0815 112.796 21.9715 112.37 21.975 111.859V103.858ZM30.6109 114.16C29.8119 114.16 29.1195 113.984 28.5335 113.632C27.9476 113.281 27.493 112.789 27.1699 112.157C26.8503 111.525 26.6905 110.786 26.6905 109.941C26.6905 109.096 26.8503 108.355 27.1699 107.72C27.493 107.084 27.9476 106.591 28.5335 106.239C29.1195 105.887 29.8119 105.712 30.6109 105.712C31.4099 105.712 32.1024 105.887 32.6883 106.239C33.2743 106.591 33.7271 107.084 34.0467 107.72C34.3698 108.355 34.5314 109.096 34.5314 109.941C34.5314 110.786 34.3698 111.525 34.0467 112.157C33.7271 112.789 33.2743 113.281 32.6883 113.632C32.1024 113.984 31.4099 114.16 30.6109 114.16ZM30.6216 112.615C31.0548 112.615 31.417 112.496 31.7082 112.258C31.9994 112.017 32.216 111.694 32.3581 111.289C32.5037 110.884 32.5765 110.433 32.5765 109.936C32.5765 109.435 32.5037 108.982 32.3581 108.577C32.216 108.169 31.9994 107.844 31.7082 107.603C31.417 107.361 31.0548 107.24 30.6216 107.24C30.1777 107.24 29.8084 107.361 29.5136 107.603C29.2224 107.844 29.004 108.169 28.8584 108.577C28.7164 108.982 28.6454 109.435 28.6454 109.936C28.6454 110.433 28.7164 110.884 28.8584 111.289C29.004 111.694 29.2224 112.017 29.5136 112.258C29.8084 112.496 30.1777 112.615 30.6216 112.615ZM45.591 106.772H43.5988C43.5419 106.445 43.4372 106.156 43.2845 105.903C43.1318 105.648 42.9418 105.431 42.7145 105.254C42.4873 105.076 42.228 104.943 41.9368 104.854C41.6492 104.762 41.3385 104.716 41.0047 104.716C40.4116 104.716 39.8861 104.865 39.428 105.163C38.9699 105.458 38.6112 105.891 38.352 106.463C38.0927 107.031 37.9631 107.725 37.9631 108.545C37.9631 109.38 38.0927 110.083 38.352 110.655C38.6147 111.223 38.9734 111.653 39.428 111.944C39.8861 112.232 40.4098 112.375 40.9993 112.375C41.326 112.375 41.6314 112.333 41.9155 112.248C42.2032 112.159 42.4606 112.029 42.6879 111.859C42.9187 111.688 43.1123 111.479 43.2685 111.23C43.4283 110.982 43.5384 110.697 43.5988 110.378L45.591 110.388C45.5164 110.907 45.3548 111.393 45.1062 111.848C44.8612 112.303 44.5398 112.704 44.1421 113.052C43.7444 113.396 43.2792 113.666 42.7465 113.862C42.2138 114.053 41.6226 114.149 40.9727 114.149C40.0139 114.149 39.1581 113.927 38.4052 113.483C37.6524 113.039 37.0593 112.398 36.6261 111.56C36.1929 110.722 35.9763 109.717 35.9763 108.545C35.9763 107.37 36.1946 106.365 36.6314 105.531C37.0682 104.692 37.663 104.051 38.4159 103.608C39.1687 103.164 40.021 102.942 40.9727 102.942C41.5799 102.942 42.1446 103.027 42.6666 103.197C43.1886 103.368 43.6538 103.618 44.0622 103.949C44.4706 104.275 44.8062 104.676 45.0689 105.152C45.3353 105.625 45.5093 106.164 45.591 106.772ZM48.6698 114H46.5604L50.401 103.091H52.8406L56.6865 114H54.5771L51.6634 105.328H51.5782L48.6698 114ZM48.739 109.723H54.4919V111.31H48.739V109.723ZM61.8201 114H58.1234V103.091H61.8947C62.9778 103.091 63.9082 103.309 64.6859 103.746C65.4671 104.179 66.0673 104.803 66.4863 105.616C66.9053 106.429 67.1148 107.402 67.1148 108.535C67.1148 109.671 66.9035 110.648 66.481 111.464C66.0619 112.281 65.4565 112.908 64.6646 113.345C63.8762 113.782 62.928 114 61.8201 114ZM60.0996 112.29H61.7242C62.4842 112.29 63.118 112.152 63.6258 111.875C64.1337 111.594 64.5154 111.177 64.7711 110.623C65.0268 110.065 65.1546 109.369 65.1546 108.535C65.1546 107.7 65.0268 107.008 64.7711 106.457C64.5154 105.903 64.1372 105.49 63.6365 105.216C63.1393 104.939 62.5214 104.801 61.7828 104.801H60.0996V112.29ZM72.7132 114V103.091H79.8084V104.748H74.6894V107.709H79.4408V109.366H74.6894V112.343H79.851V114H72.7132ZM84.0937 114.165C83.5752 114.165 83.1083 114.073 82.6928 113.888C82.2809 113.7 81.9541 113.423 81.7127 113.057C81.4747 112.691 81.3558 112.24 81.3558 111.704C81.3558 111.243 81.441 110.861 81.6115 110.559C81.7819 110.257 82.0145 110.016 82.3093 109.835C82.604 109.653 82.936 109.517 83.3054 109.424C83.6782 109.328 84.0635 109.259 84.4612 109.217C84.9407 109.167 85.3295 109.123 85.6278 109.083C85.9261 109.041 86.1427 108.977 86.2777 108.892C86.4161 108.803 86.4854 108.666 86.4854 108.482V108.45C86.4854 108.048 86.3664 107.738 86.1285 107.517C85.8906 107.297 85.5479 107.187 85.1005 107.187C84.6282 107.187 84.2535 107.29 83.9765 107.496C83.7031 107.702 83.5184 107.945 83.4225 108.226L81.6221 107.97C81.7642 107.473 81.9985 107.058 82.3252 106.724C82.6519 106.386 83.0514 106.134 83.5237 105.967C83.996 105.797 84.5181 105.712 85.0898 105.712C85.484 105.712 85.8764 105.758 86.267 105.85C86.6576 105.942 87.0145 106.095 87.3377 106.308C87.6608 106.518 87.9201 106.804 88.1154 107.166C88.3142 107.528 88.4137 107.981 88.4137 108.524V114H86.56V112.876H86.496C86.3789 113.103 86.2137 113.316 86.0007 113.515C85.7911 113.711 85.5266 113.869 85.207 113.989C84.8909 114.107 84.5198 114.165 84.0937 114.165ZM84.5944 112.748C84.9815 112.748 85.3171 112.672 85.6012 112.519C85.8853 112.363 86.1036 112.157 86.2563 111.901C86.4126 111.646 86.4907 111.367 86.4907 111.065V110.101C86.4304 110.151 86.3274 110.197 86.1818 110.239C86.0397 110.282 85.8799 110.319 85.7024 110.351C85.5248 110.383 85.349 110.412 85.175 110.436C85.001 110.461 84.8501 110.483 84.7223 110.5C84.4346 110.539 84.1772 110.603 83.9499 110.692C83.7226 110.781 83.5433 110.905 83.4119 111.065C83.2805 111.221 83.2148 111.424 83.2148 111.672C83.2148 112.027 83.3444 112.295 83.6036 112.477C83.8629 112.658 84.1931 112.748 84.5944 112.748ZM93.9108 117.239C93.2184 117.239 92.6235 117.145 92.1264 116.956C91.6292 116.772 91.2297 116.523 90.9279 116.211C90.626 115.898 90.4165 115.552 90.2993 115.172L92.0358 114.751C92.1139 114.911 92.2276 115.069 92.3767 115.225C92.5259 115.385 92.7265 115.516 92.9786 115.619C93.2343 115.726 93.5557 115.779 93.9428 115.779C94.4897 115.779 94.9424 115.646 95.3011 115.38C95.6598 115.117 95.8391 114.684 95.8391 114.08V112.53H95.7432C95.6438 112.729 95.4982 112.933 95.3064 113.142C95.1182 113.352 94.8679 113.528 94.5554 113.67C94.2464 113.812 93.8576 113.883 93.3888 113.883C92.7603 113.883 92.1903 113.735 91.6789 113.441C91.1711 113.142 90.7663 112.699 90.4644 112.109C90.1661 111.516 90.017 110.774 90.017 109.882C90.017 108.984 90.1661 108.226 90.4644 107.608C90.7663 106.987 91.1729 106.516 91.6843 106.196C92.1956 105.873 92.7656 105.712 93.3941 105.712C93.8735 105.712 94.2677 105.793 94.5767 105.957C94.8892 106.116 95.1377 106.31 95.3224 106.537C95.5071 106.761 95.6473 106.972 95.7432 107.171H95.8497V105.818H97.7514V114.133C97.7514 114.833 97.5845 115.412 97.2507 115.87C96.9169 116.328 96.4605 116.67 95.8817 116.898C95.3029 117.125 94.6459 117.239 93.9108 117.239ZM93.9268 112.37C94.3352 112.37 94.6832 112.271 94.9708 112.072C95.2585 111.873 95.4769 111.587 95.626 111.214C95.7752 110.841 95.8497 110.394 95.8497 109.872C95.8497 109.357 95.7752 108.906 95.626 108.519C95.4804 108.132 95.2638 107.832 94.9762 107.619C94.6921 107.402 94.3423 107.294 93.9268 107.294C93.4971 107.294 93.1385 107.406 92.8508 107.629C92.5632 107.853 92.3465 108.16 92.201 108.551C92.0554 108.938 91.9826 109.378 91.9826 109.872C91.9826 110.373 92.0554 110.811 92.201 111.188C92.3501 111.56 92.5685 111.852 92.8561 112.061C93.1473 112.267 93.5042 112.37 93.9268 112.37ZM101.656 103.091V114H99.7276V103.091H101.656ZM107.261 114.16C106.441 114.16 105.732 113.989 105.136 113.648C104.542 113.304 104.086 112.817 103.767 112.189C103.447 111.557 103.287 110.813 103.287 109.957C103.287 109.115 103.447 108.377 103.767 107.741C104.09 107.102 104.541 106.605 105.12 106.25C105.698 105.891 106.378 105.712 107.16 105.712C107.664 105.712 108.14 105.793 108.587 105.957C109.038 106.116 109.436 106.365 109.78 106.702C110.128 107.04 110.402 107.469 110.601 107.991C110.8 108.51 110.899 109.128 110.899 109.845V110.436H104.193V109.137H109.051C109.047 108.767 108.967 108.439 108.811 108.151C108.655 107.86 108.436 107.631 108.156 107.464C107.879 107.297 107.556 107.214 107.186 107.214C106.792 107.214 106.446 107.31 106.148 107.501C105.849 107.69 105.617 107.938 105.45 108.247C105.286 108.553 105.203 108.888 105.199 109.254V110.388C105.199 110.864 105.286 111.273 105.46 111.614C105.634 111.951 105.878 112.21 106.19 112.391C106.503 112.569 106.868 112.658 107.288 112.658C107.568 112.658 107.822 112.619 108.049 112.54C108.277 112.459 108.474 112.34 108.64 112.184C108.807 112.027 108.933 111.834 109.019 111.603L110.819 111.805C110.705 112.281 110.489 112.697 110.169 113.052C109.853 113.403 109.448 113.677 108.955 113.872C108.461 114.064 107.897 114.16 107.261 114.16Z" fill="#9BA4B5"/>
</svg>
