<svg width="87" height="124" viewBox="0 0 87 124" fill="none" xmlns="http://www.w3.org/2000/svg">
<path d="M5.29168 24.9484C6.47098 11.469 18.3543 1.49769 31.8338 2.67699L61.7196 5.29166C75.1991 6.47097 85.1704 18.3543 83.9911 31.8337L81.3764 61.7196C80.1971 75.1991 68.3138 85.1703 54.8343 83.991L24.9485 81.3764C11.469 80.1971 1.4977 68.3138 2.677 54.8343L5.29168 24.9484Z" fill="#D9D9D9" stroke="#D9D9D9"/>
<rect x="13.8338" y="13.834" width="59" height="59" rx="19.5" fill="#9BA4B5" stroke="#9BA4B5"/>
<path d="M50.4712 41.3902C49.6232 40.7208 48.4835 40.3132 47.2396 40.3125C45.9956 40.3132 44.8552 40.7208 44.0072 41.3902C43.1438 42.072 42.5714 43.0323 42.5058 44.1224C42.4395 45.2424 42.9214 46.2844 43.7687 47.0558C44.6328 47.8404 45.8636 48.3333 47.2403 48.3333C48.6162 48.3333 49.8463 47.8404 50.7089 47.0551C51.5562 46.2844 52.0389 45.2424 51.9733 44.1217C51.9077 43.033 51.3346 42.072 50.4712 41.3902Z" fill="#EEEEEE"/>
<path d="M58.4476 43.9088C58.2587 42.5795 57.7979 41.3312 57.0906 40.1937C56.4409 39.1488 55.6068 38.2337 54.6136 37.4629L54.6151 37.4615L54.5881 37.4527C54.5677 37.4345 54.5517 37.4133 54.5305 37.3958L44.1399 29.6944C43.5128 29.192 42.594 29.2919 42.0902 29.9226C41.5871 30.5512 41.6884 31.4692 42.3184 31.9723L46.6847 35.2083H32.6562C31.6536 35.2083 30.8333 36.0287 30.8333 37.0313C30.8333 38.0339 31.6536 38.8542 32.6562 38.8542H37.8727L27.0949 48.0431C26.3307 48.6979 26.2418 49.85 26.8973 50.6134C27.2582 51.0342 27.7686 51.25 28.282 51.25C28.702 51.25 29.1234 51.1056 29.4676 50.811L35.9965 45.2147C35.9805 45.8031 35.9681 46.3362 35.971 46.4988C35.971 49.0625 38.8542 55.625 47.3723 55.625C53.4375 55.625 58.5139 51.9792 58.5139 45.9555C58.5664 45.2745 58.5438 44.5905 58.4476 43.9088ZM53.8203 46.2574C53.5279 47.05 53.0547 47.7916 52.4094 48.4391C51.0896 49.7662 49.2426 50.5172 47.241 50.5201C45.2395 50.5238 43.391 49.7785 42.0705 48.4551C41.4252 47.8098 40.9512 47.069 40.6581 46.2778C40.3723 45.5013 40.2607 44.6773 40.3344 43.8461C40.4058 43.0323 40.6494 42.2572 41.0424 41.5557C41.4281 40.8659 41.9589 40.2432 42.613 39.7153C43.8963 38.6843 45.5289 38.1265 47.2396 38.1243C48.9502 38.1221 50.5821 38.6755 51.8661 39.7022C52.5202 40.2272 53.0503 40.8477 53.4353 41.536C53.8283 42.2368 54.0726 43.0112 54.1448 43.8242C54.2177 44.6569 54.1069 45.4801 53.8203 46.2574Z" fill="#EEEEEE"/>
<path d="M15.5316 115V104.091H19.7077C20.496 104.091 21.1512 104.215 21.6733 104.464C22.1988 104.709 22.5912 105.044 22.8505 105.471C23.1132 105.897 23.2446 106.38 23.2446 106.919C23.2446 107.363 23.1594 107.743 22.9889 108.059C22.8185 108.372 22.5894 108.626 22.3018 108.821C22.0142 109.016 21.6928 109.157 21.3377 109.242V109.348C21.7247 109.37 22.0958 109.489 22.4509 109.705C22.8096 109.918 23.1026 110.22 23.3299 110.611C23.5571 111.001 23.6708 111.474 23.6708 112.028C23.6708 112.592 23.534 113.1 23.2606 113.551C22.9872 113.999 22.5752 114.352 22.0248 114.611C21.4744 114.87 20.7819 115 19.9474 115H15.5316ZM17.5078 113.349H19.6331C20.3505 113.349 20.8671 113.212 21.1832 112.939C21.5028 112.662 21.6626 112.306 21.6626 111.873C21.6626 111.55 21.5827 111.259 21.4229 111C21.2631 110.737 21.0358 110.531 20.7411 110.382C20.4463 110.229 20.0948 110.153 19.6864 110.153H17.5078V113.349ZM17.5078 108.73H19.4627C19.8036 108.73 20.1108 108.668 20.3842 108.544C20.6576 108.416 20.8725 108.237 21.0287 108.006C21.1885 107.772 21.2684 107.495 21.2684 107.175C21.2684 106.752 21.1193 106.404 20.821 106.131C20.5262 105.858 20.0877 105.721 19.5053 105.721H17.5078V108.73ZM27.233 104.091V115H25.3047V104.091H27.233ZM32.838 115.16C32.0177 115.16 31.3093 114.989 30.7127 114.648C30.1196 114.304 29.6633 113.817 29.3437 113.189C29.0241 112.557 28.8643 111.813 28.8643 110.957C28.8643 110.115 29.0241 109.377 29.3437 108.741C29.6669 108.102 30.1179 107.605 30.6967 107.25C31.2755 106.891 31.9556 106.712 32.7368 106.712C33.2411 106.712 33.7169 106.793 34.1644 106.957C34.6154 107.116 35.0131 107.365 35.3576 107.702C35.7056 108.04 35.979 108.469 36.1779 108.991C36.3767 109.51 36.4762 110.128 36.4762 110.845V111.436H29.7698V110.137H34.6278C34.6242 109.767 34.5443 109.439 34.3881 109.151C34.2318 108.86 34.0135 108.631 33.7329 108.464C33.4559 108.297 33.1328 108.214 32.7634 108.214C32.3693 108.214 32.023 108.31 31.7247 108.501C31.4264 108.69 31.1938 108.938 31.0269 109.247C30.8636 109.553 30.7801 109.888 30.7766 110.254V111.388C30.7766 111.864 30.8636 112.273 31.0376 112.614C31.2116 112.951 31.4549 113.21 31.7674 113.391C32.0799 113.569 32.4456 113.658 32.8647 113.658C33.1452 113.658 33.3991 113.619 33.6264 113.54C33.8536 113.459 34.0507 113.34 34.2176 113.184C34.3845 113.027 34.5106 112.834 34.5958 112.603L36.3963 112.805C36.2826 113.281 36.066 113.697 35.7464 114.052C35.4304 114.403 35.0255 114.677 34.5319 114.872C34.0383 115.064 33.4737 115.16 32.838 115.16ZM40.0357 110.206V115H38.1075V106.818H39.9505V108.208H40.0464C40.2346 107.75 40.5347 107.386 40.9466 107.116C41.3621 106.847 41.8752 106.712 42.486 106.712C43.0506 106.712 43.5425 106.832 43.9615 107.074C44.3841 107.315 44.7108 107.665 44.9416 108.123C45.176 108.581 45.2914 109.137 45.2879 109.79V115H43.3596V110.089C43.3596 109.542 43.2176 109.114 42.9335 108.805C42.6529 108.496 42.2641 108.342 41.7669 108.342C41.4296 108.342 41.1295 108.416 40.8667 108.565C40.6075 108.711 40.4033 108.922 40.2541 109.199C40.1085 109.476 40.0357 109.812 40.0357 110.206ZM50.2843 115.144C49.6416 115.144 49.0663 114.979 48.5585 114.648C48.0506 114.318 47.6494 113.839 47.3546 113.21C47.0599 112.582 46.9125 111.818 46.9125 110.92C46.9125 110.011 47.0617 109.244 47.36 108.619C47.6618 107.99 48.0684 107.516 48.5798 107.196C49.0911 106.873 49.6611 106.712 50.2896 106.712C50.769 106.712 51.1632 106.793 51.4722 106.957C51.7811 107.116 52.0261 107.31 52.2073 107.537C52.3884 107.761 52.5286 107.972 52.6281 108.171H52.708V104.091H54.6416V115H52.7453V113.711H52.6281C52.5286 113.91 52.3848 114.121 52.1966 114.345C52.0084 114.565 51.7598 114.753 51.4509 114.909C51.1419 115.066 50.7531 115.144 50.2843 115.144ZM50.8223 113.562C51.2307 113.562 51.5787 113.452 51.8663 113.232C52.154 113.008 52.3724 112.697 52.5215 112.299C52.6707 111.902 52.7453 111.438 52.7453 110.909C52.7453 110.38 52.6707 109.92 52.5215 109.529C52.3759 109.139 52.1593 108.835 51.8717 108.619C51.5876 108.402 51.2378 108.294 50.8223 108.294C50.3926 108.294 50.034 108.406 49.7463 108.629C49.4587 108.853 49.2421 109.162 49.0965 109.556C48.9509 109.95 48.8781 110.401 48.8781 110.909C48.8781 111.42 48.9509 111.877 49.0965 112.278C49.2456 112.676 49.464 112.99 49.7516 113.221C50.0428 113.448 50.3997 113.562 50.8223 113.562ZM60.3185 115.16C59.4982 115.16 58.7897 114.989 58.1931 114.648C57.6001 114.304 57.1438 113.817 56.8242 113.189C56.5046 112.557 56.3448 111.813 56.3448 110.957C56.3448 110.115 56.5046 109.377 56.8242 108.741C57.1473 108.102 57.5983 107.605 58.1772 107.25C58.756 106.891 59.436 106.712 60.2173 106.712C60.7215 106.712 61.1974 106.793 61.6448 106.957C62.0958 107.116 62.4936 107.365 62.838 107.702C63.186 108.04 63.4595 108.469 63.6583 108.991C63.8572 109.51 63.9566 110.128 63.9566 110.845V111.436H57.2503V110.137H62.1083C62.1047 109.767 62.0248 109.439 61.8686 109.151C61.7123 108.86 61.4939 108.631 61.2134 108.464C60.9364 108.297 60.6132 108.214 60.2439 108.214C59.8497 108.214 59.5035 108.31 59.2052 108.501C58.9069 108.69 58.6743 108.938 58.5074 109.247C58.3441 109.553 58.2606 109.888 58.2571 110.254V111.388C58.2571 111.864 58.3441 112.273 58.5181 112.614C58.6921 112.951 58.9353 113.21 59.2478 113.391C59.5603 113.569 59.9261 113.658 60.3451 113.658C60.6257 113.658 60.8796 113.619 61.1068 113.54C61.3341 113.459 61.5312 113.34 61.6981 113.184C61.865 113.027 61.9911 112.834 62.0763 112.603L63.8767 112.805C63.7631 113.281 63.5465 113.697 63.2269 114.052C62.9108 114.403 62.506 114.677 62.0124 114.872C61.5188 115.064 60.9541 115.16 60.3185 115.16ZM65.5879 115V106.818H67.4576V108.182H67.5428C67.692 107.71 67.9477 107.346 68.3099 107.09C68.6756 106.831 69.0929 106.701 69.5617 106.701C69.6682 106.701 69.7872 106.706 69.9185 106.717C70.0535 106.724 70.1653 106.737 70.2541 106.754V108.528C70.1725 108.5 70.0428 108.475 69.8653 108.453C69.6913 108.429 69.5226 108.416 69.3592 108.416C69.0077 108.416 68.6916 108.493 68.4111 108.645C68.1341 108.794 67.9157 109.002 67.7559 109.268C67.5961 109.535 67.5162 109.842 67.5162 110.19V115H65.5879Z" fill="#9BA4B5"/>
</svg>
