<svg width="87" height="125" viewBox="0 0 87 125" fill="none" xmlns="http://www.w3.org/2000/svg">
<path d="M5.29168 24.9484C6.47098 11.469 18.3543 1.49769 31.8338 2.67699L61.7196 5.29166C75.1991 6.47097 85.1704 18.3543 83.9911 31.8337L81.3764 61.7196C80.1971 75.1991 68.3138 85.1703 54.8343 83.991L24.9485 81.3764C11.469 80.1971 1.4977 68.3138 2.677 54.8343L5.29168 24.9484Z" fill="#D9D9D9" stroke="#D9D9D9"/>
<rect x="13.8338" y="13.834" width="59" height="59" rx="19.5" fill="#9BA4B5" stroke="#9BA4B5"/>
<path d="M31.9537 26.88C29.8947 26.88 28.3718 28.776 28.4399 30.8323C28.5055 32.8071 28.4198 35.3665 27.8073 37.4522C27.1939 39.5446 26.1558 40.8673 24.46 41.037V42.9631C26.1558 43.1327 27.1939 44.4554 27.8073 46.5478C28.4198 48.6335 28.5047 51.1929 28.4399 53.1677C28.3718 55.2241 29.8947 57.12 31.9537 57.12H53.0495C55.1085 57.12 56.6314 55.2241 56.5633 53.1677C56.4977 51.1929 56.5826 48.6335 57.1943 46.5478C57.8085 44.4554 58.8442 43.1327 60.54 42.9631V41.037C58.8442 40.8673 57.8085 39.5446 57.1943 37.4522C56.5818 35.3665 56.4977 32.8071 56.5633 30.8323C56.6306 28.776 55.1069 26.88 53.0479 26.88H31.9537ZM31.9537 28.56H53.0479C53.6489 28.56 54.0664 28.8673 54.3099 29.126C54.7199 29.5603 54.9438 30.1616 54.9233 30.7748C54.8585 32.732 54.927 35.5624 55.6232 37.9345C56.2628 40.1152 57.2692 41.3364 58.3122 42C57.27 42.6636 56.2636 43.8857 55.6232 46.0655C54.927 48.4376 54.8585 51.268 54.9233 53.2252C54.9438 53.8384 54.7199 54.4389 54.3099 54.874C54.0664 55.1327 53.6489 55.44 53.0479 55.44H31.9537C31.3526 55.44 30.9368 55.1327 30.6933 54.874C30.2833 54.4397 30.0594 53.8384 30.0799 53.2252C30.1447 51.268 30.0746 48.4376 29.3784 46.0655C28.7388 43.8857 27.7324 42.6636 26.6894 42C27.7324 41.3364 28.7388 40.1143 29.3784 37.9345C30.0746 35.5624 30.1447 32.732 30.0799 30.7748C30.0594 30.1616 30.2833 29.5603 30.6933 29.126C30.9368 28.8673 31.3526 28.56 31.9537 28.56ZM36.6511 34.1316V49.8668H42.9725C44.6149 49.8668 45.9791 49.4568 46.9155 48.679C47.8536 47.9003 48.3489 46.7677 48.3489 45.4027C48.3489 43.3413 46.9182 41.7918 44.787 41.539V41.5144C46.354 41.2372 47.5769 39.733 47.5769 38.0756C47.5769 36.9038 47.1376 35.9118 46.3053 35.2062C45.4763 34.5031 44.3115 34.1316 42.9388 34.1316H36.6511ZM39.1543 36.1906H42.3542C44.1099 36.1906 45.0769 36.9789 45.0769 38.412C45.0761 39.95 43.9278 40.7974 41.8433 40.7974H39.1543V36.1906ZM39.1543 42.7252H42.3318C44.6278 42.7252 45.7928 43.5759 45.7928 45.2517C45.7928 46.9258 44.6441 47.8111 42.4728 47.8111H39.1543V42.7252Z" fill="#EEEEEE"/>
<path d="M8.37043 116V105.091H12.5466C13.3349 105.091 13.9901 105.215 14.5121 105.464C15.0377 105.709 15.4301 106.044 15.6893 106.471C15.9521 106.897 16.0835 107.38 16.0835 107.919C16.0835 108.363 15.9983 108.743 15.8278 109.059C15.6574 109.372 15.4283 109.626 15.1407 109.821C14.853 110.016 14.5316 110.157 14.1765 110.242V110.348C14.5636 110.37 14.9347 110.489 15.2898 110.705C15.6485 110.918 15.9415 111.22 16.1687 111.611C16.396 112.001 16.5096 112.474 16.5096 113.028C16.5096 113.592 16.3729 114.1 16.0995 114.551C15.826 114.999 15.4141 115.352 14.8637 115.611C14.3133 115.87 13.6208 116 12.7863 116H8.37043ZM10.3466 114.349H12.472C13.1893 114.349 13.706 114.212 14.0221 113.939C14.3417 113.662 14.5015 113.306 14.5015 112.873C14.5015 112.55 14.4216 112.259 14.2618 112C14.102 111.737 13.8747 111.531 13.5799 111.382C13.2852 111.229 12.9336 111.153 12.5253 111.153H10.3466V114.349ZM10.3466 109.73H12.3015C12.6424 109.73 12.9496 109.668 13.2231 109.544C13.4965 109.416 13.7113 109.237 13.8676 109.006C14.0274 108.772 14.1073 108.495 14.1073 108.175C14.1073 107.752 13.9581 107.404 13.6598 107.131C13.3651 106.858 12.9265 106.721 12.3441 106.721H10.3466V109.73ZM21.7125 116.16C20.9135 116.16 20.221 115.984 19.6351 115.632C19.0491 115.281 18.5946 114.789 18.2714 114.157C17.9518 113.525 17.792 112.786 17.792 111.941C17.792 111.096 17.9518 110.355 18.2714 109.72C18.5946 109.084 19.0491 108.591 19.6351 108.239C20.221 107.887 20.9135 107.712 21.7125 107.712C22.5115 107.712 23.204 107.887 23.7899 108.239C24.3758 108.591 24.8286 109.084 25.1482 109.72C25.4714 110.355 25.6329 111.096 25.6329 111.941C25.6329 112.786 25.4714 113.525 25.1482 114.157C24.8286 114.789 24.3758 115.281 23.7899 115.632C23.204 115.984 22.5115 116.16 21.7125 116.16ZM21.7231 114.615C22.1564 114.615 22.5186 114.496 22.8098 114.258C23.101 114.017 23.3176 113.694 23.4597 113.289C23.6052 112.884 23.678 112.433 23.678 111.936C23.678 111.435 23.6052 110.982 23.4597 110.577C23.3176 110.169 23.101 109.844 22.8098 109.603C22.5186 109.361 22.1564 109.24 21.7231 109.24C21.2793 109.24 20.9099 109.361 20.6152 109.603C20.324 109.844 20.1056 110.169 19.96 110.577C19.818 110.982 19.7469 111.435 19.7469 111.936C19.7469 112.433 19.818 112.884 19.96 113.289C20.1056 113.694 20.324 114.017 20.6152 114.258C20.9099 114.496 21.2793 114.615 21.7231 114.615ZM30.8385 116.16C30.0395 116.16 29.347 115.984 28.7611 115.632C28.1751 115.281 27.7206 114.789 27.3974 114.157C27.0778 113.525 26.918 112.786 26.918 111.941C26.918 111.096 27.0778 110.355 27.3974 109.72C27.7206 109.084 28.1751 108.591 28.7611 108.239C29.347 107.887 30.0395 107.712 30.8385 107.712C31.6375 107.712 32.3299 107.887 32.9159 108.239C33.5018 108.591 33.9546 109.084 34.2742 109.72C34.5973 110.355 34.7589 111.096 34.7589 111.941C34.7589 112.786 34.5973 113.525 34.2742 114.157C33.9546 114.789 33.5018 115.281 32.9159 115.632C32.3299 115.984 31.6375 116.16 30.8385 116.16ZM30.8491 114.615C31.2824 114.615 31.6446 114.496 31.9358 114.258C32.227 114.017 32.4436 113.694 32.5856 113.289C32.7312 112.884 32.804 112.433 32.804 111.936C32.804 111.435 32.7312 110.982 32.5856 110.577C32.4436 110.169 32.227 109.844 31.9358 109.603C31.6446 109.361 31.2824 109.24 30.8491 109.24C30.4052 109.24 30.0359 109.361 29.7412 109.603C29.45 109.844 29.2316 110.169 29.086 110.577C28.9439 110.982 28.8729 111.435 28.8729 111.936C28.8729 112.433 28.9439 112.884 29.086 113.289C29.2316 113.694 29.45 114.017 29.7412 114.258C30.0359 114.496 30.4052 114.615 30.8491 114.615ZM40.4811 107.818V109.31H35.7777V107.818H40.4811ZM36.9389 105.858H38.8671V113.539C38.8671 113.798 38.9062 113.997 38.9843 114.136C39.066 114.271 39.1725 114.363 39.3039 114.413C39.4353 114.462 39.5809 114.487 39.7407 114.487C39.8615 114.487 39.9715 114.478 40.071 114.461C40.174 114.443 40.2521 114.427 40.3054 114.413L40.6303 115.92C40.5273 115.956 40.3799 115.995 40.1882 116.037C40 116.08 39.7691 116.105 39.4957 116.112C39.0127 116.126 38.5777 116.053 38.1907 115.893C37.8036 115.73 37.4964 115.478 37.2691 115.137C37.0454 114.796 36.9353 114.37 36.9389 113.859V105.858ZM48.4432 109.981L46.6854 110.173C46.6357 109.995 46.5487 109.828 46.4244 109.672C46.3037 109.516 46.1403 109.39 45.9343 109.294C45.7284 109.198 45.4763 109.15 45.178 109.15C44.7767 109.15 44.4393 109.237 44.1659 109.411C43.896 109.585 43.7628 109.81 43.7664 110.087C43.7628 110.325 43.8498 110.519 44.0274 110.668C44.2085 110.817 44.5068 110.94 44.9223 111.036L46.3179 111.334C47.092 111.501 47.6673 111.765 48.0437 112.127C48.4237 112.49 48.6155 112.964 48.619 113.55C48.6155 114.065 48.4645 114.519 48.1662 114.913C47.8715 115.304 47.4613 115.609 46.9358 115.83C46.4102 116.05 45.8065 116.16 45.1247 116.16C44.1233 116.16 43.3172 115.95 42.7064 115.531C42.0956 115.109 41.7316 114.521 41.6144 113.768L43.4947 113.587C43.5799 113.956 43.7611 114.235 44.038 114.423C44.315 114.612 44.6755 114.706 45.1194 114.706C45.5775 114.706 45.945 114.612 46.222 114.423C46.5025 114.235 46.6428 114.002 46.6428 113.725C46.6428 113.491 46.5522 113.298 46.3711 113.145C46.1936 112.992 45.9166 112.875 45.5402 112.793L44.1446 112.5C43.3598 112.337 42.7792 112.062 42.4027 111.675C42.0263 111.284 41.8399 110.79 41.8434 110.194C41.8399 109.69 41.9766 109.253 42.2536 108.884C42.5341 108.511 42.923 108.223 43.4201 108.021C43.9209 107.815 44.4979 107.712 45.1513 107.712C46.1101 107.712 46.8647 107.916 47.4152 108.324C47.9691 108.733 48.3118 109.285 48.4432 109.981ZM54.2946 107.818V109.31H49.5911V107.818H54.2946ZM50.7524 105.858H52.6806V113.539C52.6806 113.798 52.7197 113.997 52.7978 114.136C52.8795 114.271 52.986 114.363 53.1174 114.413C53.2488 114.462 53.3944 114.487 53.5542 114.487C53.6749 114.487 53.785 114.478 53.8845 114.461C53.9874 114.443 54.0656 114.427 54.1188 114.413L54.4438 115.92C54.3408 115.956 54.1934 115.995 54.0016 116.037C53.8134 116.08 53.5826 116.105 53.3092 116.112C52.8262 116.126 52.3912 116.053 52.0041 115.893C51.6171 115.73 51.3099 115.478 51.0826 115.137C50.8589 114.796 50.7488 114.37 50.7524 113.859V105.858ZM55.9073 116V107.818H57.7769V109.182H57.8622C58.0113 108.71 58.267 108.346 58.6292 108.09C58.995 107.831 59.4122 107.701 59.881 107.701C59.9875 107.701 60.1065 107.706 60.2379 107.717C60.3728 107.724 60.4847 107.737 60.5735 107.754V109.528C60.4918 109.5 60.3622 109.475 60.1846 109.453C60.0106 109.429 59.8419 109.416 59.6786 109.416C59.327 109.416 59.011 109.493 58.7304 109.645C58.4534 109.794 58.235 110.002 58.0752 110.268C57.9154 110.535 57.8355 110.842 57.8355 111.19V116H55.9073ZM64.0625 116.165C63.544 116.165 63.077 116.073 62.6615 115.888C62.2496 115.7 61.9229 115.423 61.6814 115.057C61.4435 114.691 61.3245 114.24 61.3245 113.704C61.3245 113.243 61.4098 112.861 61.5802 112.559C61.7507 112.257 61.9833 112.016 62.278 111.835C62.5728 111.653 62.9048 111.517 63.2741 111.424C63.647 111.328 64.0323 111.259 64.43 111.217C64.9094 111.167 65.2983 111.123 65.5965 111.083C65.8948 111.041 66.1115 110.977 66.2464 110.892C66.3849 110.803 66.4541 110.666 66.4541 110.482V110.45C66.4541 110.048 66.3352 109.738 66.0973 109.517C65.8593 109.297 65.5166 109.187 65.0692 109.187C64.5969 109.187 64.2223 109.29 63.9453 109.496C63.6718 109.702 63.4872 109.945 63.3913 110.226L61.5909 109.97C61.7329 109.473 61.9673 109.058 62.294 108.724C62.6207 108.386 63.0202 108.134 63.4925 107.967C63.9648 107.797 64.4868 107.712 65.0585 107.712C65.4527 107.712 65.8451 107.758 66.2358 107.85C66.6264 107.942 66.9833 108.095 67.3064 108.308C67.6296 108.518 67.8888 108.804 68.0841 109.166C68.283 109.528 68.3824 109.981 68.3824 110.524V116H66.5287V114.876H66.4648C66.3476 115.103 66.1825 115.316 65.9694 115.515C65.7599 115.711 65.4953 115.869 65.1757 115.989C64.8597 116.107 64.4886 116.165 64.0625 116.165ZM64.5632 114.748C64.9502 114.748 65.2858 114.672 65.5699 114.519C65.854 114.363 66.0724 114.157 66.2251 113.901C66.3813 113.646 66.4595 113.367 66.4595 113.065V112.101C66.3991 112.151 66.2961 112.197 66.1505 112.239C66.0085 112.282 65.8487 112.319 65.6711 112.351C65.4936 112.383 65.3178 112.412 65.1438 112.436C64.9698 112.461 64.8188 112.483 64.691 112.5C64.4034 112.539 64.1459 112.603 63.9186 112.692C63.6914 112.781 63.512 112.905 63.3806 113.065C63.2492 113.221 63.1835 113.424 63.1835 113.672C63.1835 114.027 63.3132 114.295 63.5724 114.477C63.8316 114.658 64.1619 114.748 64.5632 114.748ZM70.3213 119.068V107.818H72.2176V109.171H72.3295C72.4289 108.972 72.5692 108.761 72.7503 108.537C72.9314 108.31 73.1764 108.116 73.4854 107.957C73.7943 107.793 74.1885 107.712 74.6679 107.712C75.3 107.712 75.87 107.873 76.3778 108.196C76.8892 108.516 77.294 108.99 77.5923 109.619C77.8941 110.244 78.0451 111.011 78.0451 111.92C78.0451 112.818 77.8977 113.582 77.6029 114.21C77.3082 114.839 76.9069 115.318 76.3991 115.648C75.8913 115.979 75.316 116.144 74.6733 116.144C74.2045 116.144 73.8157 116.066 73.5067 115.909C73.1978 115.753 72.9492 115.565 72.761 115.345C72.5763 115.121 72.4325 114.91 72.3295 114.711H72.2496V119.068H70.3213ZM72.2123 111.909C72.2123 112.438 72.2869 112.902 72.436 113.299C72.5887 113.697 72.8071 114.008 73.0912 114.232C73.3789 114.452 73.7269 114.562 74.1353 114.562C74.5614 114.562 74.9183 114.448 75.2059 114.221C75.4936 113.99 75.7102 113.676 75.8558 113.278C76.0049 112.877 76.0795 112.42 76.0795 111.909C76.0795 111.401 76.0067 110.95 75.8611 110.556C75.7155 110.162 75.4989 109.853 75.2112 109.629C74.9236 109.406 74.5649 109.294 74.1353 109.294C73.7233 109.294 73.3735 109.402 73.0859 109.619C72.7983 109.835 72.5799 110.139 72.4307 110.529C72.2851 110.92 72.2123 111.38 72.2123 111.909Z" fill="#9BA4B5"/>
</svg>
