<svg width="87" height="123" viewBox="0 0 87 123" fill="none" xmlns="http://www.w3.org/2000/svg">
<path d="M31.8337 2.67699L61.7196 5.29166C75.1991 6.47097 85.1703 18.3543 83.991 31.8337L81.3764 61.7196C80.1971 75.1991 68.3138 85.1703 54.8343 83.991L24.9484 81.3764C11.469 80.1971 1.49769 68.3138 2.67699 54.8343L5.29166 24.9484C6.47096 11.469 18.3543 1.49769 31.8337 2.67699Z" fill="#D9D9D9" stroke="#D9D9D9"/>
<rect x="13.8338" y="13.834" width="59" height="59" rx="19.5" fill="#9BA4B5" stroke="#9BA4B5"/>
<path d="M27.6051 106.772H25.6129C25.5561 106.445 25.4513 106.156 25.2986 105.903C25.1459 105.648 24.956 105.431 24.7287 105.254C24.5014 105.076 24.2422 104.943 23.951 104.854C23.6633 104.762 23.3526 104.716 23.0188 104.716C22.4258 104.716 21.9002 104.865 21.4421 105.163C20.984 105.458 20.6253 105.891 20.3661 106.463C20.1069 107.031 19.9773 107.725 19.9773 108.545C19.9773 109.38 20.1069 110.083 20.3661 110.655C20.6289 111.223 20.9876 111.653 21.4421 111.944C21.9002 112.232 22.424 112.375 23.0135 112.375C23.3402 112.375 23.6456 112.333 23.9297 112.248C24.2173 112.159 24.4748 112.029 24.702 111.859C24.9329 111.688 25.1264 111.479 25.2827 111.23C25.4425 110.982 25.5525 110.697 25.6129 110.378L27.6051 110.388C27.5305 110.907 27.3689 111.393 27.1204 111.848C26.8753 112.303 26.554 112.704 26.1562 113.052C25.7585 113.396 25.2933 113.666 24.7606 113.862C24.228 114.053 23.6367 114.149 22.9868 114.149C22.028 114.149 21.1722 113.927 20.4194 113.483C19.6665 113.039 19.0735 112.398 18.6403 111.56C18.207 110.722 17.9904 109.717 17.9904 108.545C17.9904 107.37 18.2088 106.365 18.6456 105.531C19.0824 104.692 19.6772 104.051 20.43 103.608C21.1829 103.164 22.0351 102.942 22.9868 102.942C23.5941 102.942 24.1587 103.027 24.6807 103.197C25.2028 103.368 25.668 103.618 26.0763 103.949C26.4847 104.275 26.8203 104.676 27.0831 105.152C27.3494 105.625 27.5234 106.164 27.6051 106.772ZM31.684 114.165C31.1656 114.165 30.6986 114.073 30.2831 113.888C29.8712 113.7 29.5445 113.423 29.303 113.057C29.0651 112.691 28.9461 112.24 28.9461 111.704C28.9461 111.243 29.0313 110.861 29.2018 110.559C29.3722 110.257 29.6048 110.016 29.8996 109.835C30.1943 109.653 30.5264 109.517 30.8957 109.424C31.2685 109.328 31.6538 109.259 32.0516 109.217C32.531 109.167 32.9198 109.123 33.2181 109.083C33.5164 109.041 33.733 108.977 33.868 108.892C34.0065 108.803 34.0757 108.666 34.0757 108.482V108.45C34.0757 108.048 33.9567 107.738 33.7188 107.517C33.4809 107.297 33.1382 107.187 32.6908 107.187C32.2185 107.187 31.8438 107.29 31.5668 107.496C31.2934 107.702 31.1087 107.945 31.0129 108.226L29.2124 107.97C29.3545 107.473 29.5889 107.058 29.9156 106.724C30.2423 106.386 30.6418 106.134 31.1141 105.967C31.5864 105.797 32.1084 105.712 32.6801 105.712C33.0743 105.712 33.4667 105.758 33.8573 105.85C34.2479 105.942 34.6048 106.095 34.928 106.308C35.2511 106.518 35.5104 106.804 35.7057 107.166C35.9045 107.528 36.004 107.981 36.004 108.524V114H34.1503V112.876H34.0864C33.9692 113.103 33.8041 113.316 33.591 113.515C33.3815 113.711 33.1169 113.869 32.7973 113.989C32.4813 114.107 32.1102 114.165 31.684 114.165ZM32.1847 112.748C32.5718 112.748 32.9074 112.672 33.1915 112.519C33.4756 112.363 33.694 112.157 33.8467 111.901C34.0029 111.646 34.081 111.367 34.081 111.065V110.101C34.0207 110.151 33.9177 110.197 33.7721 110.239C33.63 110.282 33.4702 110.319 33.2927 110.351C33.1151 110.383 32.9393 110.412 32.7653 110.436C32.5913 110.461 32.4404 110.483 32.3126 110.5C32.0249 110.539 31.7675 110.603 31.5402 110.692C31.3129 110.781 31.1336 110.905 31.0022 111.065C30.8708 111.221 30.8051 111.424 30.8051 111.672C30.8051 112.027 30.9347 112.295 31.194 112.477C31.4532 112.658 31.7835 112.748 32.1847 112.748ZM37.9429 117.068V105.818H39.8392V107.171H39.9511C40.0505 106.972 40.1908 106.761 40.3719 106.537C40.553 106.31 40.798 106.116 41.107 105.957C41.4159 105.793 41.8101 105.712 42.2895 105.712C42.9216 105.712 43.4916 105.873 43.9994 106.196C44.5107 106.516 44.9156 106.99 45.2139 107.619C45.5157 108.244 45.6666 109.011 45.6666 109.92C45.6666 110.818 45.5193 111.582 45.2245 112.21C44.9298 112.839 44.5285 113.318 44.0207 113.648C43.5129 113.979 42.9376 114.144 42.2948 114.144C41.8261 114.144 41.4372 114.066 41.1283 113.909C40.8193 113.753 40.5707 113.565 40.3825 113.345C40.1979 113.121 40.0541 112.91 39.9511 112.711H39.8712V117.068H37.9429ZM39.8339 109.909C39.8339 110.438 39.9085 110.902 40.0576 111.299C40.2103 111.697 40.4287 112.008 40.7128 112.232C41.0004 112.452 41.3484 112.562 41.7568 112.562C42.183 112.562 42.5398 112.448 42.8275 112.221C43.1151 111.99 43.3317 111.676 43.4773 111.278C43.6265 110.877 43.7011 110.42 43.7011 109.909C43.7011 109.401 43.6283 108.95 43.4827 108.556C43.3371 108.162 43.1205 107.853 42.8328 107.629C42.5452 107.406 42.1865 107.294 41.7568 107.294C41.3449 107.294 40.9951 107.402 40.7075 107.619C40.4198 107.835 40.2014 108.139 40.0523 108.529C39.9067 108.92 39.8339 109.38 39.8339 109.909ZM50.8868 114.16C50.07 114.16 49.3687 113.98 48.7827 113.622C48.2004 113.263 47.7511 112.768 47.4351 112.136C47.1226 111.5 46.9663 110.768 46.9663 109.941C46.9663 109.11 47.1261 108.377 47.4457 107.741C47.7653 107.102 48.2163 106.605 48.7987 106.25C49.3847 105.891 50.0771 105.712 50.8761 105.712C51.5402 105.712 52.1279 105.834 52.6393 106.079C53.1542 106.321 53.5643 106.663 53.8697 107.107C54.1751 107.548 54.3492 108.062 54.3918 108.652H52.5487C52.4742 108.258 52.2966 107.929 52.0161 107.667C51.7391 107.4 51.368 107.267 50.9028 107.267C50.5086 107.267 50.1624 107.374 49.8641 107.587C49.5658 107.796 49.3332 108.098 49.1663 108.492C49.0029 108.886 48.9212 109.359 48.9212 109.909C48.9212 110.467 49.0029 110.946 49.1663 111.347C49.3296 111.745 49.5587 112.052 49.8534 112.269C50.1517 112.482 50.5015 112.588 50.9028 112.588C51.1869 112.588 51.4408 112.535 51.6645 112.429C51.8918 112.319 52.0817 112.161 52.2344 111.955C52.3871 111.749 52.4919 111.498 52.5487 111.203H54.3918C54.3456 111.782 54.1751 112.295 53.8804 112.743C53.5857 113.187 53.1844 113.535 52.6766 113.787C52.1688 114.036 51.5722 114.16 50.8868 114.16ZM61.19 110.559V105.818H63.1182V114H61.2486V112.546H61.1633C60.9787 113.004 60.6751 113.379 60.2525 113.67C59.8334 113.961 59.3167 114.107 58.7024 114.107C58.1662 114.107 57.6921 113.988 57.2802 113.75C56.8718 113.508 56.5522 113.158 56.3214 112.7C56.0905 112.239 55.9751 111.681 55.9751 111.028V105.818H57.9034V110.729C57.9034 111.248 58.0454 111.66 58.3295 111.965C58.6136 112.271 58.9865 112.423 59.4481 112.423C59.7322 112.423 60.0074 112.354 60.2738 112.216C60.5401 112.077 60.7585 111.871 60.929 111.598C61.103 111.321 61.19 110.974 61.19 110.559ZM69.1867 105.818V107.31H64.4832V105.818H69.1867ZM65.6444 103.858H67.5727V111.539C67.5727 111.798 67.6118 111.997 67.6899 112.136C67.7716 112.271 67.8781 112.363 68.0095 112.413C68.1409 112.462 68.2865 112.487 68.4463 112.487C68.567 112.487 68.6771 112.478 68.7765 112.461C68.8795 112.443 68.9576 112.427 69.0109 112.413L69.3358 113.92C69.2329 113.956 69.0855 113.995 68.8937 114.037C68.7055 114.08 68.4747 114.105 68.2012 114.112C67.7183 114.126 67.2833 114.053 66.8962 113.893C66.5091 113.73 66.202 113.478 65.9747 113.137C65.751 112.796 65.6409 112.37 65.6444 111.859V103.858Z" fill="#9BA4B5"/>
<path d="M31.7288 31.5292C31.8051 31.5291 31.8813 31.5289 31.9576 31.5287C32.1661 31.5282 32.3745 31.5285 32.583 31.5288C32.8083 31.529 33.0336 31.5287 33.2588 31.5284C33.6743 31.5279 34.0897 31.5279 34.5051 31.5282C34.889 31.5285 35.2729 31.5286 35.6568 31.5285C35.6823 31.5284 35.7078 31.5284 35.7341 31.5284C35.8376 31.5284 35.9412 31.5284 36.0447 31.5283C37.0153 31.528 37.9859 31.5283 38.9565 31.5289C39.8178 31.5294 40.6792 31.5293 41.5406 31.5288C42.5094 31.5282 43.4781 31.528 44.4469 31.5284C44.5502 31.5284 44.6536 31.5284 44.757 31.5285C44.7952 31.5285 44.7951 31.5285 44.8341 31.5285C45.2176 31.5286 45.6011 31.5285 45.9846 31.5282C46.4209 31.5279 46.8572 31.528 47.2936 31.5285C47.5161 31.5288 47.7385 31.5289 47.961 31.5286C48.1649 31.5283 48.3689 31.5284 48.5728 31.529C48.6463 31.5291 48.7198 31.5291 48.7933 31.5288C49.3356 31.527 49.8658 31.5468 50.3641 31.7863C50.391 31.7988 50.4179 31.8112 50.4457 31.8241C50.8981 32.0389 50.8981 32.0389 50.9897 32.222C51.025 32.2338 51.0604 32.2456 51.0969 32.2578C51.1215 32.305 51.1452 32.3528 51.1684 32.4008C51.2268 32.4616 51.2268 32.4616 51.2935 32.5147C51.3153 32.5329 51.337 32.5511 51.3594 32.5699C51.4181 32.6178 51.4181 32.6178 51.4901 32.651C51.4948 32.6711 51.4994 32.6912 51.5042 32.7119C51.5338 32.824 51.5934 32.9031 51.6577 32.9995C51.8954 33.3717 52.0439 33.7852 52.0978 34.2239C52.1214 34.2239 52.145 34.2239 52.1693 34.2239C52.1693 34.3301 52.1693 34.4362 52.1693 34.5456C52.2755 34.5279 52.2755 34.5279 52.3838 34.5099C52.3956 34.4745 52.4074 34.4391 52.4196 34.4026C52.5061 34.349 52.5906 34.3013 52.681 34.2552C52.7052 34.2423 52.7294 34.2295 52.7544 34.2162C52.9381 34.1203 52.9381 34.1203 53.0287 34.1016C53.1145 34.0763 53.1441 34.0373 53.206 33.9737C53.2656 33.9385 53.3265 33.9056 53.3881 33.8741C53.4246 33.8553 53.461 33.8365 53.4986 33.8172C53.5377 33.7973 53.5768 33.7774 53.6171 33.7569C53.6991 33.7148 53.7812 33.6726 53.8632 33.6304C53.9036 33.6097 53.9441 33.5889 53.9858 33.5676C54.1361 33.4902 54.2855 33.4115 54.4349 33.3324C54.7097 33.1873 54.9855 33.0441 55.2615 32.9012C56.0595 32.4886 56.0595 32.4886 56.8475 32.0575C56.9204 32.0165 56.9935 31.9762 57.0668 31.936C57.1049 31.9146 57.1049 31.9146 57.1438 31.8927C57.1688 31.8793 57.1937 31.8658 57.2194 31.852C57.2416 31.8398 57.2638 31.8276 57.2867 31.815C57.3692 31.7876 57.4136 31.8053 57.4958 31.8288C57.4966 32.4142 57.4972 32.9996 57.4976 33.5851C57.4978 33.8569 57.4981 34.1287 57.4985 34.4005C57.4988 34.6374 57.499 34.8743 57.4991 35.1111C57.4992 35.2366 57.4993 35.3621 57.4995 35.4875C57.4998 35.6275 57.4998 35.7674 57.4998 35.9074C57.5 35.9491 57.5001 35.9908 57.5002 36.0338C57.5002 36.0719 57.5001 36.1099 57.5001 36.1491C57.5001 36.1822 57.5001 36.2154 57.5002 36.2495C57.4958 36.333 57.4958 36.333 57.46 36.4403C57.3869 36.4895 57.3159 36.5324 57.2388 36.5743C57.2162 36.5869 57.1936 36.5995 57.1703 36.6125C56.9839 36.7155 56.7935 36.8098 56.6025 36.9037C56.4248 36.9926 56.2511 37.0887 56.077 37.1843C55.8164 37.3272 55.5554 37.4694 55.2928 37.6088C55.2647 37.6239 55.2365 37.6389 55.2075 37.6545C55.1814 37.6683 55.1552 37.6821 55.1283 37.6963C55.1056 37.7084 55.0829 37.7204 55.0595 37.7329C54.9934 37.7629 54.9934 37.7629 54.9167 37.7819C54.8321 37.8033 54.8035 37.8439 54.7432 37.9059C54.6855 37.9393 54.6265 37.9704 54.5667 37.9998C54.5361 38.015 54.5056 38.0302 54.4741 38.0458C54.3857 38.0847 54.3857 38.0847 54.3096 38.1011C54.2261 38.1252 54.1948 38.1654 54.1355 38.2277C54.0675 38.2682 54.0675 38.2682 53.9947 38.3036C53.9708 38.3155 53.9469 38.3274 53.9222 38.3397C53.8495 38.3707 53.8495 38.3707 53.7742 38.3882C53.6976 38.4037 53.6976 38.4037 53.6216 38.4779C53.5158 38.5585 53.444 38.573 53.3133 38.5851C53.3133 38.6087 53.3133 38.6323 53.3133 38.6566C53.1986 38.72 53.0839 38.7833 52.9692 38.8465C52.9369 38.8644 52.9046 38.8823 52.8713 38.9007C52.4225 39.148 52.4225 39.148 52.3079 39.175C52.2208 39.1982 52.1699 39.246 52.0978 39.3001C52.0406 39.3338 51.9827 39.3664 51.9244 39.3981C51.8743 39.4254 51.8743 39.4254 51.8232 39.4533C51.7885 39.472 51.7538 39.4908 51.718 39.5101C51.6841 39.5286 51.6503 39.5471 51.6154 39.5661C51.0105 39.8946 51.0105 39.8946 50.8109 39.9436C50.7623 39.9781 50.7147 40.0139 50.6679 40.0508C50.6149 40.0831 50.5613 40.1144 50.5071 40.1446C50.4801 40.1598 50.4532 40.1751 50.4255 40.1907C50.3508 40.2273 50.2835 40.2458 50.2032 40.2653C50.1811 40.283 50.159 40.3007 50.1362 40.3189C50.041 40.3861 49.9601 40.3953 49.8457 40.4083C49.8457 40.4319 49.8457 40.4555 49.8457 40.4798C49.3134 40.7674 48.7795 41.0517 48.2415 41.3288C48.2058 41.3472 48.2058 41.3472 48.1694 41.366C48.0252 41.4402 47.881 41.5143 47.7366 41.588C47.6787 41.6176 47.6787 41.6176 47.6197 41.6479C47.5221 41.6952 47.5221 41.6952 47.4484 41.7108C47.3722 41.728 47.3722 41.728 47.3006 41.7953C47.1921 41.8805 47.0788 41.9448 46.9568 42.008C46.9223 42.0261 46.9223 42.0261 46.887 42.0446C46.8381 42.0701 46.7891 42.0955 46.7401 42.1208C46.6889 42.1472 46.6379 42.1737 46.5869 42.2003C46.5108 42.2401 46.4345 42.2794 46.3581 42.3186C46.3347 42.3308 46.3113 42.343 46.2872 42.3556C46.1508 42.4246 46.0297 42.465 45.8777 42.4817C45.8659 42.517 45.8541 42.5524 45.842 42.5889C45.7594 42.6007 45.6768 42.6125 45.5917 42.6246C45.5917 42.6482 45.5917 42.6718 45.5917 42.6961C45.5159 42.738 45.4399 42.7797 45.3638 42.8213C45.3315 42.8392 45.3315 42.8392 45.2985 42.8574C45.1351 42.9464 45.1351 42.9464 45.0555 42.9464C45.0555 42.97 45.0555 42.9936 45.0555 43.0179C45.0855 43.0266 45.1154 43.0354 45.1463 43.0444C45.2859 43.0951 45.4062 43.1615 45.5336 43.2368C45.5565 43.2501 45.5794 43.2635 45.603 43.2772C45.6589 43.3097 45.7147 43.3425 45.7705 43.3754C45.7705 43.3989 45.7705 43.4225 45.7705 43.4469C45.8021 43.4509 45.8337 43.455 45.8663 43.4593C45.9826 43.4821 46.0639 43.5147 46.1682 43.5699C46.202 43.5877 46.2359 43.6054 46.2708 43.6238C46.3062 43.6428 46.3417 43.6618 46.3782 43.6814C46.4148 43.7008 46.4514 43.7202 46.4891 43.7402C46.7293 43.8679 46.9663 44.0003 47.2014 44.1371C47.3528 44.2233 47.508 44.301 47.6651 44.3763C47.6651 44.3999 47.6651 44.4235 47.6651 44.4478C47.6959 44.4515 47.7266 44.4551 47.7584 44.4589C47.8895 44.4856 47.9852 44.5295 48.1034 44.5918C48.1243 44.6026 48.1451 44.6135 48.1666 44.6247C48.2342 44.66 48.3015 44.6958 48.3689 44.7315C48.4161 44.7563 48.4633 44.781 48.5105 44.8058C48.6459 44.8768 48.7811 44.9482 48.9163 45.0198C48.9772 45.0518 49.0381 45.0839 49.0991 45.116C49.1773 45.1571 49.2554 45.1983 49.3335 45.2395C49.6167 45.3891 49.9015 45.5357 50.1861 45.6826C50.5385 45.8645 50.89 46.0483 51.2399 46.2352C51.2399 46.2588 51.2399 46.2824 51.2399 46.3067C51.266 46.305 51.292 46.3033 51.3189 46.3016C51.431 46.3073 51.4872 46.3329 51.5842 46.388C51.6157 46.4055 51.6472 46.423 51.6796 46.4411C51.7129 46.4602 51.7462 46.4792 51.7806 46.4988C51.8507 46.5381 51.9209 46.5773 51.9912 46.6164C52.0443 46.6462 52.0443 46.6462 52.0986 46.6766C52.2623 46.7674 52.4279 46.8545 52.5938 46.9412C52.6232 46.9566 52.6525 46.9719 52.6827 46.9878C52.7498 47.0229 52.8171 47.058 52.8843 47.0931C52.8843 47.1167 52.8843 47.1403 52.8843 47.1646C52.9102 47.1628 52.9362 47.1609 52.9629 47.159C53.0779 47.1655 53.1369 47.1954 53.2351 47.254C53.2633 47.2706 53.2916 47.2872 53.3207 47.3043C53.3418 47.3172 53.363 47.3301 53.3848 47.3434C53.3848 47.367 53.3848 47.3906 53.3848 47.4149C53.4087 47.4181 53.4327 47.4213 53.4574 47.4246C53.5923 47.4577 53.7089 47.5169 53.8316 47.5802C53.8565 47.5928 53.8813 47.6055 53.9069 47.6185C54.1401 47.7375 54.3707 47.8611 54.6002 47.9868C54.6002 48.0104 54.6002 48.034 54.6002 48.0583C54.6315 48.0623 54.6628 48.0662 54.695 48.0703C54.817 48.0945 54.9039 48.1314 55.0135 48.1892C55.0506 48.2086 55.0877 48.228 55.1259 48.248C55.1648 48.2687 55.2036 48.2894 55.2437 48.3108C55.2837 48.3319 55.3237 48.353 55.3649 48.3747C55.6498 48.5256 55.9302 48.6827 56.2088 48.8448C56.4004 48.9525 56.5943 49.0554 56.7896 49.1562C56.8234 49.1737 56.8571 49.1911 56.8919 49.2091C56.96 49.2443 57.0281 49.2793 57.0964 49.3142C57.1437 49.3386 57.1437 49.3386 57.1919 49.3635C57.2203 49.3781 57.2487 49.3926 57.2779 49.4076C57.3787 49.468 57.4432 49.526 57.4958 49.6312C57.4991 49.6915 57.5001 49.7519 57.5001 49.8122C57.5001 49.8505 57.5002 49.8888 57.5002 49.9282C57.5001 49.9704 57.5 50.0126 57.4998 50.0561C57.4998 50.1004 57.4998 50.1447 57.4998 50.1903C57.4998 50.312 57.4996 50.4336 57.4994 50.5552C57.4992 50.6823 57.4991 50.8093 57.4991 50.9364C57.499 51.1771 57.4987 51.4177 57.4983 51.6584C57.4979 51.9324 57.4977 52.2063 57.4976 52.4803C57.4972 53.0439 57.4966 53.6076 57.4958 54.1712C57.2885 54.1776 57.2885 54.1776 57.2232 54.1198C57.207 54.1014 57.1907 54.083 57.174 54.064C57.1534 54.0588 57.1327 54.0536 57.1115 54.0483C56.9878 54.0174 56.89 53.9504 56.7808 53.8852C56.7808 53.8616 56.7808 53.838 56.7808 53.8137C56.7505 53.8103 56.7202 53.8068 56.689 53.8033C56.5529 53.7752 56.4415 53.7239 56.3199 53.6597C56.2972 53.648 56.2746 53.6363 56.2513 53.6243C56.2039 53.5997 56.1565 53.575 56.1092 53.5501C56.0366 53.512 55.9637 53.4744 55.8908 53.4369C55.8446 53.4129 55.7985 53.3889 55.7524 53.3648C55.7196 53.3479 55.7196 53.3479 55.6862 53.3307C55.5338 53.25 55.5338 53.25 55.4939 53.1703C55.4231 53.1443 55.3516 53.1203 55.2794 53.0988C55.2794 53.0752 55.2794 53.0516 55.2794 53.0273C55.2588 53.0221 55.2381 53.017 55.2168 53.0116C55.1903 53.005 55.1638 52.9984 55.1364 52.9915C55.1147 52.9871 55.0929 52.9827 55.0705 52.9781C54.9794 52.9517 54.9058 52.9113 54.8236 52.8642C54.795 52.8479 54.7665 52.8317 54.737 52.8149C54.7155 52.8024 54.6939 52.7899 54.6717 52.777C54.6717 52.7535 54.6717 52.7299 54.6717 52.7056C54.6415 52.7026 54.6112 52.6997 54.5801 52.6966C54.4314 52.6642 54.3358 52.6067 54.207 52.5268C54.207 52.5032 54.207 52.4796 54.207 52.4553C54.173 52.4509 54.1391 52.4465 54.1042 52.4419C53.9925 52.4196 53.9925 52.4196 53.921 52.3481C53.8996 52.3429 53.8782 52.3378 53.8562 52.3324C53.7575 52.307 53.6864 52.2579 53.5992 52.2051C53.5342 52.171 53.4688 52.1375 53.4032 52.1045C53.3487 52.0768 53.3487 52.0768 53.293 52.0484C53.2167 52.0096 53.1403 51.9711 53.0637 51.9328C53.0276 51.9143 52.9914 51.8957 52.9541 51.8766C52.921 51.8599 52.8879 51.8432 52.8537 51.826C52.777 51.7761 52.777 51.7761 52.7413 51.6689C52.7125 51.6667 52.6838 51.6644 52.6542 51.6622C52.4852 51.6236 52.3525 51.5432 52.2051 51.4544C52.2051 51.537 52.2051 51.6195 52.2051 51.7046C52.1815 51.7046 52.1579 51.7046 52.1336 51.7046C52.1279 51.7379 52.1222 51.7712 52.1164 51.8056C52.0338 52.2571 51.8833 52.6564 51.6689 53.063C51.6571 53.0866 51.6453 53.1102 51.6331 53.1345C51.6095 53.1566 51.5859 53.1788 51.5616 53.2016C51.4851 53.2697 51.4851 53.2697 51.4745 53.3512C51.4544 53.4205 51.4544 53.4205 51.3717 53.4697C51.2532 53.5413 51.2075 53.6275 51.1326 53.7422C51.0973 53.754 51.0619 53.7658 51.0254 53.778C51.0136 53.8016 51.0018 53.8252 50.9897 53.8495C50.9159 53.8718 50.9159 53.8718 50.8467 53.8852C50.8467 53.9088 50.8467 53.9324 50.8467 53.9567C50.8186 53.9678 50.7906 53.9788 50.7618 53.9902C50.6353 54.0342 50.6353 54.0342 50.5607 54.1355C50.5017 54.1355 50.4427 54.1355 50.3819 54.1355C50.3819 54.1591 50.3819 54.1827 50.3819 54.207C50.3499 54.2136 50.3499 54.2136 50.3171 54.2204C50.2296 54.2411 50.2296 54.2411 50.1317 54.3142C49.934 54.3847 49.7589 54.3959 49.5521 54.3949C49.5195 54.395 49.4869 54.3951 49.4534 54.3953C49.3441 54.3956 49.2348 54.3954 49.1255 54.3953C49.0464 54.3954 48.9673 54.3956 48.8882 54.3958C48.6707 54.3962 48.4533 54.3962 48.2358 54.3961C48.0254 54.3961 47.8149 54.3964 47.6045 54.3967C47.1209 54.3974 46.6374 54.3976 46.1538 54.3976C45.7803 54.3977 45.4069 54.3978 45.0334 54.3981C44.9259 54.3981 44.8184 54.3982 44.7108 54.3982C44.6708 54.3983 44.6708 54.3983 44.6299 54.3983C43.878 54.3987 43.1262 54.399 42.3744 54.399C42.346 54.399 42.3177 54.399 42.2885 54.399C42.1448 54.399 42.0011 54.399 41.8575 54.399C41.8289 54.399 41.8004 54.399 41.771 54.399C41.7133 54.399 41.6556 54.3989 41.5979 54.3989C40.7003 54.3989 39.8027 54.3994 38.9051 54.4004C37.8966 54.4015 36.8881 54.4021 35.8796 54.4021C35.772 54.4021 35.6644 54.4021 35.5569 54.4021C35.5304 54.4021 35.5039 54.4021 35.4766 54.402C35.0506 54.402 34.6246 54.4025 34.1986 54.4031C33.7703 54.4037 33.3421 54.4038 32.9138 54.4033C32.6819 54.4031 32.4499 54.4031 32.218 54.4037C32.0055 54.4043 31.7931 54.4042 31.5807 54.4035C31.504 54.4034 31.4272 54.4036 31.3504 54.404C30.5778 54.4077 30.5778 54.4077 30.2559 54.2427C30.2323 54.2191 30.2087 54.1955 30.1844 54.1712C30.149 54.1712 30.1136 54.1712 30.0771 54.1712C29.8573 54.0722 29.663 53.9612 29.5052 53.778C29.4363 53.6985 29.4363 53.6985 29.3264 53.6707C29.3011 53.6238 29.2775 53.576 29.2549 53.5278C29.2148 53.4759 29.173 53.4252 29.1298 53.3758C29.1081 53.3506 29.0863 53.3253 29.0639 53.2993C29.0099 53.2335 29.0099 53.2335 28.9332 53.2418C28.9298 53.223 28.9264 53.2042 28.9229 53.1848C28.8889 53.0698 28.8333 52.9722 28.7768 52.8664C28.5289 52.3857 28.4987 51.8959 28.4996 51.3632C28.4996 51.3151 28.4995 51.267 28.4994 51.2188C28.4993 51.0891 28.4993 50.9593 28.4994 50.8296C28.4995 50.6935 28.4994 50.5574 28.4994 50.4214C28.4993 50.1932 28.4994 49.965 28.4996 49.7368C28.4998 49.473 28.4997 49.2091 28.4995 48.9453C28.4993 48.7184 28.4993 48.4916 28.4994 48.2647C28.4995 48.1294 28.4995 47.994 28.4994 47.8586C28.4993 47.7316 28.4993 47.6045 28.4995 47.4775C28.4996 47.4086 28.4995 47.3396 28.4994 47.2707C28.4995 47.2094 28.4995 47.2094 28.4997 47.1468C28.4997 47.1112 28.4997 47.0756 28.4997 47.0389C28.5042 46.9501 28.5042 46.9501 28.54 46.8429C28.6214 46.7959 28.7008 46.7552 28.7857 46.7155C28.8382 46.6903 28.8906 46.6649 28.943 46.6394C28.9706 46.6261 28.9983 46.6127 29.0267 46.5989C29.1699 46.5283 29.3106 46.4532 29.4516 46.3782C29.6817 46.2562 29.9131 46.1376 30.1465 46.0221C30.3335 45.9292 30.5182 45.8324 30.7027 45.7347C30.9216 45.619 31.1408 45.5044 31.3618 45.3929C31.3853 45.3809 31.4087 45.369 31.4329 45.3566C31.5993 45.2733 31.5993 45.2733 31.6904 45.2534C31.7906 45.2247 31.8552 45.1563 31.936 45.0913C32.0205 45.045 32.1041 45.0013 32.1907 44.9594C32.2129 44.9484 32.2351 44.9375 32.2579 44.9261C32.3523 44.8798 32.4439 44.8386 32.5437 44.8053C32.5637 44.7898 32.5836 44.7743 32.6041 44.7584C32.737 44.6614 32.8875 44.5755 33.0484 44.5369C33.1226 44.5225 33.1226 44.5225 33.1917 44.4567C33.3317 44.3472 33.484 44.2574 33.6519 44.1976C33.7345 44.2105 33.7345 44.2105 33.7949 44.2333C33.7962 44.2124 33.7974 44.1915 33.7987 44.1699C33.8471 44.0494 33.945 44.015 34.0559 43.9603C34.0785 43.9487 34.1011 43.9371 34.1245 43.9251C34.1723 43.9006 34.2203 43.8764 34.2684 43.8524C34.3419 43.8157 34.415 43.7784 34.488 43.7409C34.5346 43.7172 34.5812 43.6935 34.6279 43.6699C34.6497 43.6588 34.6715 43.6477 34.694 43.6362C34.7777 43.5946 34.8557 43.5568 34.9471 43.5357C35.0288 43.5133 35.0592 43.4716 35.1176 43.4111C35.1739 43.3771 35.2315 43.3451 35.2898 43.3146C35.3396 43.2885 35.3396 43.2885 35.3904 43.2619C35.4423 43.2351 35.4423 43.2351 35.4952 43.2078C35.5299 43.1895 35.5646 43.1712 35.6004 43.1524C35.8589 43.0179 35.8589 43.0179 35.9398 43.0179C35.9398 42.9943 35.9398 42.9707 35.9398 42.9464C35.8978 42.9346 35.8557 42.9228 35.8124 42.9106C35.6301 42.8501 35.4664 42.7614 35.2987 42.6694C35.1308 42.5779 34.9606 42.4945 34.7869 42.4146C34.5586 42.3091 34.3346 42.1969 34.1122 42.0795C34.0842 42.0648 34.0563 42.05 34.0275 42.0348C33.5692 41.7913 33.5692 41.7913 33.5089 41.731C33.4495 41.7068 33.3899 41.683 33.3302 41.6595C33.2823 41.6361 33.2345 41.6125 33.1872 41.588C33.1872 41.5644 33.1872 41.5408 33.1872 41.5165C33.1576 41.5136 33.128 41.5107 33.0976 41.5077C32.9444 41.4746 32.8269 41.4116 32.6912 41.3355C32.6666 41.322 32.642 41.3085 32.6166 41.2946C32.5564 41.2616 32.4964 41.2282 32.4365 41.1947C32.4365 41.1711 32.4365 41.1475 32.4365 41.1232C32.4058 41.1196 32.3751 41.116 32.3434 41.1122C32.2114 41.0853 32.1148 41.0407 31.9957 40.978C31.964 40.9615 31.964 40.9615 31.9317 40.9447C31.8638 40.9092 31.796 40.8732 31.7282 40.8373C31.6816 40.8128 31.635 40.7884 31.5884 40.7639C31.4745 40.7042 31.3607 40.6442 31.2471 40.584C31.1588 40.5372 31.0704 40.4907 30.982 40.4442C30.847 40.373 30.7122 40.3014 30.5776 40.2295C30.5776 40.2059 30.5776 40.1824 30.5776 40.158C30.5495 40.1559 30.5214 40.1537 30.4924 40.1515C30.3142 40.1113 30.1697 40.0284 30.0101 39.9413C29.9434 39.9056 29.8767 39.87 29.81 39.8344C29.7769 39.8166 29.7438 39.7989 29.7097 39.7806C29.5675 39.7053 29.4237 39.633 29.2795 39.5615C29.2552 39.5494 29.2308 39.5373 29.2057 39.5248C29.1507 39.4975 29.0956 39.4703 29.0405 39.4431C29.0405 39.4195 29.0405 39.3959 29.0405 39.3716C29.0043 39.3686 28.9682 39.3657 28.931 39.3627C28.775 39.3404 28.6699 39.2812 28.54 39.1929C28.503 39.082 28.4996 39.0053 28.4992 38.889C28.499 38.8482 28.4988 38.8073 28.4986 38.7652C28.4986 38.7203 28.4985 38.6754 28.4985 38.6291C28.4983 38.5813 28.4981 38.5336 28.4979 38.4858C28.4975 38.356 28.4972 38.2261 28.4971 38.0962C28.497 38.0149 28.4968 37.9336 28.4967 37.8522C28.4962 37.5973 28.4958 37.3423 28.4957 37.0873C28.4955 36.794 28.4949 36.5007 28.4939 36.2074C28.4931 35.9802 28.4927 35.7529 28.4927 35.5257C28.4927 35.3903 28.4924 35.2548 28.4918 35.1194C28.4912 34.9916 28.4911 34.8638 28.4914 34.736C28.4915 34.6677 28.491 34.5993 28.4905 34.531C28.4927 34.0548 28.5817 33.6179 28.7902 33.1872C28.8038 33.159 28.8174 33.1308 28.8314 33.1017C28.974 32.8271 29.1767 32.5981 29.3778 32.365C29.4676 32.2687 29.4676 32.2687 29.5052 32.1863C29.5406 32.1745 29.576 32.1627 29.6124 32.1505C29.6242 32.1269 29.636 32.1033 29.6482 32.079C29.6836 32.0672 29.7189 32.0554 29.7554 32.0433C29.7797 32.0189 29.7797 32.0189 29.8046 31.9941C29.9063 31.8924 29.9968 31.8318 30.1419 31.8221C30.1677 31.8243 30.1935 31.8265 30.2201 31.8288C30.2201 31.8052 30.2201 31.7816 30.2201 31.7573C30.2481 31.7529 30.2762 31.7484 30.305 31.7439C30.4039 31.729 30.4039 31.729 30.4704 31.65C30.8797 31.5135 31.3032 31.5277 31.7288 31.5292ZM31.0066 31.5786C31.0066 31.5904 31.0066 31.6021 31.0066 31.6143C37.0819 31.6143 43.1573 31.6143 49.4167 31.6143C49.4167 31.6025 49.4167 31.5907 49.4167 31.5786C43.3414 31.5786 37.266 31.5786 31.0066 31.5786ZM30.7564 31.6143C30.7564 31.6261 30.7564 31.6379 30.7564 31.65C30.8271 31.65 30.8979 31.65 30.9708 31.65C30.9708 31.6383 30.9708 31.6265 30.9708 31.6143C30.9001 31.6143 30.8293 31.6143 30.7564 31.6143ZM49.4525 31.6143C49.4525 31.6261 49.4525 31.6379 49.4525 31.65C49.5351 31.65 49.6176 31.65 49.7027 31.65C49.7027 31.6383 49.7027 31.6265 49.7027 31.6143C49.6202 31.6143 49.5376 31.6143 49.4525 31.6143ZM31.2211 35.8683C31.2329 35.8919 31.2447 35.9155 31.2568 35.9398C37.2968 35.9398 43.3367 35.9398 49.5597 35.9398C49.5715 35.9162 49.5833 35.8926 49.5955 35.8683C43.5319 35.8683 37.4684 35.8683 31.2211 35.8683ZM31.3998 35.9398C31.5294 36.037 31.6575 36.1085 31.802 36.1789C31.8252 36.1903 31.8484 36.2018 31.8724 36.2136C31.9293 36.2416 31.9863 36.2695 32.0433 36.2973C32.0433 36.3209 32.0433 36.3445 32.0433 36.3688C32.0661 36.3732 32.089 36.3776 32.1125 36.3822C32.1369 36.3895 32.1612 36.3969 32.1863 36.4045C32.1981 36.4281 32.2099 36.4517 32.222 36.476C32.2934 36.4885 32.3649 36.5003 32.4365 36.5118C32.5739 36.5666 32.7045 36.635 32.8364 36.7017C32.8721 36.7191 32.9077 36.7365 32.9444 36.7544C32.9786 36.7715 33.0128 36.7886 33.048 36.8063C33.079 36.8218 33.11 36.8373 33.142 36.8532C33.2284 36.9085 33.2745 36.9627 33.3302 37.048C33.3656 37.0362 33.401 37.0244 33.4374 37.0122C33.4522 37.0285 33.4669 37.0447 33.4821 37.0614C33.5735 37.1463 33.6625 37.1833 33.7814 37.2196C33.9272 37.2713 34.0599 37.3387 34.1968 37.4102C34.2243 37.4244 34.2517 37.4386 34.28 37.4532C34.3672 37.4982 34.4542 37.5434 34.5412 37.5887C34.6005 37.6194 34.6598 37.65 34.7191 37.6807C34.8639 37.7556 35.0086 37.8307 35.1533 37.9059C35.1533 37.9295 35.1533 37.9531 35.1533 37.9774C35.1777 37.9804 35.202 37.9833 35.2271 37.9864C35.365 38.0216 35.4619 38.0798 35.5823 38.1562C35.5941 38.1798 35.6059 38.2034 35.6181 38.2277C35.6485 38.2323 35.6789 38.2369 35.7102 38.2417C35.8606 38.2684 35.9756 38.3261 36.1103 38.3961C36.149 38.4158 36.149 38.4158 36.1885 38.436C36.2426 38.4638 36.2967 38.4918 36.3508 38.5199C36.4337 38.5629 36.5169 38.6052 36.6002 38.6474C36.6529 38.6746 36.7056 38.7017 36.7582 38.729C36.7832 38.7416 36.8081 38.7542 36.8338 38.7672C37.0081 38.8588 37.0081 38.8588 37.048 38.9784C37.0819 38.9828 37.1158 38.9872 37.1508 38.9918C37.2625 39.0141 37.2625 39.0141 37.334 39.0856C37.4132 39.1309 37.4883 39.1607 37.5756 39.1883C37.6936 39.2294 37.7989 39.2797 37.9097 39.3375C37.9508 39.3589 37.9919 39.3803 38.0342 39.4023C38.0771 39.4248 38.12 39.4474 38.1629 39.4699C38.2046 39.4916 38.2464 39.5134 38.2894 39.5358C38.5445 39.6689 38.7979 39.8048 39.0499 39.9436C39.0499 39.9672 39.0499 39.9907 39.0499 40.0151C39.156 40.0327 39.156 40.0327 39.2643 40.0508C39.2643 40.0744 39.2643 40.098 39.2643 40.1223C39.3078 40.1311 39.3513 40.14 39.3962 40.1491C39.5372 40.1836 39.6175 40.2433 39.7291 40.3368C39.7676 40.3431 39.7676 40.3431 39.807 40.3496C39.9688 40.3864 40.1027 40.4787 40.2433 40.5649C40.3588 40.6309 40.4232 40.6623 40.5562 40.6383C40.6574 40.5876 40.7543 40.5347 40.8507 40.4753C41.0498 40.3562 41.2536 40.251 41.4621 40.1492C41.5635 40.0996 41.662 40.0492 41.7583 39.9903C41.8554 39.9335 41.9417 39.9207 42.0527 39.9078C42.0645 39.8724 42.0763 39.837 42.0884 39.8006C42.1795 39.7485 42.2686 39.7022 42.3632 39.6576C42.3886 39.6453 42.4139 39.6331 42.44 39.6204C42.4899 39.5963 42.5399 39.5723 42.59 39.5485C42.654 39.5177 42.7172 39.4854 42.7803 39.453C42.8749 39.4073 42.8749 39.4073 42.9687 39.3917C43.0591 39.3783 43.0591 39.3783 43.1206 39.3023C43.2198 39.2061 43.3152 39.193 43.4468 39.1571C43.5057 39.1072 43.5057 39.1072 43.5541 39.0499C43.6379 38.994 43.7084 38.9485 43.8066 38.9247C43.8784 38.9111 43.8784 38.9111 43.9342 38.8613C44.0488 38.7777 44.1718 38.7171 44.2982 38.6531C44.3256 38.6392 44.3529 38.6252 44.3811 38.6108C44.4696 38.5656 44.5581 38.5206 44.6466 38.4757C44.767 38.4143 44.8874 38.3528 45.0077 38.2913C45.0371 38.2764 45.0664 38.2614 45.0966 38.246C45.3417 38.1208 45.5855 37.9932 45.8274 37.8619C45.9285 37.8077 46.0241 37.7618 46.1337 37.7273C46.2374 37.6971 46.2374 37.6971 46.3147 37.6263C46.4272 37.538 46.5459 37.4742 46.6731 37.4103C46.6979 37.3977 46.7228 37.385 46.7483 37.3719C46.8274 37.3315 46.9066 37.2914 46.9859 37.2513C47.0638 37.2117 47.1417 37.172 47.2196 37.1323C47.2707 37.1062 47.3218 37.0802 47.3729 37.0543C47.5714 36.9532 47.7665 36.847 47.9606 36.7378C48.0583 36.6905 48.0583 36.6905 48.1516 36.6748C48.2632 36.6486 48.302 36.594 48.3801 36.5118C48.4689 36.4567 48.4689 36.4567 48.5676 36.4052C48.6034 36.3865 48.6393 36.3678 48.6762 36.3485C48.7134 36.3294 48.7506 36.3103 48.7889 36.2906C48.8445 36.2613 48.8445 36.2613 48.9013 36.2314C49.2034 36.0748 49.2034 36.0748 49.381 36.047C49.3928 36.0116 49.4046 35.9763 49.4167 35.9398C43.4712 35.9398 37.5256 35.9398 31.3998 35.9398ZM54.7074 37.7987C54.7192 37.8223 54.731 37.8459 54.7432 37.8702C54.755 37.8466 54.7668 37.823 54.7789 37.7987C54.7553 37.7987 54.7317 37.7987 54.7074 37.7987ZM47.2361 41.731C47.2719 41.8024 47.2719 41.8024 47.2719 41.8024L47.2361 41.731ZM36.047 42.9464C36.0828 43.0179 36.0828 43.0179 36.0828 43.0179L36.047 42.9464ZM44.9125 42.9464C44.9483 43.0179 44.9483 43.0179 44.9483 43.0179L44.9125 42.9464ZM40.2773 45.3971C40.2431 45.4161 40.2088 45.4351 40.1735 45.4547C40.1014 45.495 40.0294 45.5354 39.9574 45.5759C39.7749 45.677 39.6097 45.7565 39.4073 45.8062C39.347 45.8576 39.347 45.8576 39.3001 45.9135C39.2264 45.9581 39.2264 45.9581 39.1571 45.985C39.1335 45.9732 39.1099 45.9614 39.0856 45.9492C39.0738 45.9846 39.062 46.02 39.0499 46.0564C38.9588 46.1126 38.9588 46.1126 38.8443 46.1682C38.8069 46.1867 38.7695 46.2052 38.7309 46.2243C38.6329 46.2658 38.547 46.2908 38.4421 46.3067C38.4421 46.3303 38.4421 46.3539 38.4421 46.3782C38.4071 46.3962 38.372 46.4142 38.3358 46.4327C38.2029 46.5009 38.0699 46.5691 37.937 46.6374C37.88 46.6667 37.823 46.6959 37.766 46.7251C37.683 46.7677 37.6 46.8103 37.517 46.853C37.4897 46.867 37.4623 46.881 37.4341 46.8955C37.3008 46.9641 37.1681 47.0336 37.0364 47.1054C37.0121 47.1186 36.9879 47.1318 36.9629 47.1454C36.9177 47.1701 36.8726 47.195 36.8276 47.2201C36.711 47.2837 36.6079 47.3254 36.476 47.3434C36.476 47.367 36.476 47.3906 36.476 47.4149C36.3852 47.4612 36.2944 47.5074 36.2034 47.5534C36.178 47.5664 36.1525 47.5795 36.1262 47.5929C35.983 47.6651 35.8436 47.7257 35.6896 47.7723C35.5654 47.8131 35.5654 47.8131 35.4654 47.8923C35.382 47.9716 35.2908 48.0173 35.1892 48.0713C35.1682 48.0826 35.1471 48.0938 35.1254 48.1054C35.0808 48.1292 35.0361 48.1529 34.9914 48.1765C34.9245 48.2118 34.8577 48.2474 34.7909 48.2831C34.6618 48.3518 34.5323 48.4197 34.4026 48.4873C34.3624 48.5083 34.3222 48.5294 34.2807 48.551C34.2431 48.5703 34.2055 48.5896 34.1668 48.6095C34.1337 48.6265 34.1007 48.6435 34.0667 48.661C33.9755 48.701 33.893 48.7222 33.7949 48.7375C33.7949 48.7611 33.7949 48.7847 33.7949 48.809C33.7648 48.8239 33.7347 48.8387 33.7037 48.854C33.6589 48.8762 33.6141 48.8985 33.5693 48.9207C33.5448 48.9329 33.5202 48.9451 33.495 48.9576C33.3211 49.0445 33.1484 49.1337 32.9764 49.2242C32.933 49.2469 32.8896 49.2696 32.8462 49.2924C32.7812 49.3265 32.7161 49.3607 32.6512 49.3952C32.5897 49.4278 32.528 49.4602 32.4662 49.4926C32.4304 49.5115 32.3945 49.5305 32.3576 49.55C32.2578 49.5955 32.2578 49.5955 32.1598 49.6131C32.0657 49.6245 32.0657 49.6245 32.0075 49.7385C31.8985 49.8099 31.8146 49.8171 31.6858 49.81C31.674 49.8454 31.6622 49.8808 31.65 49.9172C31.5406 49.9775 31.5406 49.9775 31.4356 50.0245C31.4356 50.0363 31.4356 50.0481 31.4356 50.0602C40.3716 50.0779 40.3716 50.0779 49.4882 50.096C49.3594 49.9671 49.2191 49.906 49.0563 49.8316C48.9965 49.8031 48.9383 49.771 48.8805 49.7385C48.8687 49.7031 48.8569 49.6677 48.8448 49.6312C48.803 49.6283 48.803 49.6283 48.7604 49.6254C48.5766 49.5832 48.4275 49.4953 48.2639 49.4033C48.2313 49.3856 48.1988 49.368 48.1653 49.3497C47.9246 49.2162 47.9246 49.2162 47.8438 49.095C47.7843 49.0828 47.7247 49.0709 47.6651 49.0593C47.6397 49.0327 47.6397 49.0327 47.6137 49.0056C47.56 48.9432 47.56 48.9432 47.4699 48.9424C47.2883 48.9049 47.1414 48.8186 46.9792 48.7308C46.9064 48.692 46.8335 48.6532 46.7606 48.6144C46.7221 48.5938 46.6836 48.5732 46.644 48.5521C46.5145 48.4838 46.3843 48.4173 46.2538 48.3513C46.1874 48.3175 46.121 48.2838 46.0546 48.25C46.0112 48.228 45.9678 48.2061 45.9243 48.1844C45.8633 48.1538 45.8025 48.1228 45.7417 48.0917C45.7067 48.074 45.6717 48.0564 45.6356 48.0381C45.556 47.9868 45.556 47.9868 45.5202 47.8796C45.4671 47.8973 45.4671 47.8973 45.413 47.9153C45.319 47.8757 45.319 47.8757 45.2141 47.817C45.1794 47.798 45.1447 47.7791 45.109 47.7595C45.0198 47.7008 45.0198 47.7008 44.9483 47.5936C44.8769 47.5811 44.8054 47.5693 44.7338 47.5579C44.6462 47.5189 44.5631 47.4788 44.4786 47.434C44.4546 47.4215 44.4306 47.4091 44.4058 47.3962C44.328 47.3558 44.2505 47.315 44.173 47.2741C44.1192 47.246 44.0653 47.218 44.0115 47.1899C43.8814 47.1221 43.7514 47.054 43.6215 46.9856C43.5325 46.9388 43.4434 46.8921 43.3543 46.8454C43.2481 46.7897 43.1421 46.7338 43.0362 46.6777C42.9174 46.6149 42.7982 46.5527 42.679 46.4909C42.2047 46.2448 41.7345 45.992 41.2662 45.7347C41.1196 45.6542 40.9728 45.5738 40.8261 45.4934C40.7748 45.4652 40.7748 45.4652 40.7225 45.4364C40.6912 45.4193 40.6599 45.4022 40.6277 45.3845C40.5999 45.3693 40.5721 45.354 40.5435 45.3383C40.4303 45.2805 40.3854 45.3363 40.2773 45.3971ZM31.2211 50.0602C31.2211 50.0838 31.2211 50.1074 31.2211 50.1317C36.9897 50.1317 42.7583 50.1317 48.7018 50.1317C48.7018 50.1199 48.7018 50.1081 48.7018 50.096C42.9332 50.0842 37.1645 50.0724 31.2211 50.0602ZM48.7375 50.1317C48.7375 50.1435 48.7375 50.1553 48.7375 50.1675C49.0443 50.1675 49.351 50.1675 49.667 50.1675C49.667 50.1557 49.667 50.1439 49.667 50.1317C49.3603 50.1317 49.0535 50.1317 48.7375 50.1317ZM30.7206 54.3142C30.8636 54.35 30.8636 54.35 30.8636 54.35L30.7206 54.3142Z" fill="#EEEEEE"/>
<path d="M30.8993 54.3857C37.1163 54.3857 43.3332 54.3857 49.7385 54.3857C49.7385 54.3975 49.7385 54.4093 49.7385 54.4214C43.5216 54.4214 37.3046 54.4214 30.8993 54.4214C30.8993 54.4096 30.8993 54.3978 30.8993 54.3857Z" fill="#EEEEEE"/>
<path d="M28.4327 34.1524C28.4445 34.1524 28.4563 34.1524 28.4685 34.1524C28.4685 35.7804 28.4685 37.4083 28.4685 39.0856C28.4567 39.0856 28.4449 39.0856 28.4327 39.0856C28.4327 37.4577 28.4327 35.8297 28.4327 34.1524Z" fill="#EEEEEE"/>
<path d="M28.4327 46.9501C28.4445 46.9501 28.4563 46.9501 28.4685 46.9501C28.4685 48.5663 28.4685 50.1825 28.4685 51.8476C28.4567 51.8476 28.4449 51.8476 28.4327 51.8476C28.4327 50.2314 28.4327 48.6153 28.4327 46.9501Z" fill="#EEEEEE"/>
<path d="M57.5315 31.8646C57.5433 31.8646 57.5551 31.8646 57.5673 31.8646C57.5673 33.3392 57.5673 34.8138 57.5673 36.333C57.5555 36.333 57.5437 36.333 57.5315 36.333C57.5315 34.8584 57.5315 33.3838 57.5315 31.8646Z" fill="#EEEEEE"/>
<path d="M57.5315 51.2042C57.5433 51.2042 57.5551 51.2042 57.5673 51.2042C57.5673 52.1715 57.5673 53.1388 57.5673 54.1355C57.5555 54.1355 57.5437 54.1355 57.5315 54.1355C57.5315 53.1682 57.5315 52.2008 57.5315 51.2042Z" fill="#EEEEEE"/>
<path d="M57.5315 49.6312C57.5433 49.6312 57.5551 49.6312 57.5673 49.6312C57.5673 50.1149 57.5673 50.5986 57.5673 51.0969C57.5555 51.0969 57.5437 51.0969 57.5315 51.0969C57.5315 50.6132 57.5315 50.1296 57.5315 49.6312Z" fill="#EEEEEE"/>
<path d="M28.4685 51.8834C28.4803 51.8834 28.4921 51.8834 28.5042 51.8834C28.5042 51.9777 28.5042 52.0721 28.5042 52.1693C28.4924 52.1693 28.4806 52.1693 28.4685 52.1693C28.4685 52.075 28.4685 51.9806 28.4685 51.8834Z" fill="#EEEEEE"/>
<path d="M52.1336 51.7046C52.1454 51.7046 52.1572 51.7046 52.1693 51.7046C52.1693 51.7872 52.1693 51.8697 52.1693 51.9548C52.1575 51.9548 52.1457 51.9548 52.1336 51.9548C52.1336 51.8722 52.1336 51.7897 52.1336 51.7046Z" fill="#EEEEEE"/>
<path d="M28.4685 33.9022C28.4803 33.9022 28.4921 33.9022 28.5042 33.9022C28.5042 33.9847 28.5042 34.0673 28.5042 34.1524C28.4924 34.1524 28.4806 34.1524 28.4685 34.1524C28.4685 34.0698 28.4685 33.9872 28.4685 33.9022Z" fill="#EEEEEE"/>
<path d="M52.0978 51.9548C52.1096 51.9548 52.1214 51.9548 52.1336 51.9548C52.1336 52.0138 52.1336 52.0728 52.1336 52.1336C52.1218 52.1336 52.11 52.1336 52.0978 52.1336C52.0978 52.0746 52.0978 52.0156 52.0978 51.9548Z" fill="#EEEEEE"/>
<path d="M52.0978 33.9736C52.1096 33.9736 52.1214 33.9736 52.1336 33.9736C52.1336 34.0326 52.1336 34.0916 52.1336 34.1524C52.1218 34.1524 52.11 34.1524 52.0978 34.1524C52.0978 34.0934 52.0978 34.0344 52.0978 33.9736Z" fill="#EEEEEE"/>
<path d="M28.5042 33.7234C28.516 33.7234 28.5278 33.7234 28.54 33.7234C28.54 33.7824 28.54 33.8414 28.54 33.9022C28.5282 33.9022 28.5164 33.9022 28.5042 33.9022C28.5042 33.8432 28.5042 33.7842 28.5042 33.7234Z" fill="#EEEEEE"/>
<path d="M28.54 52.3481C28.5757 52.4911 28.5757 52.4911 28.5757 52.4911L28.54 52.3481Z" fill="#EEEEEE"/>
<path d="M28.5042 52.2051C28.54 52.3481 28.54 52.3481 28.54 52.3481L28.5042 52.2051Z" fill="#EEEEEE"/>
<path d="M52.0621 33.8307C52.0978 33.9737 52.0978 33.9737 52.0978 33.9737L52.0621 33.8307Z" fill="#EEEEEE"/>
<path d="M57.4243 54.207C57.4958 54.2427 57.4958 54.2427 57.4958 54.2427L57.4243 54.207Z" fill="#EEEEEE"/>
<path d="M50.2389 54.207C50.3104 54.2427 50.3104 54.2427 50.3104 54.2427L50.2389 54.207Z" fill="#EEEEEE"/>
<path d="M57.3528 54.1712C57.4243 54.207 57.4243 54.207 57.4243 54.207L57.3528 54.1712Z" fill="#EEEEEE"/>
<path d="M50.3819 54.1354C50.4534 54.1712 50.4534 54.1712 50.4534 54.1712L50.3819 54.1354Z" fill="#EEEEEE"/>
<path d="M57.1025 54.0282C57.174 54.0639 57.174 54.0639 57.174 54.0639L57.1025 54.0282Z" fill="#EEEEEE"/>
<path d="M50.5964 54.0282C50.6679 54.0639 50.6679 54.0639 50.6679 54.0639L50.5964 54.0282Z" fill="#EEEEEE"/>
<path d="M56.7093 53.8137C56.7808 53.8495 56.7808 53.8495 56.7808 53.8495L56.7093 53.8137Z" fill="#EEEEEE"/>
<path d="M55.2079 53.0273C55.2794 53.063 55.2794 53.063 55.2794 53.063L55.2079 53.0273Z" fill="#EEEEEE"/>
<path d="M55.0649 52.9558C55.1364 52.9916 55.1364 52.9916 55.1364 52.9916L55.0649 52.9558Z" fill="#EEEEEE"/>
<path d="M54.6002 52.7056C54.6717 52.7413 54.6717 52.7413 54.6717 52.7413L54.6002 52.7056Z" fill="#EEEEEE"/>
<path d="M54.1355 52.4553C54.207 52.4911 54.207 52.4911 54.207 52.4911L54.1355 52.4553Z" fill="#EEEEEE"/>
<path d="M53.8495 52.3123C53.921 52.3481 53.921 52.3481 53.921 52.3481L53.8495 52.3123Z" fill="#EEEEEE"/>
<path d="M52.6698 51.6689C52.7413 51.7046 52.7413 51.7046 52.7413 51.7046L52.6698 51.6689Z" fill="#EEEEEE"/>
<path d="M31.6858 49.8457C31.7573 49.8815 31.7573 49.8815 31.7573 49.8815L31.6858 49.8457Z" fill="#EEEEEE"/>
<path d="M48.7733 49.667C48.8448 49.7027 48.8448 49.7027 48.8448 49.7027L48.7733 49.667Z" fill="#EEEEEE"/>
<path d="M32.1148 49.6312C32.1863 49.667 32.1863 49.667 32.1863 49.667L32.1148 49.6312Z" fill="#EEEEEE"/>
<path d="M47.7723 49.1307C47.8438 49.1665 47.8438 49.1665 47.8438 49.1665L47.7723 49.1307Z" fill="#EEEEEE"/>
<path d="M47.5579 49.0235C47.6294 49.0592 47.6294 49.0592 47.6294 49.0592L47.5579 49.0235Z" fill="#EEEEEE"/>
<path d="M47.4864 48.9878C47.5579 49.0235 47.5579 49.0235 47.5579 49.0235L47.4864 48.9878Z" fill="#EEEEEE"/>
<path d="M33.8307 48.7375C33.9022 48.7733 33.9022 48.7733 33.9022 48.7733L33.8307 48.7375Z" fill="#EEEEEE"/>
<path d="M54.6002 48.0226C54.6717 48.0583 54.6717 48.0583 54.6717 48.0583L54.6002 48.0226Z" fill="#EEEEEE"/>
<path d="M35.5466 47.8438C35.6181 47.8796 35.6181 47.8796 35.6181 47.8796L35.5466 47.8438Z" fill="#EEEEEE"/>
<path d="M35.6181 47.8081C35.6896 47.8439 35.6896 47.8439 35.6896 47.8439L35.6181 47.8081Z" fill="#EEEEEE"/>
<path d="M44.8768 47.6293C44.9483 47.6651 44.9483 47.6651 44.9483 47.6651L44.8768 47.6293Z" fill="#EEEEEE"/>
<path d="M53.3848 47.3791C53.4563 47.4148 53.4563 47.4148 53.4563 47.4148L53.3848 47.3791Z" fill="#EEEEEE"/>
<path d="M36.5118 47.3434C36.5833 47.3791 36.5833 47.3791 36.5833 47.3791L36.5118 47.3434Z" fill="#EEEEEE"/>
<path d="M52.8843 47.1289C52.9558 47.1647 52.9558 47.1647 52.9558 47.1647L52.8843 47.1289Z" fill="#EEEEEE"/>
<path d="M38.4779 46.3067C38.5494 46.3424 38.5494 46.3424 38.5494 46.3424L38.4779 46.3067Z" fill="#EEEEEE"/>
<path d="M51.2399 46.2709C51.3114 46.3067 51.3114 46.3067 51.3114 46.3067L51.2399 46.2709Z" fill="#EEEEEE"/>
<path d="M39.4431 45.8062C39.5146 45.842 39.5146 45.842 39.5146 45.842L39.4431 45.8062Z" fill="#EEEEEE"/>
<path d="M31.6858 45.2343C31.7573 45.27 31.7573 45.27 31.7573 45.27L31.6858 45.2343Z" fill="#EEEEEE"/>
<path d="M33.0442 44.5193C33.1157 44.555 33.1157 44.555 33.1157 44.555L33.0442 44.5193Z" fill="#EEEEEE"/>
<path d="M47.6651 44.412C47.7366 44.4478 47.7366 44.4478 47.7366 44.4478L47.6651 44.412Z" fill="#EEEEEE"/>
<path d="M34.9389 43.5184C35.0103 43.5541 35.0103 43.5541 35.0103 43.5541L34.9389 43.5184Z" fill="#EEEEEE"/>
<path d="M45.7705 43.4111C45.842 43.4468 45.842 43.4468 45.842 43.4468L45.7705 43.4111Z" fill="#EEEEEE"/>
<path d="M45.5917 42.6246C45.6632 42.6604 45.6632 42.6604 45.6632 42.6604L45.5917 42.6246Z" fill="#EEEEEE"/>
<path d="M45.6632 42.5889C45.7347 42.6247 45.7347 42.6247 45.7347 42.6247L45.6632 42.5889Z" fill="#EEEEEE"/>
<path d="M45.8777 42.4816C45.9492 42.5174 45.9492 42.5174 45.9492 42.5174L45.8777 42.4816Z" fill="#EEEEEE"/>
<path d="M45.9492 42.4459C46.0207 42.4817 46.0207 42.4817 46.0207 42.4817L45.9492 42.4459Z" fill="#EEEEEE"/>
<path d="M47.3791 41.6952C47.4506 41.7309 47.4506 41.7309 47.4506 41.7309L47.3791 41.6952Z" fill="#EEEEEE"/>
<path d="M33.1157 41.5165C33.1872 41.5522 33.1872 41.5522 33.1872 41.5522L33.1157 41.5165Z" fill="#EEEEEE"/>
<path d="M32.365 41.1232C32.4365 41.159 32.4365 41.159 32.4365 41.159L32.365 41.1232Z" fill="#EEEEEE"/>
<path d="M49.8457 40.4083C49.9172 40.444 49.9172 40.444 49.9172 40.444L49.8457 40.4083Z" fill="#EEEEEE"/>
<path d="M50.2032 40.2296C50.2747 40.2653 50.2747 40.2653 50.2747 40.2653L50.2032 40.2296Z" fill="#EEEEEE"/>
<path d="M30.5061 40.158C30.5776 40.1938 30.5776 40.1938 30.5776 40.1938L30.5061 40.158Z" fill="#EEEEEE"/>
<path d="M39.3358 40.0865C39.4073 40.1223 39.4073 40.1223 39.4073 40.1223L39.3358 40.0865Z" fill="#EEEEEE"/>
<path d="M39.1214 39.9793C39.1929 40.0151 39.1929 40.0151 39.1929 40.0151L39.1214 39.9793Z" fill="#EEEEEE"/>
<path d="M50.8109 39.9078C50.8824 39.9436 50.8824 39.9436 50.8824 39.9436L50.8109 39.9078Z" fill="#EEEEEE"/>
<path d="M41.9097 39.8721C41.9812 39.9078 41.9812 39.9078 41.9812 39.9078L41.9097 39.8721Z" fill="#EEEEEE"/>
<path d="M41.9812 39.8363C42.0527 39.8721 42.0527 39.8721 42.0527 39.8721L41.9812 39.8363Z" fill="#EEEEEE"/>
<path d="M28.969 39.3716C29.0405 39.4073 29.0405 39.4073 29.0405 39.4073L28.969 39.3716Z" fill="#EEEEEE"/>
<path d="M42.9464 39.3358C43.0179 39.3716 43.0179 39.3716 43.0179 39.3716L42.9464 39.3358Z" fill="#EEEEEE"/>
<path d="M52.2408 39.1571C52.3123 39.1929 52.3123 39.1929 52.3123 39.1929L52.2408 39.1571Z" fill="#EEEEEE"/>
<path d="M43.3396 39.1213C43.4111 39.1571 43.4111 39.1571 43.4111 39.1571L43.3396 39.1213Z" fill="#EEEEEE"/>
<path d="M37.4055 39.0856C37.477 39.1214 37.477 39.1214 37.477 39.1214L37.4055 39.0856Z" fill="#EEEEEE"/>
<path d="M53.3133 38.5851C53.3848 38.6209 53.3848 38.6209 53.3848 38.6209L53.3133 38.5851Z" fill="#EEEEEE"/>
<path d="M53.7065 38.3707C53.778 38.4064 53.778 38.4064 53.778 38.4064L53.7065 38.3707Z" fill="#EEEEEE"/>
<path d="M35.6181 38.1562C35.6896 38.1919 35.6896 38.1919 35.6896 38.1919L35.6181 38.1562Z" fill="#EEEEEE"/>
<path d="M54.2427 38.0847C54.3142 38.1204 54.3142 38.1204 54.3142 38.1204L54.2427 38.0847Z" fill="#EEEEEE"/>
<path d="M54.8504 37.7629C54.9219 37.7987 54.9219 37.7987 54.9219 37.7987L54.8504 37.7629Z" fill="#EEEEEE"/>
<path d="M33.6162 37.1194C33.6877 37.1552 33.6877 37.1552 33.6877 37.1552L33.6162 37.1194Z" fill="#EEEEEE"/>
<path d="M48.1298 36.619C48.2013 36.6548 48.2013 36.6548 48.2013 36.6548L48.1298 36.619Z" fill="#EEEEEE"/>
<path d="M32.222 36.4045C32.2935 36.4403 32.2935 36.4403 32.2935 36.4403L32.222 36.4045Z" fill="#EEEEEE"/>
<path d="M49.2738 36.0113C49.3452 36.047 49.3452 36.047 49.3452 36.047L49.2738 36.0113Z" fill="#EEEEEE"/>
<path d="M52.3123 34.4741C52.3838 34.5099 52.3838 34.5099 52.3838 34.5099L52.3123 34.4741Z" fill="#EEEEEE"/>
<path d="M53.0273 34.0809C53.0988 34.1167 53.0988 34.1167 53.0988 34.1167L53.0273 34.0809Z" fill="#EEEEEE"/>
<path d="M30.1486 31.793C30.2201 31.8288 30.2201 31.8288 30.2201 31.8288L30.1486 31.793Z" fill="#EEEEEE"/>
<path d="M30.2916 31.7216C30.3631 31.7573 30.3631 31.7573 30.3631 31.7573L30.2916 31.7216Z" fill="#EEEEEE"/>
</svg>
