<svg width="87" height="125" viewBox="0 0 87 125" fill="none" xmlns="http://www.w3.org/2000/svg">
<path d="M5.29166 24.9484C6.47096 11.469 18.3543 1.49769 31.8337 2.67699L61.7196 5.29166C75.1991 6.47097 85.1703 18.3543 83.991 31.8337L81.3764 61.7196C80.1971 75.1991 68.3138 85.1703 54.8343 83.991L24.9484 81.3764C11.469 80.1971 1.49769 68.3138 2.67699 54.8343L5.29166 24.9484Z" fill="#D9D9D9" stroke="#D9D9D9"/>
<rect x="13.8338" y="13.834" width="59" height="59" rx="19.5" fill="#9BA4B5" stroke="#9BA4B5"/>
<path d="M49.2404 42.2292L42.5897 33.4792H43.4501C44.0626 33.4792 44.6394 33.765 45.0098 34.2528L50.157 41.0246L55.3042 34.2528C55.6738 33.765 56.2506 33.4792 56.8631 33.4792H57.7235L51.0728 42.2292L58.0342 51.3875H57.1737C56.5612 51.3875 55.9845 51.1017 55.614 50.6139L50.1562 43.4338L44.6984 50.6139C44.328 51.101 43.7512 51.3875 43.1387 51.3875H42.2783L49.2404 42.2292ZM27.9167 42.9583V43.5293C27.9167 46.5911 29.9408 49.386 32.9246 50.0714C36.1613 50.8151 39.1152 49.1621 40.3825 46.5407C40.5794 46.1339 40.9892 45.875 41.4405 45.875H42.1901C41.2283 49.2693 38.0951 51.7514 34.3829 51.7076C29.9415 51.6551 26.4583 47.8394 26.4583 43.0619V42.9583V41.5V40.9779C26.4583 37.0207 29.2379 33.4872 33.1455 32.8579C38.1651 32.0493 42.5 35.9037 42.5 40.7708V42.9583H27.9167ZM27.9167 41.5H41.0417V40.7708C41.0417 36.6525 37.2485 33.4208 32.9654 34.3775C29.9612 35.0491 27.9167 37.8556 27.9167 41.2886V41.5Z" fill="#EEEEEE"/>
<path d="M6.19855 116V105.091H13.2937V106.748H8.17476V109.709H12.9262V111.366H8.17476V114.343H13.3363V116H6.19855ZM16.8014 107.818L18.4526 110.838L20.1305 107.818H22.1707L19.7044 111.909L22.2133 116H20.1838L18.4526 113.054L16.7374 116H14.692L17.1849 111.909L14.7559 107.818H16.8014ZM23.6622 119.068V107.818H25.5585V109.171H25.6703C25.7698 108.972 25.91 108.761 26.0911 108.537C26.2722 108.31 26.5173 108.116 26.8262 107.957C27.1352 107.793 27.5293 107.712 28.0087 107.712C28.6408 107.712 29.2108 107.873 29.7186 108.196C30.23 108.516 30.6348 108.99 30.9331 109.619C31.235 110.244 31.3859 111.011 31.3859 111.92C31.3859 112.818 31.2385 113.582 30.9438 114.21C30.649 114.839 30.2477 115.318 29.7399 115.648C29.2321 115.979 28.6568 116.144 28.0141 116.144C27.5453 116.144 27.1565 116.066 26.8475 115.909C26.5386 115.753 26.29 115.565 26.1018 115.345C25.9171 115.121 25.7733 114.91 25.6703 114.711H25.5904V119.068H23.6622ZM25.5531 111.909C25.5531 112.438 25.6277 112.902 25.7769 113.299C25.9296 113.697 26.1479 114.008 26.432 114.232C26.7197 114.452 27.0677 114.562 27.4761 114.562C27.9022 114.562 28.2591 114.448 28.5467 114.221C28.8344 113.99 29.051 113.676 29.1966 113.278C29.3457 112.877 29.4203 112.42 29.4203 111.909C29.4203 111.401 29.3475 110.95 29.2019 110.556C29.0563 110.162 28.8397 109.853 28.5521 109.629C28.2644 109.406 27.9058 109.294 27.4761 109.294C27.0641 109.294 26.7144 109.402 26.4267 109.619C26.1391 109.835 25.9207 110.139 25.7715 110.529C25.6259 110.92 25.5531 111.38 25.5531 111.909ZM33.0372 116V107.818H34.9068V109.182H34.9921C35.1412 108.71 35.3969 108.346 35.7591 108.09C36.1249 107.831 36.5421 107.701 37.0109 107.701C37.1174 107.701 37.2364 107.706 37.3678 107.717C37.5027 107.724 37.6146 107.737 37.7033 107.754V109.528C37.6217 109.5 37.4921 109.475 37.3145 109.453C37.1405 109.429 36.9718 109.416 36.8085 109.416C36.4569 109.416 36.1408 109.493 35.8603 109.645C35.5833 109.794 35.3649 110.002 35.2051 110.268C35.0453 110.535 34.9654 110.842 34.9654 111.19V116H33.0372ZM42.2697 116.16C41.4494 116.16 40.7409 115.989 40.1443 115.648C39.5513 115.304 39.0949 114.817 38.7753 114.189C38.4557 113.557 38.2959 112.813 38.2959 111.957C38.2959 111.115 38.4557 110.377 38.7753 109.741C39.0985 109.102 39.5495 108.605 40.1283 108.25C40.7072 107.891 41.3872 107.712 42.1685 107.712C42.6727 107.712 43.1486 107.793 43.596 107.957C44.047 108.116 44.4447 108.365 44.7892 108.702C45.1372 109.04 45.4106 109.469 45.6095 109.991C45.8084 110.51 45.9078 111.128 45.9078 111.845V112.436H39.2015V111.137H44.0594C44.0559 110.767 43.976 110.439 43.8197 110.151C43.6635 109.86 43.4451 109.631 43.1646 109.464C42.8876 109.297 42.5644 109.214 42.1951 109.214C41.8009 109.214 41.4547 109.31 41.1564 109.501C40.8581 109.69 40.6255 109.938 40.4586 110.247C40.2952 110.553 40.2118 110.888 40.2082 111.254V112.388C40.2082 112.864 40.2952 113.273 40.4692 113.614C40.6432 113.951 40.8865 114.21 41.199 114.391C41.5115 114.569 41.8773 114.658 42.2963 114.658C42.5768 114.658 42.8307 114.619 43.058 114.54C43.2853 114.459 43.4824 114.34 43.6493 114.184C43.8162 114.027 43.9422 113.834 44.0275 113.603L45.8279 113.805C45.7143 114.281 45.4976 114.697 45.178 115.052C44.862 115.403 44.4572 115.677 43.9636 115.872C43.4699 116.064 42.9053 116.16 42.2697 116.16ZM54.0057 109.981L52.2479 110.173C52.1982 109.995 52.1112 109.828 51.9869 109.672C51.8662 109.516 51.7028 109.39 51.4968 109.294C51.2909 109.198 51.0388 109.15 50.7405 109.15C50.3392 109.15 50.0018 109.237 49.7284 109.411C49.4585 109.585 49.3253 109.81 49.3289 110.087C49.3253 110.325 49.4123 110.519 49.5899 110.668C49.771 110.817 50.0693 110.94 50.4848 111.036L51.8804 111.334C52.6545 111.501 53.2298 111.765 53.6062 112.127C53.9862 112.49 54.178 112.964 54.1815 113.55C54.178 114.065 54.027 114.519 53.7287 114.913C53.434 115.304 53.0238 115.609 52.4983 115.83C51.9727 116.05 51.369 116.16 50.6872 116.16C49.6858 116.16 48.8797 115.95 48.2689 115.531C47.6581 115.109 47.2941 114.521 47.1769 113.768L49.0572 113.587C49.1424 113.956 49.3236 114.235 49.6005 114.423C49.8775 114.612 50.238 114.706 50.6819 114.706C51.14 114.706 51.5075 114.612 51.7845 114.423C52.065 114.235 52.2053 114.002 52.2053 113.725C52.2053 113.491 52.1147 113.298 51.9336 113.145C51.7561 112.992 51.4791 112.875 51.1027 112.793L49.7071 112.5C48.9223 112.337 48.3417 112.062 47.9652 111.675C47.5888 111.284 47.4024 110.79 47.4059 110.194C47.4024 109.69 47.5391 109.253 47.8161 108.884C48.0966 108.511 48.4855 108.223 48.9826 108.021C49.4834 107.815 50.0604 107.712 50.7138 107.712C51.6726 107.712 52.4272 107.916 52.9777 108.324C53.5316 108.733 53.8743 109.285 54.0057 109.981ZM62.2381 109.981L60.4803 110.173C60.4306 109.995 60.3436 109.828 60.2193 109.672C60.0986 109.516 59.9352 109.39 59.7293 109.294C59.5233 109.198 59.2712 109.15 58.9729 109.15C58.5716 109.15 58.2342 109.237 57.9608 109.411C57.6909 109.585 57.5578 109.81 57.5613 110.087C57.5578 110.325 57.6448 110.519 57.8223 110.668C58.0034 110.817 58.3017 110.94 58.7172 111.036L60.1128 111.334C60.8869 111.501 61.4622 111.765 61.8386 112.127C62.2186 112.49 62.4104 112.964 62.4139 113.55C62.4104 114.065 62.2595 114.519 61.9612 114.913C61.6664 115.304 61.2563 115.609 60.7307 115.83C60.2051 116.05 59.6014 116.16 58.9196 116.16C57.9182 116.16 57.1121 115.95 56.5013 115.531C55.8905 115.109 55.5265 114.521 55.4093 113.768L57.2896 113.587C57.3749 113.956 57.556 114.235 57.833 114.423C58.11 114.612 58.4704 114.706 58.9143 114.706C59.3724 114.706 59.7399 114.612 60.0169 114.423C60.2975 114.235 60.4377 114.002 60.4377 113.725C60.4377 113.491 60.3472 113.298 60.1661 113.145C59.9885 112.992 59.7115 112.875 59.3351 112.793L57.9395 112.5C57.1547 112.337 56.5741 112.062 56.1977 111.675C55.8212 111.284 55.6348 110.79 55.6384 110.194C55.6348 109.69 55.7715 109.253 56.0485 108.884C56.3291 108.511 56.7179 108.223 57.2151 108.021C57.7158 107.815 58.2928 107.712 58.9462 107.712C59.9051 107.712 60.6597 107.916 61.2101 108.324C61.7641 108.733 62.1068 109.285 62.2381 109.981ZM67.7247 107.818H69.6529V116.469C69.6529 117.058 69.5411 117.545 69.3173 117.928C69.0936 118.312 68.7705 118.598 68.3479 118.786C67.9253 118.974 67.4122 119.068 66.8085 119.068C66.7374 119.068 66.6717 119.066 66.6114 119.063C66.551 119.063 66.4853 119.061 66.4143 119.058V117.486C66.4676 117.49 66.5155 117.491 66.5581 117.491C66.6007 117.495 66.6451 117.497 66.6913 117.497C67.0606 117.497 67.3252 117.406 67.485 117.225C67.6448 117.048 67.7247 116.787 67.7247 116.442V107.818ZM68.6835 106.657C68.3745 106.657 68.11 106.556 67.8898 106.353C67.6732 106.147 67.5649 105.901 67.5649 105.613C67.5649 105.322 67.6732 105.075 67.8898 104.873C68.11 104.667 68.3745 104.564 68.6835 104.564C68.9889 104.564 69.2499 104.667 69.4665 104.873C69.6867 105.075 69.7967 105.322 69.7967 105.613C69.7967 105.901 69.6867 106.147 69.4665 106.353C69.2499 106.556 68.9889 106.657 68.6835 106.657ZM78.1024 109.981L76.3446 110.173C76.2949 109.995 76.2079 109.828 76.0836 109.672C75.9628 109.516 75.7995 109.39 75.5935 109.294C75.3876 109.198 75.1354 109.15 74.8371 109.15C74.4359 109.15 74.0985 109.237 73.8251 109.411C73.5552 109.585 73.422 109.81 73.4256 110.087C73.422 110.325 73.509 110.519 73.6866 110.668C73.8677 110.817 74.166 110.94 74.5815 111.036L75.9771 111.334C76.7512 111.501 77.3265 111.765 77.7029 112.127C78.0829 112.49 78.2746 112.964 78.2782 113.55C78.2746 114.065 78.1237 114.519 77.8254 114.913C77.5307 115.304 77.1205 115.609 76.5949 115.83C76.0694 116.05 75.4657 116.16 74.7839 116.16C73.7824 116.16 72.9763 115.95 72.3655 115.531C71.7547 115.109 71.3908 114.521 71.2736 113.768L73.1539 113.587C73.2391 113.956 73.4202 114.235 73.6972 114.423C73.9742 114.612 74.3347 114.706 74.7785 114.706C75.2366 114.706 75.6042 114.612 75.8812 114.423C76.1617 114.235 76.302 114.002 76.302 113.725C76.302 113.491 76.2114 113.298 76.0303 113.145C75.8528 112.992 75.5758 112.875 75.1994 112.793L73.8038 112.5C73.019 112.337 72.4383 112.062 72.0619 111.675C71.6855 111.284 71.4991 110.79 71.5026 110.194C71.4991 109.69 71.6358 109.253 71.9128 108.884C72.1933 108.511 72.5822 108.223 73.0793 108.021C73.58 107.815 74.1571 107.712 74.8105 107.712C75.7693 107.712 76.5239 107.916 77.0744 108.324C77.6283 108.733 77.971 109.285 78.1024 109.981Z" fill="#9BA4B5"/>
</svg>
