<svg width="87" height="126" viewBox="0 0 87 126" fill="none" xmlns="http://www.w3.org/2000/svg">
<path d="M5.29168 24.9484C6.47098 11.469 18.3543 1.49769 31.8338 2.67699L61.7196 5.29166C75.1991 6.47097 85.1704 18.3543 83.9911 31.8337L81.3764 61.7196C80.1971 75.1991 68.3138 85.1703 54.8343 83.991L24.9485 81.3764C11.469 80.1971 1.4977 68.3138 2.677 54.8343L5.29168 24.9484Z" fill="#D9D9D9" stroke="#D9D9D9"/>
<rect x="13.8338" y="13.834" width="59" height="59" rx="19.5" fill="#9BA4B5" stroke="#9BA4B5"/>
<path fill-rule="evenodd" clip-rule="evenodd" d="M55.343 49.976C55.4951 49.8887 55.6215 49.7628 55.7096 49.6112C55.7978 49.4595 55.8444 49.2874 55.845 49.112L55.863 43.325C55.8636 43.1496 55.9102 42.9775 55.9983 42.8258C56.0865 42.6741 56.2129 42.5483 56.365 42.461L59.502 40.659C59.654 40.5717 59.8264 40.5259 60.0017 40.5262C60.177 40.5265 60.3492 40.5729 60.5009 40.6607C60.6527 40.7485 60.7786 40.8747 60.8662 41.0266C60.9538 41.1784 61 41.3507 61 41.526V52.047C61 52.2229 60.9535 52.3957 60.8654 52.5479C60.7773 52.7001 60.6505 52.8264 60.498 52.914L48.659 59.714C48.5078 59.8008 48.3365 59.8466 48.1621 59.8467C47.9878 59.8469 47.8164 59.8015 47.665 59.715L38.374 54.401C38.2209 54.3136 38.0937 54.1872 38.0052 54.0348C37.9167 53.8824 37.8701 53.7093 37.87 53.533V48.228C37.87 48.222 37.877 48.218 37.883 48.221C37.888 48.224 37.895 48.221 37.895 48.214V48.208C37.895 48.204 37.897 48.2 37.901 48.198L45.553 43.802C45.56 43.798 45.557 43.787 45.549 43.787C45.5469 43.787 45.5448 43.7862 45.5433 43.7847C45.5418 43.7832 45.541 43.7811 45.541 43.779L45.556 38.578C45.5567 38.4021 45.511 38.2292 45.4235 38.0766C45.336 37.924 45.2099 37.7972 45.0577 37.709C44.9056 37.6207 44.7329 37.5742 44.557 37.574C44.3811 37.5738 44.2083 37.6201 44.056 37.708L38.369 40.985C38.2172 41.0724 38.0451 41.1184 37.87 41.1184C37.6948 41.1184 37.5228 41.0724 37.371 40.985L31.666 37.7C31.514 37.6125 31.3417 37.5665 31.1663 37.5666C30.9909 37.5667 30.8186 37.613 30.6668 37.7007C30.5149 37.7884 30.3888 37.9146 30.301 38.0665C30.2133 38.2183 30.1671 38.3906 30.167 38.566V47.966C30.1671 48.1412 30.1212 48.3134 30.0338 48.4652C29.9465 48.6171 29.8208 48.7434 29.6693 48.8314C29.5178 48.9194 29.3458 48.966 29.1706 48.9667C28.9954 48.9673 28.8231 48.9219 28.671 48.835L25.505 47.025C25.3516 46.9374 25.2242 46.8108 25.1357 46.6579C25.0472 46.5051 25.0007 46.3316 25.001 46.155L25.029 29.725C25.0294 29.5498 25.0758 29.3779 25.1635 29.2263C25.2512 29.0747 25.3773 28.9488 25.5289 28.8612C25.6806 28.7736 25.8526 28.7274 26.0278 28.7272C26.203 28.727 26.3751 28.7728 26.527 28.86L37.372 35.089C37.5235 35.176 37.6952 35.2218 37.87 35.2218C38.0447 35.2218 38.2165 35.176 38.368 35.089L49.21 28.86C49.3621 28.7726 49.5345 28.7268 49.7099 28.7272C49.8853 28.7275 50.0576 28.774 50.2093 28.8619C50.3611 28.9499 50.4871 29.0762 50.5746 29.2282C50.6621 29.3802 50.7081 29.5526 50.708 29.728V46.162C50.7081 46.3378 50.6618 46.5105 50.5738 46.6627C50.4859 46.8149 50.3593 46.9413 50.207 47.029L44.529 50.299C44.3765 50.3869 44.2499 50.5135 44.162 50.6661C44.0741 50.8186 44.028 50.9916 44.0284 51.1677C44.0288 51.3437 44.0757 51.5165 44.1643 51.6686C44.2529 51.8207 44.3801 51.9468 44.533 52.034L47.665 53.817C47.8164 53.9032 47.9876 53.9483 48.1618 53.948C48.3359 53.9476 48.507 53.9018 48.658 53.815L55.343 49.976ZM56 35.234C56.0001 35.4108 56.0472 35.5845 56.1363 35.7372C56.2254 35.89 56.3535 36.0163 56.5074 36.1035C56.6613 36.1906 56.8355 36.2353 57.0124 36.2331C57.1892 36.2309 57.3623 36.1819 57.514 36.091L60.514 34.291C60.6621 34.2023 60.7847 34.0767 60.8699 33.9265C60.955 33.7763 60.9999 33.6066 61 33.434V29.766C60.9997 29.5892 60.9525 29.4157 60.8633 29.2631C60.7741 29.1105 60.646 28.9843 60.4922 28.8973C60.3383 28.8103 60.1641 28.7656 59.9874 28.7679C59.8106 28.7701 59.6376 28.8191 59.486 28.91L56.486 30.71C56.3379 30.7987 56.2153 30.9243 56.1301 31.0745C56.045 31.2247 56.0001 31.3943 56 31.567V35.234Z" fill="#EEEEEE"/>
<path d="M5.11115 106.091H7.52947L10.7681 113.996H10.896L14.1346 106.091H16.5529V117H14.6566V109.505H14.5554L11.5405 116.968H10.1236L7.10866 109.489H7.00746V117H5.11115V106.091ZM20.9741 117.165C20.4556 117.165 19.9886 117.073 19.5732 116.888C19.1612 116.7 18.8345 116.423 18.593 116.057C18.3551 115.691 18.2362 115.24 18.2362 114.704C18.2362 114.243 18.3214 113.861 18.4918 113.559C18.6623 113.257 18.8949 113.016 19.1896 112.835C19.4844 112.653 19.8164 112.517 20.1857 112.424C20.5586 112.328 20.9439 112.259 21.3416 112.217C21.821 112.167 22.2099 112.123 22.5082 112.083C22.8065 112.041 23.0231 111.977 23.158 111.892C23.2965 111.803 23.3658 111.666 23.3658 111.482V111.45C23.3658 111.048 23.2468 110.738 23.0089 110.517C22.771 110.297 22.4283 110.187 21.9808 110.187C21.5085 110.187 21.1339 110.29 20.8569 110.496C20.5835 110.702 20.3988 110.945 20.3029 111.226L18.5025 110.97C18.6445 110.473 18.8789 110.058 19.2056 109.724C19.5323 109.386 19.9318 109.134 20.4041 108.967C20.8764 108.797 21.3984 108.712 21.9702 108.712C22.3643 108.712 22.7567 108.758 23.1474 108.85C23.538 108.942 23.8949 109.095 24.218 109.308C24.5412 109.518 24.8004 109.804 24.9957 110.166C25.1946 110.528 25.294 110.981 25.294 111.524V117H23.4403V115.876H23.3764C23.2592 116.103 23.0941 116.316 22.881 116.515C22.6715 116.711 22.407 116.869 22.0874 116.989C21.7713 117.107 21.4002 117.165 20.9741 117.165ZM21.4748 115.748C21.8619 115.748 22.1974 115.672 22.4815 115.519C22.7656 115.363 22.984 115.157 23.1367 114.901C23.293 114.646 23.3711 114.367 23.3711 114.065V113.101C23.3107 113.151 23.2077 113.197 23.0621 113.239C22.9201 113.282 22.7603 113.319 22.5827 113.351C22.4052 113.383 22.2294 113.412 22.0554 113.436C21.8814 113.461 21.7305 113.483 21.6026 113.5C21.315 113.539 21.0575 113.603 20.8303 113.692C20.603 113.781 20.4237 113.905 20.2923 114.065C20.1609 114.221 20.0952 114.424 20.0952 114.672C20.0952 115.027 20.2248 115.295 20.484 115.477C20.7433 115.658 21.0735 115.748 21.4748 115.748ZM31.3185 108.818V110.31H26.6151V108.818H31.3185ZM27.7763 106.858H29.7045V114.539C29.7045 114.798 29.7436 114.997 29.8217 115.136C29.9034 115.271 30.0099 115.363 30.1413 115.413C30.2727 115.462 30.4183 115.487 30.5781 115.487C30.6989 115.487 30.8089 115.478 30.9084 115.461C31.0114 115.443 31.0895 115.427 31.1428 115.413L31.4677 116.92C31.3647 116.956 31.2173 116.995 31.0256 117.037C30.8374 117.08 30.6065 117.105 30.3331 117.112C29.8501 117.126 29.4151 117.053 29.0281 116.893C28.641 116.73 28.3338 116.478 28.1065 116.137C27.8828 115.796 27.7727 115.37 27.7763 114.859V106.858ZM36.4655 117.16C35.6452 117.16 34.9367 116.989 34.3401 116.648C33.7471 116.304 33.2907 115.817 32.9711 115.189C32.6515 114.557 32.4917 113.813 32.4917 112.957C32.4917 112.115 32.6515 111.377 32.9711 110.741C33.2943 110.102 33.7453 109.605 34.3241 109.25C34.903 108.891 35.583 108.712 36.3643 108.712C36.8685 108.712 37.3444 108.793 37.7918 108.957C38.2428 109.116 38.6405 109.365 38.985 109.702C39.333 110.04 39.6064 110.469 39.8053 110.991C40.0042 111.51 40.1036 112.128 40.1036 112.845V113.436H33.3973V112.137H38.2552C38.2517 111.767 38.1718 111.439 38.0155 111.151C37.8593 110.86 37.6409 110.631 37.3604 110.464C37.0834 110.297 36.7602 110.214 36.3909 110.214C35.9967 110.214 35.6505 110.31 35.3522 110.501C35.0539 110.69 34.8213 110.938 34.6544 111.247C34.491 111.553 34.4076 111.888 34.404 112.254V113.388C34.404 113.864 34.491 114.273 34.665 114.614C34.839 114.951 35.0823 115.21 35.3948 115.391C35.7073 115.569 36.0731 115.658 36.4921 115.658C36.7726 115.658 37.0265 115.619 37.2538 115.54C37.4811 115.459 37.6782 115.34 37.8451 115.184C38.012 115.027 38.1381 114.834 38.2233 114.603L40.0237 114.805C39.9101 115.281 39.6934 115.697 39.3738 116.052C39.0578 116.403 38.653 116.677 38.1594 116.872C37.6657 117.064 37.1011 117.16 36.4655 117.16ZM41.7349 117V108.818H43.6046V110.182H43.6898C43.839 109.71 44.0946 109.346 44.4569 109.09C44.8226 108.831 45.2399 108.701 45.7086 108.701C45.8152 108.701 45.9341 108.706 46.0655 108.717C46.2005 108.724 46.3123 108.737 46.4011 108.754V110.528C46.3194 110.5 46.1898 110.475 46.0123 110.453C45.8382 110.429 45.6696 110.416 45.5062 110.416C45.1547 110.416 44.8386 110.493 44.5581 110.645C44.2811 110.794 44.0627 111.002 43.9029 111.268C43.7431 111.535 43.6632 111.842 43.6632 112.19V117H41.7349ZM47.6822 117V108.818H49.6104V117H47.6822ZM48.6516 107.657C48.3462 107.657 48.0835 107.556 47.8633 107.353C47.6431 107.147 47.533 106.901 47.533 106.613C47.533 106.322 47.6431 106.075 47.8633 105.873C48.0835 105.667 48.3462 105.564 48.6516 105.564C48.9606 105.564 49.2234 105.667 49.44 105.873C49.6602 106.075 49.7702 106.322 49.7702 106.613C49.7702 106.901 49.6602 107.147 49.44 107.353C49.2234 107.556 48.9606 107.657 48.6516 107.657ZM53.9477 117.165C53.4292 117.165 52.9623 117.073 52.5468 116.888C52.1349 116.7 51.8081 116.423 51.5667 116.057C51.3287 115.691 51.2098 115.24 51.2098 114.704C51.2098 114.243 51.295 113.861 51.4655 113.559C51.6359 113.257 51.8685 113.016 52.1633 112.835C52.458 112.653 52.79 112.517 53.1594 112.424C53.5322 112.328 53.9175 112.259 54.3153 112.217C54.7947 112.167 55.1835 112.123 55.4818 112.083C55.7801 112.041 55.9967 111.977 56.1317 111.892C56.2702 111.803 56.3394 111.666 56.3394 111.482V111.45C56.3394 111.048 56.2204 110.738 55.9825 110.517C55.7446 110.297 55.4019 110.187 54.9545 110.187C54.4822 110.187 54.1075 110.29 53.8305 110.496C53.5571 110.702 53.3724 110.945 53.2765 111.226L51.4761 110.97C51.6182 110.473 51.8525 110.058 52.1792 109.724C52.5059 109.386 52.9055 109.134 53.3778 108.967C53.8501 108.797 54.3721 108.712 54.9438 108.712C55.338 108.712 55.7304 108.758 56.121 108.85C56.5116 108.942 56.8685 109.095 57.1917 109.308C57.5148 109.518 57.7741 109.804 57.9694 110.166C58.1682 110.528 58.2677 110.981 58.2677 111.524V117H56.414V115.876H56.3501C56.2329 116.103 56.0677 116.316 55.8547 116.515C55.6452 116.711 55.3806 116.869 55.061 116.989C54.7449 117.107 54.3738 117.165 53.9477 117.165ZM54.4484 115.748C54.8355 115.748 55.1711 115.672 55.4552 115.519C55.7393 115.363 55.9577 115.157 56.1104 114.901C56.2666 114.646 56.3447 114.367 56.3447 114.065V113.101C56.2844 113.151 56.1814 113.197 56.0358 113.239C55.8937 113.282 55.7339 113.319 55.5564 113.351C55.3788 113.383 55.203 113.412 55.029 113.436C54.855 113.461 54.7041 113.483 54.5763 113.5C54.2886 113.539 54.0312 113.603 53.8039 113.692C53.5766 113.781 53.3973 113.905 53.2659 114.065C53.1345 114.221 53.0688 114.424 53.0688 114.672C53.0688 115.027 53.1984 115.295 53.4577 115.477C53.7169 115.658 54.0471 115.748 54.4484 115.748ZM62.1349 106.091V117H60.2066V106.091H62.1349ZM74.8004 106.091H76.7766V113.218C76.7766 113.999 76.592 114.686 76.2227 115.279C75.8569 115.873 75.342 116.336 74.6779 116.67C74.0138 117 73.2379 117.165 72.3501 117.165C71.4588 117.165 70.6811 117 70.017 116.67C69.353 116.336 68.8381 115.873 68.4723 115.279C68.1065 114.686 67.9237 113.999 67.9237 113.218V106.091H69.8999V113.053C69.8999 113.507 69.9993 113.912 70.1982 114.267C70.4006 114.623 70.6847 114.901 71.0504 115.104C71.4162 115.303 71.8494 115.402 72.3501 115.402C72.8509 115.402 73.2841 115.303 73.6499 115.104C74.0192 114.901 74.3033 114.623 74.5021 114.267C74.701 113.912 74.8004 113.507 74.8004 113.053V106.091ZM80.9008 106.091V117H78.9246V106.091H80.9008Z" fill="#9BA4B5"/>
</svg>
