<svg width="87" height="125" viewBox="0 0 87 125" fill="none" xmlns="http://www.w3.org/2000/svg">
<path d="M5.29166 24.9484C6.47096 11.469 18.3543 1.49769 31.8337 2.67699L61.7196 5.29166C75.1991 6.47097 85.1703 18.3543 83.991 31.8337L81.3764 61.7196C80.1971 75.1991 68.3138 85.1703 54.8343 83.991L24.9484 81.3764C11.469 80.1971 1.49769 68.3138 2.67699 54.8343L5.29166 24.9484Z" fill="#D9D9D9" stroke="#D9D9D9"/>
<rect x="13.8338" y="13.834" width="59" height="59" rx="19.5" fill="#9BA4B5" stroke="#9BA4B5"/>
<g clip-path="url(#clip0_164_279)">
<path d="M25.5104 24.5104C24.6354 25.3125 24.9271 26.8437 26.2396 28.8854C28.5729 32.3854 30.6146 38.2917 30.0312 39.75C29.0833 42.1562 29.3021 46.2396 30.5417 47.9167C31.8542 49.8125 33.6041 50.0312 34.2604 48.3542C34.625 47.4792 35.2812 47.9167 37.3958 50.3958C38.9271 52.0729 40.3854 53.3125 40.6771 53.0208C40.9687 52.7292 40.2396 51.4167 39.0729 50.0312C37.9062 48.7187 36.5208 46.6042 36.0104 45.2917C34.7708 42.3021 33.8958 42.3021 33.6041 45.2917C33.4583 46.6042 33.0937 47.6979 32.6562 47.625C31.2708 47.5521 30.5417 43.7604 31.3437 40.6979C32 38.2917 31.8542 37.3437 30.7604 35.0833C29.9583 33.625 29.375 32.0208 29.375 31.4375C29.375 30.8542 28.7187 29.4687 27.8437 28.2292C25.9479 25.5312 26.3125 25.0937 29.4479 26.4792C30.8333 27.0625 33.5312 28.0833 35.5 28.8125C40.4583 30.5625 44.1042 34.0625 47.3854 40.4062C49.2083 43.9792 50.8125 46.0937 51.9792 46.6042C53 47.0417 54.75 48.1354 55.9167 49.0833L58.1041 50.7604L55.4062 51.2708C53.9479 51.5625 52.7083 52.1458 52.7083 52.5833C52.7083 53.3854 58.5416 59 59.4166 59C60.7291 59 59.8541 57.4687 57.4479 55.6458C56.0625 54.625 54.8958 53.4583 54.8958 53.1667C54.8958 52.875 56.0625 52.3646 57.4479 52.1458C58.8333 51.8542 60 51.3437 60 50.9792C60 50.0312 54.75 45.875 52.8542 45.3646C51.6875 45.0729 50.5937 43.7604 49.5 41.2083C45.8542 33.2604 40.0208 27.7187 33.9687 26.5521C32.5104 26.2604 30.6146 25.6042 29.8125 25.0208C28.2083 23.9271 26.3125 23.7083 25.5104 24.5104Z" fill="#EEEEEE"/>
<path d="M31.5625 29.5416C31.5625 30.2708 33.8229 32.1666 34.2604 31.8021C34.9896 31.0729 33.8229 29.1041 32.6562 29.1041C32.0729 29.1041 31.5625 29.3229 31.5625 29.5416Z" fill="#EEEEEE"/>
</g>
<path d="M18.5237 105.091H20.9421L24.1807 112.996H24.3085L27.5472 105.091H29.9655V116H28.0692V108.505H27.968L24.9531 115.968H23.5362L20.5212 108.489H20.42V116H18.5237V105.091ZM33.2308 119.068C32.968 119.068 32.7247 119.047 32.501 119.004C32.2808 118.965 32.1051 118.919 31.9737 118.866L32.4211 117.364C32.7016 117.445 32.952 117.484 33.1722 117.481C33.3923 117.477 33.5859 117.408 33.7528 117.273C33.9232 117.142 34.0671 116.922 34.1842 116.613L34.3494 116.17L31.3824 107.818H33.4279L35.3135 113.997H35.3987L37.2897 107.818H39.3405L36.0646 116.991C35.9119 117.424 35.7095 117.795 35.4573 118.104C35.2052 118.417 34.8962 118.654 34.5305 118.818C34.1683 118.985 33.735 119.068 33.2308 119.068ZM46.6887 108.09C46.639 107.625 46.4295 107.262 46.0601 107.003C45.6944 106.744 45.2185 106.614 44.6326 106.614C44.2206 106.614 43.8673 106.676 43.5726 106.801C43.2778 106.925 43.0523 107.094 42.8961 107.307C42.7398 107.52 42.6599 107.763 42.6564 108.037C42.6564 108.264 42.7079 108.461 42.8108 108.628C42.9174 108.795 43.0612 108.937 43.2423 109.054C43.4234 109.168 43.6241 109.263 43.8442 109.342C44.0644 109.42 44.2863 109.485 44.5101 109.539L45.5328 109.794C45.9447 109.89 46.3407 110.02 46.7206 110.183C47.1042 110.347 47.4469 110.553 47.7487 110.801C48.0541 111.05 48.2956 111.35 48.4731 111.701C48.6507 112.053 48.7395 112.465 48.7395 112.937C48.7395 113.576 48.5761 114.139 48.2494 114.626C47.9227 115.109 47.4504 115.487 46.8325 115.76C46.2182 116.03 45.4742 116.165 44.6006 116.165C43.7519 116.165 43.015 116.034 42.39 115.771C41.7686 115.508 41.2821 115.125 40.9305 114.62C40.5825 114.116 40.3943 113.502 40.3659 112.777H42.3101C42.3385 113.157 42.4557 113.473 42.6617 113.725C42.8677 113.978 43.1358 114.166 43.466 114.29C43.7998 114.414 44.1727 114.477 44.5846 114.477C45.0143 114.477 45.3907 114.413 45.7139 114.285C46.0406 114.153 46.2963 113.972 46.4809 113.741C46.6656 113.507 46.7597 113.234 46.7633 112.921C46.7597 112.637 46.6763 112.403 46.5129 112.218C46.3495 112.03 46.1205 111.874 45.8258 111.749C45.5346 111.621 45.1937 111.508 44.803 111.408L43.5619 111.089C42.6635 110.858 41.9532 110.508 41.4312 110.039C40.9128 109.567 40.6535 108.94 40.6535 108.159C40.6535 107.516 40.8275 106.953 41.1755 106.471C41.5271 105.988 42.0047 105.613 42.6084 105.347C43.2121 105.077 43.8957 104.942 44.6592 104.942C45.4334 104.942 46.1116 105.077 46.694 105.347C47.2799 105.613 47.7398 105.984 48.0736 106.46C48.4074 106.932 48.5797 107.475 48.5903 108.09H46.6887ZM54.5655 112.335H56.3553L57.4153 113.71L58.1717 114.604L59.9881 116.938H58.0705L56.8347 115.371L56.3074 114.626L54.5655 112.335ZM60.2491 110.545C60.2491 111.721 60.029 112.728 59.5886 113.566C59.1518 114.4 58.5552 115.039 57.7989 115.483C57.046 115.927 56.192 116.149 55.2367 116.149C54.2815 116.149 53.4256 115.927 52.6692 115.483C51.9164 115.036 51.3198 114.395 50.8795 113.56C50.4427 112.722 50.2243 111.717 50.2243 110.545C50.2243 109.37 50.4427 108.365 50.8795 107.531C51.3198 106.692 51.9164 106.051 52.6692 105.608C53.4256 105.164 54.2815 104.942 55.2367 104.942C56.192 104.942 57.046 105.164 57.7989 105.608C58.5552 106.051 59.1518 106.692 59.5886 107.531C60.029 108.365 60.2491 109.37 60.2491 110.545ZM58.2623 110.545C58.2623 109.718 58.1327 109.02 57.8734 108.452C57.6177 107.88 57.2626 107.449 56.8081 107.158C56.3535 106.863 55.8298 106.716 55.2367 106.716C54.6437 106.716 54.1199 106.863 53.6653 107.158C53.2108 107.449 52.8539 107.88 52.5947 108.452C52.339 109.02 52.2111 109.718 52.2111 110.545C52.2111 111.373 52.339 112.072 52.5947 112.644C52.8539 113.212 53.2108 113.644 53.6653 113.939C54.1199 114.23 54.6437 114.375 55.2367 114.375C55.8298 114.375 56.3535 114.23 56.8081 113.939C57.2626 113.644 57.6177 113.212 57.8734 112.644C58.1327 112.072 58.2623 111.373 58.2623 110.545ZM62.1321 116V105.091H64.1083V114.343H68.913V116H62.1321Z" fill="#9BA4B5"/>
<defs>
<clipPath id="clip0_164_279">
<rect width="35" height="35" fill="white" transform="translate(25 24)"/>
</clipPath>
</defs>
</svg>
