<svg width="104" height="123" viewBox="0 0 104 123" fill="none" xmlns="http://www.w3.org/2000/svg">
<path d="M14.2917 24.9484C15.471 11.469 27.3543 1.49769 40.8337 2.67699L70.7196 5.29166C84.1991 6.47097 94.1703 18.3543 92.991 31.8337L90.3764 61.7196C89.1971 75.1991 77.3138 85.1703 63.8343 83.991L33.9484 81.3764C20.469 80.1971 10.4977 68.3138 11.677 54.8343L14.2917 24.9484Z" fill="#D9D9D9" stroke="#D9D9D9"/>
<rect x="22.8338" y="13.834" width="59" height="59" rx="19.5" fill="#9BA4B5" stroke="#9BA4B5"/>
<path d="M51.9006 41.2727C51.9006 43.1761 51.5398 44.7955 50.8182 46.1307C50.1023 47.4659 49.125 48.4858 47.8864 49.1903C46.6534 49.8892 45.267 50.2386 43.7273 50.2386C42.1761 50.2386 40.7841 49.8864 39.5511 49.1818C38.3182 48.4773 37.3438 47.4574 36.6278 46.1222C35.9119 44.7869 35.554 43.1705 35.554 41.2727C35.554 39.3693 35.9119 37.75 36.6278 36.4148C37.3438 35.0795 38.3182 34.0625 39.5511 33.3636C40.7841 32.6591 42.1761 32.3068 43.7273 32.3068C45.267 32.3068 46.6534 32.6591 47.8864 33.3636C49.125 34.0625 50.1023 35.0795 50.8182 36.4148C51.5398 37.75 51.9006 39.3693 51.9006 41.2727ZM48.1591 41.2727C48.1591 40.0398 47.9744 39 47.6051 38.1534C47.2415 37.3068 46.7273 36.6648 46.0625 36.2273C45.3977 35.7898 44.6193 35.571 43.7273 35.571C42.8352 35.571 42.0568 35.7898 41.392 36.2273C40.7273 36.6648 40.2102 37.3068 39.8409 38.1534C39.4773 39 39.2955 40.0398 39.2955 41.2727C39.2955 42.5057 39.4773 43.5455 39.8409 44.392C40.2102 45.2386 40.7273 45.8807 41.392 46.3182C42.0568 46.7557 42.8352 46.9744 43.7273 46.9744C44.6193 46.9744 45.3977 46.7557 46.0625 46.3182C46.7273 45.8807 47.2415 45.2386 47.6051 44.392C47.9744 43.5455 48.1591 42.5057 48.1591 41.2727ZM54.6342 50V32.5455H61.5206C62.8445 32.5455 63.9723 32.7983 64.9041 33.304C65.8359 33.804 66.5462 34.5 67.0348 35.392C67.5291 36.2784 67.7763 37.3011 67.7763 38.4602C67.7763 39.6193 67.5263 40.642 67.0263 41.5284C66.5263 42.4148 65.8018 43.1051 64.853 43.5994C63.9098 44.0937 62.7678 44.3409 61.4268 44.3409H57.0376V41.3835H60.8303C61.5405 41.3835 62.1257 41.2614 62.5859 41.017C63.0518 40.767 63.3984 40.4233 63.6257 39.9858C63.8587 39.5426 63.9751 39.0341 63.9751 38.4602C63.9751 37.8807 63.8587 37.375 63.6257 36.9432C63.3984 36.5057 63.0518 36.1676 62.5859 35.929C62.12 35.6847 61.5291 35.5625 60.8132 35.5625H58.3246V50H54.6342Z" fill="#EEEEEE"/>
<path d="M11.3126 108.545C11.3126 109.721 11.0925 110.728 10.6521 111.566C10.2153 112.4 9.61874 113.039 8.86235 113.483C8.10951 113.927 7.25546 114.149 6.3002 114.149C5.34495 114.149 4.48912 113.927 3.73273 113.483C2.97989 113.036 2.3833 112.395 1.94296 111.56C1.50617 110.722 1.28778 109.717 1.28778 108.545C1.28778 107.37 1.50617 106.365 1.94296 105.531C2.3833 104.692 2.97989 104.051 3.73273 103.608C4.48912 103.164 5.34495 102.942 6.3002 102.942C7.25546 102.942 8.10951 103.164 8.86235 103.608C9.61874 104.051 10.2153 104.692 10.6521 105.531C11.0925 106.365 11.3126 107.37 11.3126 108.545ZM9.32577 108.545C9.32577 107.718 9.19616 107.02 8.93692 106.452C8.68124 105.88 8.32613 105.449 7.87158 105.158C7.41704 104.863 6.89324 104.716 6.3002 104.716C5.70716 104.716 5.18337 104.863 4.72883 105.158C4.27428 105.449 3.91739 105.88 3.65816 106.452C3.40248 107.02 3.27464 107.718 3.27464 108.545C3.27464 109.373 3.40248 110.072 3.65816 110.644C3.91739 111.212 4.27428 111.644 4.72883 111.939C5.18337 112.23 5.70716 112.375 6.3002 112.375C6.89324 112.375 7.41704 112.23 7.87158 111.939C8.32613 111.644 8.68124 111.212 8.93692 110.644C9.19616 110.072 9.32577 109.373 9.32577 108.545ZM13.0957 114V105.818H14.9654V107.182H15.0506C15.1998 106.71 15.4555 106.346 15.8177 106.09C16.1835 105.831 16.6007 105.701 17.0695 105.701C17.176 105.701 17.295 105.706 17.4264 105.717C17.5613 105.724 17.6732 105.737 17.7619 105.754V107.528C17.6803 107.5 17.5506 107.475 17.3731 107.453C17.1991 107.429 17.0304 107.416 16.8671 107.416C16.5155 107.416 16.1994 107.493 15.9189 107.645C15.6419 107.794 15.4235 108.002 15.2637 108.268C15.1039 108.535 15.024 108.842 15.024 109.19V114H13.0957ZM28.466 106.772H26.4738C26.4169 106.445 26.3122 106.156 26.1595 105.903C26.0068 105.648 25.8168 105.431 25.5895 105.254C25.3623 105.076 25.103 104.943 24.8118 104.854C24.5242 104.762 24.2135 104.716 23.8797 104.716C23.2866 104.716 22.7611 104.865 22.303 105.163C21.8449 105.458 21.4862 105.891 21.227 106.463C20.9677 107.031 20.8381 107.725 20.8381 108.545C20.8381 109.38 20.9677 110.083 21.227 110.655C21.4897 111.223 21.8484 111.653 22.303 111.944C22.7611 112.232 23.2848 112.375 23.8743 112.375C24.201 112.375 24.5064 112.333 24.7905 112.248C25.0782 112.159 25.3356 112.029 25.5629 111.859C25.7937 111.688 25.9873 111.479 26.1435 111.23C26.3033 110.982 26.4134 110.697 26.4738 110.378L28.466 110.388C28.3914 110.907 28.2298 111.393 27.9812 111.848C27.7362 112.303 27.4148 112.704 27.0171 113.052C26.6194 113.396 26.1542 113.666 25.6215 113.862C25.0888 114.053 24.4976 114.149 23.8477 114.149C22.8889 114.149 22.0331 113.927 21.2802 113.483C20.5274 113.039 19.9343 112.398 19.5011 111.56C19.0679 110.722 18.8513 109.717 18.8513 108.545C18.8513 107.37 19.0696 106.365 19.5064 105.531C19.9432 104.692 20.538 104.051 21.2909 103.608C22.0437 103.164 22.896 102.942 23.8477 102.942C24.4549 102.942 25.0196 103.027 25.5416 103.197C26.0636 103.368 26.5288 103.618 26.9372 103.949C27.3456 104.275 27.6812 104.676 27.9439 105.152C28.2103 105.625 28.3843 106.164 28.466 106.772ZM31.5448 114H29.4354L33.276 103.091H35.7156L39.5615 114H37.4521L34.5384 105.328H34.4532L31.5448 114ZM31.614 109.723H37.3669V111.31H31.614V109.723ZM44.6951 114H40.9984V103.091H44.7697C45.8528 103.091 46.7832 103.309 47.5609 103.746C48.3421 104.179 48.9423 104.803 49.3613 105.616C49.7803 106.429 49.9898 107.402 49.9898 108.535C49.9898 109.671 49.7785 110.648 49.356 111.464C48.9369 112.281 48.3315 112.908 47.5396 113.345C46.7512 113.782 45.803 114 44.6951 114ZM42.9746 112.29H44.5992C45.3592 112.29 45.993 112.152 46.5008 111.875C47.0087 111.594 47.3904 111.177 47.6461 110.623C47.9018 110.065 48.0296 109.369 48.0296 108.535C48.0296 107.7 47.9018 107.008 47.6461 106.457C47.3904 105.903 47.0122 105.49 46.5115 105.216C46.0143 104.939 45.3964 104.801 44.6578 104.801H42.9746V112.29ZM55.5882 114V103.091H59.6791C60.5172 103.091 61.2203 103.247 61.7885 103.56C62.3602 103.872 62.7917 104.302 63.0829 104.849C63.3776 105.392 63.525 106.01 63.525 106.702C63.525 107.402 63.3776 108.023 63.0829 108.567C62.7881 109.11 62.3531 109.538 61.7778 109.85C61.2025 110.159 60.4941 110.314 59.6525 110.314H56.9412V108.689H59.3861C59.8762 108.689 60.2775 108.604 60.59 108.434C60.9025 108.263 61.1333 108.029 61.2824 107.73C61.4351 107.432 61.5115 107.089 61.5115 106.702C61.5115 106.315 61.4351 105.974 61.2824 105.68C61.1333 105.385 60.9007 105.156 60.5847 104.993C60.2722 104.826 59.8691 104.742 59.3755 104.742H57.5644V114H55.5882ZM71.6229 107.981L69.8651 108.173C69.8154 107.995 69.7284 107.828 69.6041 107.672C69.4834 107.516 69.32 107.39 69.114 107.294C68.9081 107.198 68.6559 107.15 68.3576 107.15C67.9564 107.15 67.619 107.237 67.3456 107.411C67.0757 107.585 66.9425 107.81 66.9461 108.087C66.9425 108.325 67.0295 108.519 67.2071 108.668C67.3882 108.817 67.6865 108.94 68.102 109.036L69.4976 109.334C70.2717 109.501 70.847 109.765 71.2234 110.127C71.6034 110.49 71.7951 110.964 71.7987 111.55C71.7951 112.065 71.6442 112.519 71.3459 112.913C71.0512 113.304 70.641 113.609 70.1155 113.83C69.5899 114.05 68.9862 114.16 68.3044 114.16C67.303 114.16 66.4968 113.95 65.8861 113.531C65.2753 113.109 64.9113 112.521 64.7941 111.768L66.6744 111.587C66.7596 111.956 66.9407 112.235 67.2177 112.423C67.4947 112.612 67.8552 112.706 68.2991 112.706C68.7571 112.706 69.1247 112.612 69.4017 112.423C69.6822 112.235 69.8225 112.002 69.8225 111.725C69.8225 111.491 69.7319 111.298 69.5508 111.145C69.3733 110.992 69.0963 110.875 68.7199 110.793L67.3243 110.5C66.5395 110.337 65.9589 110.062 65.5824 109.675C65.206 109.284 65.0196 108.79 65.0231 108.194C65.0196 107.69 65.1563 107.253 65.4333 106.884C65.7138 106.511 66.1027 106.223 66.5998 106.021C67.1005 105.815 67.6776 105.712 68.331 105.712C69.2898 105.712 70.0444 105.916 70.5949 106.324C71.1488 106.733 71.4915 107.285 71.6229 107.981ZM73.4739 114V103.091H77.5649C78.4029 103.091 79.106 103.247 79.6742 103.56C80.246 103.872 80.6774 104.302 80.9686 104.849C81.2634 105.392 81.4107 106.01 81.4107 106.702C81.4107 107.402 81.2634 108.023 80.9686 108.567C80.6739 109.11 80.2389 109.538 79.6636 109.85C79.0883 110.159 78.3798 110.314 77.5382 110.314H74.8269V108.689H77.2719C77.7619 108.689 78.1632 108.604 78.4757 108.434C78.7882 108.263 79.019 108.029 79.1682 107.73C79.3209 107.432 79.3972 107.089 79.3972 106.702C79.3972 106.315 79.3209 105.974 79.1682 105.68C79.019 105.385 78.7864 105.156 78.4704 104.993C78.1579 104.826 77.7548 104.742 77.2612 104.742H75.4502V114H73.4739ZM83.042 114V105.818H84.9703V114H83.042ZM84.0115 104.657C83.7061 104.657 83.4433 104.556 83.2231 104.353C83.003 104.147 82.8929 103.901 82.8929 103.613C82.8929 103.322 83.003 103.075 83.2231 102.873C83.4433 102.667 83.7061 102.564 84.0115 102.564C84.3204 102.564 84.5832 102.667 84.7998 102.873C85.02 103.075 85.1301 103.322 85.1301 103.613C85.1301 103.901 85.02 104.147 84.7998 104.353C84.5832 104.556 84.3204 104.657 84.0115 104.657ZM90.5221 114.16C89.7053 114.16 89.004 113.98 88.418 113.622C87.8356 113.263 87.3864 112.768 87.0704 112.136C86.7579 111.5 86.6016 110.768 86.6016 109.941C86.6016 109.11 86.7614 108.377 87.081 107.741C87.4006 107.102 87.8516 106.605 88.434 106.25C89.0199 105.891 89.7124 105.712 90.5114 105.712C91.1755 105.712 91.7632 105.834 92.2745 106.079C92.7895 106.321 93.1996 106.663 93.505 107.107C93.8104 107.548 93.9844 108.062 94.027 108.652H92.184C92.1094 108.258 91.9319 107.929 91.6513 107.667C91.3743 107.4 91.0032 107.267 90.538 107.267C90.1439 107.267 89.7976 107.374 89.4993 107.587C89.201 107.796 88.9684 108.098 88.8015 108.492C88.6382 108.886 88.5565 109.359 88.5565 109.909C88.5565 110.467 88.6382 110.946 88.8015 111.347C88.9649 111.745 89.1939 112.052 89.4887 112.269C89.787 112.482 90.1368 112.588 90.538 112.588C90.8221 112.588 91.076 112.535 91.2998 112.429C91.527 112.319 91.717 112.161 91.8697 111.955C92.0224 111.749 92.1272 111.498 92.184 111.203H94.027C93.9809 111.782 93.8104 112.295 93.5157 112.743C93.2209 113.187 92.8196 113.535 92.3118 113.787C91.804 114.036 91.2074 114.16 90.5221 114.16ZM99.2326 114.16C98.4122 114.16 97.7038 113.989 97.1072 113.648C96.5142 113.304 96.0578 112.817 95.7382 112.189C95.4186 111.557 95.2588 110.813 95.2588 109.957C95.2588 109.115 95.4186 108.377 95.7382 107.741C96.0614 107.102 96.5124 106.605 97.0912 106.25C97.6701 105.891 98.3501 105.712 99.1313 105.712C99.6356 105.712 100.111 105.793 100.559 105.957C101.01 106.116 101.408 106.365 101.752 106.702C102.1 107.04 102.374 107.469 102.572 107.991C102.771 108.51 102.871 109.128 102.871 109.845V110.436H96.1644V109.137H101.022C101.019 108.767 100.939 108.439 100.783 108.151C100.626 107.86 100.408 107.631 100.127 107.464C99.8505 107.297 99.5273 107.214 99.158 107.214C98.7638 107.214 98.4176 107.31 98.1193 107.501C97.821 107.69 97.5884 107.938 97.4215 108.247C97.2581 108.553 97.1747 108.888 97.1711 109.254V110.388C97.1711 110.864 97.2581 111.273 97.4321 111.614C97.6061 111.951 97.8494 112.21 98.1619 112.391C98.4744 112.569 98.8402 112.658 99.2592 112.658C99.5397 112.658 99.7936 112.619 100.021 112.54C100.248 112.459 100.445 112.34 100.612 112.184C100.779 112.027 100.905 111.834 100.99 111.603L102.791 111.805C102.677 112.281 102.461 112.697 102.141 113.052C101.825 113.403 101.42 113.677 100.926 113.872C100.433 114.064 99.8682 114.16 99.2326 114.16Z" fill="#9BA4B5"/>
</svg>
