<svg width="87" height="124" viewBox="0 0 87 124" fill="none" xmlns="http://www.w3.org/2000/svg">
<path d="M5.29168 24.9484C6.47098 11.469 18.3543 1.49769 31.8338 2.67699L61.7196 5.29166C75.1991 6.47097 85.1704 18.3543 83.9911 31.8337L81.3764 61.7196C80.1971 75.1991 68.3138 85.1703 54.8343 83.991L24.9485 81.3764C11.469 80.1971 1.4977 68.3138 2.677 54.8343L5.29168 24.9484Z" fill="#D9D9D9" stroke="#D9D9D9"/>
<rect x="13.8338" y="13.834" width="59" height="59" rx="19.5" fill="#9BA4B5" stroke="#9BA4B5"/>
<g clip-path="url(#clip0_168_363)">
<path d="M33.4987 34.9358V36.0715H34.3315H35.1644V34.9358V33.8001H34.3315H33.4987V34.9358Z" fill="#EEEEEE"/>
<path d="M41.5711 33.8388C41.5264 33.8942 41.5386 44.7363 41.5833 45.3125C41.7174 47.0521 42.5624 48.4095 43.7853 48.8471C43.9722 48.9136 44.2444 48.9358 44.7928 48.9413L45.5444 48.9524L45.5566 47.8056L45.5647 46.6643L44.9269 46.6421C44.3338 46.6255 44.2687 46.6144 44.0616 46.4815C43.7772 46.2931 43.509 45.933 43.375 45.5452L43.2693 45.2405L43.2571 43.041L43.245 40.836L44.3947 40.825L45.5444 40.8083L45.5566 39.656L45.5647 38.5092H44.4069H43.249V36.1546V33.8H42.4243C41.9693 33.8 41.5833 33.8167 41.5711 33.8388Z" fill="#EEEEEE"/>
<path d="M28.4203 38.271C27.9977 38.3651 27.4533 38.7419 27.104 39.1851L26.8399 39.512L26.653 39.0632L26.462 38.62H26.1005H25.7389V46.21V53.8H26.5921H27.4452V51.3347C27.4452 49.6726 27.4574 48.8693 27.4858 48.8693C27.5102 48.8693 27.6159 48.9302 27.7215 49.0023C28.1196 49.2793 28.3146 49.3236 29.1597 49.3513C29.8138 49.3735 30.0128 49.3624 30.2647 49.2848C31.1179 49.03 31.8207 48.1602 32.1092 47.0133L32.2189 46.5701V43.8277C32.2189 41.3181 32.2107 41.0577 32.1457 40.753C31.9182 39.7613 31.4957 39.0521 30.8538 38.5923C30.4313 38.2876 30.1794 38.2322 29.2937 38.2433C28.8712 38.2433 28.4771 38.2599 28.4203 38.271ZM29.9072 40.6809C30.025 40.764 30.1835 40.9358 30.2647 41.0632C30.5288 41.4898 30.5369 41.5729 30.5247 43.8887C30.5125 45.9053 30.5085 45.9663 30.4232 46.1879C30.2972 46.5147 30.1022 46.7585 29.8503 46.9136C29.6472 47.0466 29.6066 47.0466 28.9159 47.03C28.2171 47.0133 28.1928 47.0078 28.0099 46.8638C27.7824 46.6809 27.628 46.4427 27.5102 46.0992C27.429 45.861 27.4249 45.7613 27.4249 43.7723C27.4249 41.7169 27.4249 41.6892 27.5183 41.4455C27.6809 41.0078 27.884 40.753 28.1846 40.6034C28.3674 40.5203 28.5015 40.5036 29.05 40.5203C29.6675 40.5314 29.7122 40.5424 29.9072 40.6809Z" fill="#EEEEEE"/>
<path d="M56.9401 38.271C56.4932 38.3707 55.9488 38.753 55.5953 39.2128C55.3394 39.5452 55.3637 39.5563 55.1525 39.0355C55.0753 38.8527 54.9981 38.6865 54.9737 38.6643C54.9494 38.6422 54.7787 38.62 54.5959 38.62H54.2587V46.21V53.8H55.0915H55.9244V51.3624C55.9244 49.3236 55.9325 48.9136 55.9813 48.8915C56.0138 48.8748 56.1275 48.9247 56.2332 48.9967C56.6435 49.2793 56.8304 49.3236 57.6957 49.3513C58.4311 49.379 58.5448 49.3679 58.8495 49.2627C59.7189 48.9635 60.3852 48.0715 60.6655 46.8416C60.7305 46.5424 60.7387 46.2765 60.7387 43.8554C60.7387 40.897 60.7387 40.9025 60.4665 40.1158C60.1618 39.2405 59.4589 38.487 58.7764 38.2931C58.5773 38.2377 57.1635 38.2211 56.9401 38.271ZM58.4433 40.7031C58.5651 40.7973 58.7276 40.9801 58.7967 41.1075C59.0364 41.5286 59.0527 41.7003 59.0527 43.8C59.0527 45.9718 59.0364 46.1103 58.7561 46.5258C58.4473 46.9856 58.3701 47.0133 57.4885 47.0133C56.611 47.0133 56.5257 46.9801 56.2332 46.5424C55.9406 46.0992 55.9447 46.1491 55.9447 43.7945V41.6892L56.0666 41.3624C56.2088 40.9856 56.4079 40.7474 56.7044 40.6089C56.8873 40.5203 57.0213 40.5036 57.5698 40.5147C58.2117 40.5313 58.2239 40.5313 58.4433 40.7031Z" fill="#EEEEEE"/>
<path d="M48.6033 38.3762C47.9858 38.5757 47.3926 39.2128 47.0961 39.9829C46.832 40.6809 46.8239 40.7696 46.8239 43.7779C46.8239 45.4455 46.8401 46.5923 46.8685 46.7973C46.9376 47.3236 47.1936 47.9884 47.4861 48.3928C47.7664 48.7806 48.002 48.9856 48.4042 49.1962C48.6602 49.3236 48.7211 49.3347 49.7205 49.3568C50.9475 49.3845 51.1709 49.3457 51.6584 49.0244C52.2719 48.6255 52.7269 47.8665 52.8976 46.9579C52.9463 46.6865 52.9585 46.1546 52.9585 43.8444C52.9585 42.0438 52.9423 40.9579 52.9138 40.7696C52.8285 40.21 52.6091 39.6837 52.2719 39.2294C51.9144 38.7474 51.6706 38.548 51.2278 38.3984C50.9515 38.2987 50.785 38.2876 49.8749 38.2931C49.1396 38.2931 48.7658 38.3208 48.6033 38.3762ZM50.6468 40.5424C50.8947 40.692 51.1181 41.0078 51.2481 41.3845L51.3537 41.6948V43.8277C51.3537 45.8776 51.3497 45.9718 51.2684 46.2156C51.1547 46.548 50.9597 46.8471 50.7281 47.03C50.5453 47.174 50.525 47.1795 49.9115 47.1795C49.3671 47.1795 49.2615 47.1629 49.1193 47.0687C48.9121 46.9302 48.6846 46.6034 48.5667 46.2765C48.4692 46.0161 48.4692 46.0161 48.4692 43.8C48.4692 41.6061 48.4692 41.584 48.5627 41.3513C48.7536 40.8582 49.038 40.5424 49.3833 40.4427C49.4605 40.4205 49.7368 40.4039 49.9927 40.415C50.3584 40.4261 50.5006 40.4538 50.6468 40.5424Z" fill="#EEEEEE"/>
<path d="M33.5187 38.5757C33.5065 38.6145 33.5025 40.9635 33.5065 43.8L33.5187 48.9524L34.3434 48.969L35.1641 48.9801V43.7446V38.5092H34.3516C33.7381 38.5092 33.5309 38.5258 33.5187 38.5757Z" fill="#EEEEEE"/>
<path d="M36.4235 43.8001V44.9358H38.3532H40.283V43.8001V42.6643H38.3532H36.4235V43.8001Z" fill="#EEEEEE"/>
</g>
<path d="M19.5286 115V104.091H23.6195C24.4576 104.091 25.1607 104.247 25.7289 104.56C26.3006 104.872 26.7321 105.302 27.0233 105.849C27.318 106.392 27.4654 107.01 27.4654 107.702C27.4654 108.402 27.318 109.023 27.0233 109.567C26.7286 110.11 26.2935 110.538 25.7183 110.85C25.143 111.159 24.4345 111.314 23.5929 111.314H20.8816V109.689H23.3266C23.8166 109.689 24.2179 109.604 24.5304 109.434C24.8429 109.263 25.0737 109.029 25.2229 108.73C25.3756 108.432 25.4519 108.089 25.4519 107.702C25.4519 107.315 25.3756 106.974 25.2229 106.68C25.0737 106.385 24.8411 106.156 24.5251 105.993C24.2126 105.826 23.8095 105.742 23.3159 105.742H21.5048V115H19.5286ZM29.0967 115V106.818H31.025V115H29.0967ZM30.0662 105.657C29.7608 105.657 29.498 105.556 29.2778 105.353C29.0577 105.147 28.9476 104.901 28.9476 104.613C28.9476 104.322 29.0577 104.075 29.2778 103.873C29.498 103.667 29.7608 103.564 30.0662 103.564C30.3751 103.564 30.6379 103.667 30.8545 103.873C31.0747 104.075 31.1848 104.322 31.1848 104.613C31.1848 104.901 31.0747 105.147 30.8545 105.353C30.6379 105.556 30.3751 105.657 30.0662 105.657ZM37.967 109.663V111.25H33.0558V109.663H37.967ZM38.9272 105.748V104.091H47.631V105.748H44.2592V115H42.299V105.748H38.9272ZM51.606 115.16C50.807 115.16 50.1146 114.984 49.5286 114.632C48.9427 114.281 48.4881 113.789 48.165 113.157C47.8454 112.525 47.6856 111.786 47.6856 110.941C47.6856 110.096 47.8454 109.355 48.165 108.72C48.4881 108.084 48.9427 107.591 49.5286 107.239C50.1146 106.887 50.807 106.712 51.606 106.712C52.4051 106.712 53.0975 106.887 53.6835 107.239C54.2694 107.591 54.7222 108.084 55.0418 108.72C55.3649 109.355 55.5265 110.096 55.5265 110.941C55.5265 111.786 55.3649 112.525 55.0418 113.157C54.7222 113.789 54.2694 114.281 53.6835 114.632C53.0975 114.984 52.4051 115.16 51.606 115.16ZM51.6167 113.615C52.0499 113.615 52.4122 113.496 52.7033 113.258C52.9945 113.017 53.2112 112.694 53.3532 112.289C53.4988 111.884 53.5716 111.433 53.5716 110.936C53.5716 110.435 53.4988 109.982 53.3532 109.577C53.2112 109.169 52.9945 108.844 52.7033 108.603C52.4122 108.361 52.0499 108.24 51.6167 108.24C51.1728 108.24 50.8035 108.361 50.5087 108.603C50.2176 108.844 49.9992 109.169 49.8536 109.577C49.7115 109.982 49.6405 110.435 49.6405 110.936C49.6405 111.433 49.7115 111.884 49.8536 112.289C49.9992 112.694 50.2176 113.017 50.5087 113.258C50.8035 113.496 51.1728 113.615 51.6167 113.615ZM57.1631 118.068V106.818H59.0594V108.171H59.1713C59.2707 107.972 59.411 107.761 59.5921 107.537C59.7732 107.31 60.0182 107.116 60.3272 106.957C60.6361 106.793 61.0303 106.712 61.5097 106.712C62.1418 106.712 62.7118 106.873 63.2196 107.196C63.731 107.516 64.1358 107.99 64.4341 108.619C64.7359 109.244 64.8869 110.011 64.8869 110.92C64.8869 111.818 64.7395 112.582 64.4447 113.21C64.15 113.839 63.7487 114.318 63.2409 114.648C62.7331 114.979 62.1578 115.144 61.515 115.144C61.0463 115.144 60.6574 115.066 60.3485 114.909C60.0396 114.753 59.791 114.565 59.6028 114.345C59.4181 114.121 59.2743 113.91 59.1713 113.711H59.0914V118.068H57.1631ZM59.0541 110.909C59.0541 111.438 59.1287 111.902 59.2778 112.299C59.4305 112.697 59.6489 113.008 59.933 113.232C60.2207 113.452 60.5687 113.562 60.9771 113.562C61.4032 113.562 61.7601 113.448 62.0477 113.221C62.3354 112.99 62.552 112.676 62.6976 112.278C62.8467 111.877 62.9213 111.42 62.9213 110.909C62.9213 110.401 62.8485 109.95 62.7029 109.556C62.5573 109.162 62.3407 108.853 62.053 108.629C61.7654 108.406 61.4067 108.294 60.9771 108.294C60.5651 108.294 60.2153 108.402 59.9277 108.619C59.64 108.835 59.4217 109.139 59.2725 109.529C59.1269 109.92 59.0541 110.38 59.0541 110.909Z" fill="#9BA4B5"/>
<defs>
<clipPath id="clip0_168_363">
<rect width="35" height="30" fill="white" transform="translate(25 28)"/>
</clipPath>
</defs>
</svg>
