<svg width="94" height="123" viewBox="0 0 94 123" fill="none" xmlns="http://www.w3.org/2000/svg">
<path d="M35.8337 2.67699L65.7196 5.29166C79.1991 6.47097 89.1703 18.3543 87.991 31.8337L85.3764 61.7196C84.1971 75.1991 72.3138 85.1703 58.8343 83.991L28.9484 81.3764C15.4689 80.1971 5.49767 68.3138 6.67697 54.8343L9.29165 24.9484C10.4709 11.469 22.3542 1.49769 35.8337 2.67699Z" fill="#D9D9D9" stroke="#D9D9D9"/>
<rect x="17.8338" y="13.834" width="59" height="59" rx="19.5" fill="#9BA4B5" stroke="#9BA4B5"/>
<path d="M1.55988 114V103.091H5.65079C6.48886 103.091 7.19198 103.247 7.76017 103.56C8.3319 103.872 8.76336 104.302 9.05455 104.849C9.3493 105.392 9.49667 106.01 9.49667 106.702C9.49667 107.402 9.3493 108.023 9.05455 108.567C8.75981 109.11 8.3248 109.538 7.74951 109.85C7.17423 110.159 6.46578 110.314 5.62416 110.314H2.91286V108.689H5.35782C5.84788 108.689 6.24916 108.604 6.56166 108.434C6.87416 108.263 7.10498 108.029 7.25413 107.73C7.40683 107.432 7.48318 107.089 7.48318 106.702C7.48318 106.315 7.40683 105.974 7.25413 105.68C7.10498 105.385 6.87238 105.156 6.55633 104.993C6.24383 104.826 5.84078 104.742 5.34717 104.742H3.53609V114H1.55988ZM11.128 114V105.818H12.9976V107.182H13.0829C13.232 106.71 13.4877 106.346 13.8499 106.09C14.2157 105.831 14.6329 105.701 15.1017 105.701C15.2082 105.701 15.3272 105.706 15.4586 105.717C15.5935 105.724 15.7054 105.737 15.7942 105.754V107.528C15.7125 107.5 15.5829 107.475 15.4053 107.453C15.2313 107.429 15.0626 107.416 14.8993 107.416C14.5477 107.416 14.2317 107.493 13.9511 107.645C13.6741 107.794 13.4557 108.002 13.2959 108.268C13.1361 108.535 13.0562 108.842 13.0562 109.19V114H11.128ZM20.3605 114.16C19.5402 114.16 18.8317 113.989 18.2351 113.648C17.6421 113.304 17.1858 112.817 16.8662 112.189C16.5466 111.557 16.3868 110.813 16.3868 109.957C16.3868 109.115 16.5466 108.377 16.8662 107.741C17.1893 107.102 17.6403 106.605 18.2191 106.25C18.798 105.891 19.478 105.712 20.2593 105.712C20.7635 105.712 21.2394 105.793 21.6868 105.957C22.1378 106.116 22.5356 106.365 22.88 106.702C23.228 107.04 23.5015 107.469 23.7003 107.991C23.8992 108.51 23.9986 109.128 23.9986 109.845V110.436H17.2923V109.137H22.1503C22.1467 108.767 22.0668 108.439 21.9106 108.151C21.7543 107.86 21.5359 107.631 21.2554 107.464C20.9784 107.297 20.6552 107.214 20.2859 107.214C19.8917 107.214 19.5455 107.31 19.2472 107.501C18.9489 107.69 18.7163 107.938 18.5494 108.247C18.3861 108.553 18.3026 108.888 18.2991 109.254V110.388C18.2991 110.864 18.3861 111.273 18.5601 111.614C18.7341 111.951 18.9773 112.21 19.2898 112.391C19.6023 112.569 19.9681 112.658 20.3871 112.658C20.6677 112.658 20.9216 112.619 21.1488 112.54C21.3761 112.459 21.5732 112.34 21.7401 112.184C21.907 112.027 22.0331 111.834 22.1183 111.603L23.9187 111.805C23.8051 112.281 23.5885 112.697 23.2689 113.052C22.9528 113.403 22.548 113.677 22.0544 113.872C21.5608 114.064 20.9961 114.16 20.3605 114.16ZM25.6299 114V105.818H27.473V107.208H27.5688C27.7393 106.74 28.0216 106.374 28.4158 106.111C28.81 105.845 29.2805 105.712 29.8274 105.712C30.3813 105.712 30.8483 105.847 31.2283 106.116C31.6118 106.383 31.8817 106.747 32.038 107.208H32.1232C32.3043 106.754 32.6097 106.392 33.0394 106.122C33.4726 105.848 33.9858 105.712 34.5788 105.712C35.3316 105.712 35.946 105.95 36.4218 106.425C36.8977 106.901 37.1356 107.596 37.1356 108.508V114H35.202V108.806C35.202 108.299 35.0671 107.928 34.7972 107.693C34.5273 107.455 34.197 107.336 33.8064 107.336C33.3412 107.336 32.9772 107.482 32.7144 107.773C32.4552 108.061 32.3256 108.435 32.3256 108.897V114H30.4346V108.727C30.4346 108.304 30.3068 107.967 30.0511 107.714C29.799 107.462 29.4687 107.336 29.0603 107.336C28.7833 107.336 28.5312 107.407 28.3039 107.549C28.0767 107.688 27.8956 107.885 27.7606 108.141C27.6257 108.393 27.5582 108.687 27.5582 109.025V114H25.6299ZM39.0918 114V105.818H41.0201V114H39.0918ZM40.0613 104.657C39.7559 104.657 39.4931 104.556 39.2729 104.353C39.0528 104.147 38.9427 103.901 38.9427 103.613C38.9427 103.322 39.0528 103.075 39.2729 102.873C39.4931 102.667 39.7559 102.564 40.0613 102.564C40.3703 102.564 40.633 102.667 40.8497 102.873C41.0698 103.075 41.1799 103.322 41.1799 103.613C41.1799 103.901 41.0698 104.147 40.8497 104.353C40.633 104.556 40.3703 104.657 40.0613 104.657ZM46.6251 114.16C45.8048 114.16 45.0964 113.989 44.4998 113.648C43.9067 113.304 43.4504 112.817 43.1308 112.189C42.8112 111.557 42.6514 110.813 42.6514 109.957C42.6514 109.115 42.8112 108.377 43.1308 107.741C43.454 107.102 43.905 106.605 44.4838 106.25C45.0626 105.891 45.7427 105.712 46.5239 105.712C47.0282 105.712 47.504 105.793 47.9515 105.957C48.4025 106.116 48.8002 106.365 49.1447 106.702C49.4927 107.04 49.7661 107.469 49.965 107.991C50.1638 108.51 50.2633 109.128 50.2633 109.845V110.436H43.557V109.137H48.4149C48.4114 108.767 48.3315 108.439 48.1752 108.151C48.019 107.86 47.8006 107.631 47.52 107.464C47.243 107.297 46.9199 107.214 46.5506 107.214C46.1564 107.214 45.8101 107.31 45.5119 107.501C45.2136 107.69 44.981 107.938 44.8141 108.247C44.6507 108.553 44.5672 108.888 44.5637 109.254V110.388C44.5637 110.864 44.6507 111.273 44.8247 111.614C44.9987 111.951 45.242 112.21 45.5545 112.391C45.867 112.569 46.2327 112.658 46.6518 112.658C46.9323 112.658 47.1862 112.619 47.4135 112.54C47.6408 112.459 47.8378 112.34 48.0047 112.184C48.1717 112.027 48.2977 111.834 48.3829 111.603L50.1834 111.805C50.0697 112.281 49.8531 112.697 49.5335 113.052C49.2175 113.403 48.8126 113.677 48.319 113.872C47.8254 114.064 47.2608 114.16 46.6251 114.16ZM51.8946 114V105.818H53.7642V107.182H53.8495C53.9986 106.71 54.2543 106.346 54.6165 106.09C54.9823 105.831 55.3995 105.701 55.8683 105.701C55.9748 105.701 56.0938 105.706 56.2252 105.717C56.3601 105.724 56.472 105.737 56.5608 105.754V107.528C56.4791 107.5 56.3495 107.475 56.1719 107.453C55.9979 107.429 55.8292 107.416 55.6659 107.416C55.3143 107.416 54.9983 107.493 54.7177 107.645C54.4407 107.794 54.2223 108.002 54.0625 108.268C53.9027 108.535 53.8228 108.842 53.8228 109.19V114H51.8946ZM61.1271 114.16C60.3068 114.16 59.5983 113.989 59.0017 113.648C58.4087 113.304 57.9524 112.817 57.6328 112.189C57.3132 111.557 57.1534 110.813 57.1534 109.957C57.1534 109.115 57.3132 108.377 57.6328 107.741C57.9559 107.102 58.4069 106.605 58.9858 106.25C59.5646 105.891 60.2446 105.712 61.0259 105.712C61.5301 105.712 62.006 105.793 62.4534 105.957C62.9044 106.116 63.3022 106.365 63.6466 106.702C63.9946 107.04 64.2681 107.469 64.4669 107.991C64.6658 108.51 64.7652 109.128 64.7652 109.845V110.436H58.0589V109.137H62.9169C62.9133 108.767 62.8334 108.439 62.6772 108.151C62.5209 107.86 62.3025 107.631 62.022 107.464C61.745 107.297 61.4218 107.214 61.0525 107.214C60.6583 107.214 60.3121 107.31 60.0138 107.501C59.7155 107.69 59.4829 107.938 59.316 108.247C59.1527 108.553 59.0692 108.888 59.0657 109.254V110.388C59.0657 110.864 59.1527 111.273 59.3267 111.614C59.5007 111.951 59.7439 112.21 60.0564 112.391C60.3689 112.569 60.7347 112.658 61.1537 112.658C61.4343 112.658 61.6882 112.619 61.9154 112.54C62.1427 112.459 62.3398 112.34 62.5067 112.184C62.6736 112.027 62.7997 111.834 62.8849 111.603L64.6853 111.805C64.5717 112.281 64.3551 112.697 64.0355 113.052C63.7194 113.403 63.3146 113.677 62.821 113.872C62.3274 114.064 61.7627 114.16 61.1271 114.16ZM70.2025 114V103.091H74.2934C75.1314 103.091 75.8346 103.247 76.4027 103.56C76.9745 103.872 77.4059 104.302 77.6971 104.849C77.9919 105.392 78.1392 106.01 78.1392 106.702C78.1392 107.402 77.9919 108.023 77.6971 108.567C77.4024 109.11 76.9674 109.538 76.3921 109.85C75.8168 110.159 75.1084 110.314 74.2667 110.314H71.5554V108.689H74.0004C74.4905 108.689 74.8917 108.604 75.2042 108.434C75.5167 108.263 75.7476 108.029 75.8967 107.73C76.0494 107.432 76.1258 107.089 76.1258 106.702C76.1258 106.315 76.0494 105.974 75.8967 105.68C75.7476 105.385 75.515 105.156 75.1989 104.993C74.8864 104.826 74.4834 104.742 73.9897 104.742H72.1787V114H70.2025ZM79.7706 114V105.818H81.6402V107.182H81.7255C81.8746 106.71 82.1303 106.346 82.4925 106.09C82.8583 105.831 83.2755 105.701 83.7443 105.701C83.8508 105.701 83.9698 105.706 84.1012 105.717C84.2361 105.724 84.348 105.737 84.4367 105.754V107.528C84.3551 107.5 84.2255 107.475 84.0479 107.453C83.8739 107.429 83.7052 107.416 83.5419 107.416C83.1903 107.416 82.8742 107.493 82.5937 107.645C82.3167 107.794 82.0983 108.002 81.9385 108.268C81.7787 108.535 81.6988 108.842 81.6988 109.19V114H79.7706ZM88.9498 114.16C88.1508 114.16 87.4583 113.984 86.8724 113.632C86.2864 113.281 85.8319 112.789 85.5087 112.157C85.1891 111.525 85.0293 110.786 85.0293 109.941C85.0293 109.096 85.1891 108.355 85.5087 107.72C85.8319 107.084 86.2864 106.591 86.8724 106.239C87.4583 105.887 88.1508 105.712 88.9498 105.712C89.7488 105.712 90.4413 105.887 91.0272 106.239C91.6131 106.591 92.0659 107.084 92.3855 107.72C92.7087 108.355 92.8703 109.096 92.8703 109.941C92.8703 110.786 92.7087 111.525 92.3855 112.157C92.0659 112.789 91.6131 113.281 91.0272 113.632C90.4413 113.984 89.7488 114.16 88.9498 114.16ZM88.9604 112.615C89.3937 112.615 89.7559 112.496 90.0471 112.258C90.3383 112.017 90.5549 111.694 90.697 111.289C90.8426 110.884 90.9153 110.433 90.9153 109.936C90.9153 109.435 90.8426 108.982 90.697 108.577C90.5549 108.169 90.3383 107.844 90.0471 107.603C89.7559 107.361 89.3937 107.24 88.9604 107.24C88.5166 107.24 88.1472 107.361 87.8525 107.603C87.5613 107.844 87.3429 108.169 87.1973 108.577C87.0553 108.982 86.9842 109.435 86.9842 109.936C86.9842 110.433 87.0553 110.884 87.1973 111.289C87.3429 111.694 87.5613 112.017 87.8525 112.258C88.1472 112.496 88.5166 112.615 88.9604 112.615Z" fill="#9BA4B5"/>
<g clip-path="url(#clip0_165_325)">
<path d="M36.0019 23.996C36.0425 23.9959 36.0832 23.9958 36.1239 23.9958C36.2356 23.9956 36.3473 23.9956 36.4589 23.9956C36.5805 23.9956 36.702 23.9954 36.8236 23.9953C37.0646 23.995 37.3057 23.9949 37.5467 23.9948C37.8355 23.9947 38.1242 23.9944 38.413 23.9942C39.111 23.9936 39.8089 23.9932 40.5069 23.993C40.8373 23.9929 41.1676 23.9927 41.4979 23.9925C42.6292 23.992 43.7604 23.9916 44.8917 23.9913C44.9627 23.9913 45.0337 23.9913 45.1047 23.9913C45.1399 23.9913 45.1751 23.9913 45.2114 23.9913C45.3898 23.9912 45.5682 23.9912 45.7466 23.9912C45.782 23.9912 45.8174 23.9911 45.8539 23.9911C47.0012 23.9909 48.1485 23.9902 49.2958 23.9892C50.5093 23.9882 51.7228 23.9876 52.9363 23.9875C53.0697 23.9875 53.203 23.9875 53.3363 23.9875C53.3692 23.9875 53.402 23.9875 53.4358 23.9875C53.9632 23.9874 54.4906 23.9869 55.018 23.9863C55.5487 23.9857 56.0793 23.9855 56.6099 23.9858C56.9247 23.986 57.2396 23.9858 57.5544 23.9851C57.7653 23.9847 57.9761 23.9848 58.1869 23.9852C58.3067 23.9854 58.4265 23.9854 58.5463 23.9849C60.0111 23.9789 61.3696 24.3361 62.55 25.2564C62.5775 25.2776 62.6049 25.2988 62.6332 25.3207C62.8293 25.4771 63.011 25.6501 63.1917 25.8248C63.226 25.8575 63.226 25.8575 63.2609 25.8909C63.4539 26.081 63.6145 26.2941 63.775 26.5128C63.7875 26.5297 63.8001 26.5465 63.813 26.5639C64.0245 26.8497 64.1967 27.1522 64.3583 27.4701C64.3853 27.5224 64.3853 27.5224 64.4128 27.5757C64.7958 28.365 65.005 29.2617 65.0039 30.1417C65.004 30.1819 65.004 30.2221 65.0041 30.2623C65.0043 30.3726 65.0043 30.4829 65.0043 30.5932C65.0043 30.7132 65.0045 30.8333 65.0046 30.9533C65.0049 31.1914 65.005 31.4295 65.0051 31.6676C65.0052 31.9528 65.0054 32.238 65.0057 32.5232C65.0063 33.2126 65.0066 33.9019 65.0068 34.5913C65.007 34.9176 65.0071 35.2439 65.0073 35.5702C65.0078 36.6876 65.0082 37.805 65.0084 38.9225C65.0085 38.9926 65.0085 39.0627 65.0085 39.1329C65.0085 39.1851 65.0085 39.1851 65.0085 39.2383C65.0085 39.4145 65.0086 39.5907 65.0086 39.7669C65.0086 39.8019 65.0086 39.8369 65.0086 39.8729C65.0089 41.0061 65.0095 42.1393 65.0105 43.2724C65.0115 44.4711 65.0121 45.6698 65.0122 46.8684C65.0122 47.0002 65.0122 47.1319 65.0122 47.2636C65.0122 47.296 65.0122 47.3284 65.0122 47.3619C65.0123 47.8828 65.0127 48.4036 65.0133 48.9245C65.0139 49.4487 65.0141 49.9728 65.0138 50.4969C65.0137 50.8079 65.0138 51.1188 65.0145 51.4298C65.0149 51.638 65.0148 51.8463 65.0145 52.0545C65.0143 52.1728 65.0142 52.2911 65.0147 52.4094C65.0178 53.1844 64.9499 53.9238 64.7083 54.6624C64.7001 54.6878 64.6918 54.7131 64.6833 54.7393C64.4724 55.373 64.1715 55.9556 63.775 56.4872C63.7544 56.5152 63.7337 56.5433 63.7125 56.5722C63.56 56.7736 63.3912 56.96 63.2208 57.1453C63.1996 57.1687 63.1783 57.1922 63.1564 57.2163C62.971 57.4142 62.7633 57.579 62.55 57.7436C62.5336 57.7564 62.5171 57.7693 62.5002 57.7825C62.2216 57.9994 61.9266 58.1761 61.6167 58.3419C61.5657 58.3695 61.5657 58.3695 61.5137 58.3977C60.7388 58.7933 59.8617 59.005 58.9981 59.004C58.9575 59.0041 58.9168 59.0041 58.8761 59.0042C58.7644 59.0044 58.6528 59.0044 58.5411 59.0044C58.4195 59.0044 58.298 59.0046 58.1764 59.0047C57.9354 59.005 57.6943 59.0051 57.4533 59.0052C57.1645 59.0053 56.8758 59.0055 56.587 59.0058C55.889 59.0064 55.1911 59.0067 54.4931 59.007C54.1627 59.0071 53.8324 59.0073 53.5021 59.0074C52.3708 59.008 51.2396 59.0084 50.1083 59.0086C50.0373 59.0087 49.9663 59.0087 49.8953 59.0087C49.8601 59.0087 49.8249 59.0087 49.7886 59.0087C49.6102 59.0087 49.4318 59.0088 49.2534 59.0088C49.2003 59.0088 49.2003 59.0088 49.1461 59.0088C47.9988 59.0091 46.8515 59.0098 45.7043 59.0107C44.4907 59.0118 43.2772 59.0124 42.0637 59.0125C41.9303 59.0125 41.797 59.0125 41.6637 59.0125C41.6144 59.0125 41.6144 59.0125 41.5642 59.0125C41.0368 59.0126 40.5094 59.0131 39.982 59.0137C39.4514 59.0143 38.9207 59.0144 38.3901 59.0142C38.0753 59.014 37.7604 59.0142 37.4456 59.0148C37.2348 59.0152 37.0239 59.0152 36.8131 59.0148C36.6933 59.0146 36.5735 59.0146 36.4537 59.0151C35.6888 59.0182 34.9589 58.9519 34.2292 58.7008C34.2044 58.6924 34.1797 58.6839 34.1542 58.6752C33.5364 58.4589 32.9683 58.1503 32.45 57.7436C32.4226 57.7224 32.3953 57.7012 32.3671 57.6794C32.1708 57.523 31.989 57.35 31.8083 57.1752C31.7855 57.1534 31.7626 57.1316 31.7391 57.1091C31.5461 56.919 31.3855 56.7059 31.225 56.4872C31.2125 56.4703 31.1999 56.4535 31.187 56.4361C30.9755 56.1503 30.8033 55.8478 30.6417 55.5299C30.6147 55.4776 30.6147 55.4776 30.5872 55.4243C30.2042 54.635 29.9951 53.7383 29.9961 52.8582C29.996 52.8181 29.996 52.7779 29.9959 52.7377C29.9957 52.6274 29.9957 52.5171 29.9957 52.4068C29.9957 52.2867 29.9955 52.1667 29.9954 52.0466C29.9951 51.8086 29.995 51.5705 29.9949 51.3324C29.9948 51.0472 29.9946 50.762 29.9943 50.4768C29.9937 49.7874 29.9934 49.098 29.9932 48.4086C29.993 48.0824 29.9929 47.7561 29.9927 47.4298C29.9922 46.3124 29.9918 45.1949 29.9916 44.0775C29.9915 44.0074 29.9915 43.9372 29.9915 43.8671C29.9915 43.8323 29.9915 43.7975 29.9915 43.7617C29.9915 43.5855 29.9914 43.4093 29.9914 43.2331C29.9914 43.1981 29.9914 43.1631 29.9914 43.1271C29.9911 41.9939 29.9905 40.8607 29.9895 39.7275C29.9885 38.5289 29.9879 37.3302 29.9878 36.1315C29.9878 35.9998 29.9878 35.8681 29.9878 35.7364C29.9878 35.704 29.9878 35.6715 29.9878 35.6381C29.9877 35.1172 29.9873 34.5963 29.9867 34.0754C29.9861 33.5513 29.9859 33.0272 29.9862 32.5031C29.9863 32.1921 29.9862 31.8812 29.9855 31.5702C29.9851 31.362 29.9852 31.1537 29.9855 30.9454C29.9857 30.8271 29.9858 30.7088 29.9853 30.5905C29.9822 29.8155 30.0501 29.0762 30.2917 28.3376C30.2999 28.3122 30.3082 28.2868 30.3167 28.2607C30.5276 27.627 30.8285 27.0444 31.225 26.5128C31.2456 26.4847 31.2663 26.4567 31.2876 26.4277C31.4401 26.2264 31.6088 26.04 31.7792 25.8547C31.8005 25.8312 31.8217 25.8078 31.8437 25.7836C32.029 25.5858 32.2368 25.421 32.45 25.2564C32.4664 25.2435 32.4829 25.2307 32.4998 25.2175C32.7785 25.0005 33.0734 24.8239 33.3833 24.6581C33.4343 24.6305 33.4343 24.6305 33.4863 24.6023C34.2612 24.2067 35.1383 23.9949 36.0019 23.996Z" fill="#EEEEEE"/>
<path d="M42.4285 32.8758C42.5432 32.8755 42.658 32.8749 42.7728 32.874C43.465 32.8684 44.1328 32.8879 44.8167 33.0043C44.8702 33.0128 44.9238 33.0213 44.9774 33.0297C45.5975 33.1272 46.2558 33.3748 46.8 33.6923C46.8349 33.7115 46.8699 33.7306 46.9049 33.7497C47.2678 33.9504 47.5805 34.2098 47.8792 34.5C47.921 34.54 47.921 34.54 47.9637 34.5809C48.3214 34.9299 48.5888 35.3366 48.8125 35.7863C48.8226 35.8065 48.8327 35.8266 48.8431 35.8473C49.1017 36.3723 49.2617 36.9652 49.3083 37.5513C49.3108 37.577 49.3132 37.6027 49.3157 37.6291C49.3662 38.1872 49.3648 38.7619 49.2792 39.3162C49.2757 39.3387 49.2723 39.3611 49.2687 39.3842C49.1442 40.1506 48.8552 40.923 48.375 41.5299C48.3561 41.5553 48.3372 41.5807 48.3177 41.6068C47.3373 42.8913 45.8458 43.4795 44.3031 43.6724C43.7676 43.7359 43.2296 43.7239 42.6914 43.7198C42.5523 43.7189 42.4133 43.7185 42.2742 43.7181C42.0036 43.7171 41.7331 43.7156 41.4625 43.7137C41.4626 43.7389 41.4627 43.7641 41.4627 43.79C41.4647 44.4027 41.4661 45.0154 41.467 45.628C41.4675 45.9243 41.4681 46.2206 41.4691 46.5168C41.47 46.775 41.4705 47.0332 41.4707 47.2913C41.4708 47.4281 41.4711 47.5649 41.4717 47.7016C41.4723 47.8302 41.4725 47.9589 41.4724 48.0875C41.4724 48.1348 41.4726 48.1821 41.4729 48.2294C41.4734 48.2938 41.4733 48.3582 41.473 48.4226C41.4731 48.4587 41.4732 48.4948 41.4733 48.532C41.4625 48.6197 41.4625 48.6197 41.4258 48.6761C41.3631 48.7172 41.3262 48.7208 41.2521 48.721C41.2146 48.7214 41.2146 48.7214 41.1763 48.7219C41.1489 48.7218 41.1216 48.7216 41.0934 48.7215C41.0645 48.7217 41.0356 48.7219 41.0058 48.7221C40.9101 48.7227 40.8144 48.7225 40.7187 48.7224C40.6524 48.7225 40.586 48.7227 40.5197 48.7229C40.3805 48.7231 40.2413 48.723 40.1021 48.7228C39.9235 48.7224 39.7449 48.723 39.5663 48.7239C39.4293 48.7244 39.2922 48.7244 39.1551 48.7243C39.0893 48.7243 39.0234 48.7244 38.9575 48.7248C38.8656 48.7252 38.7736 48.7249 38.6816 48.7244C38.6543 48.7247 38.6269 48.725 38.5987 48.7253C38.5737 48.725 38.5487 48.7247 38.5229 48.7244C38.5011 48.7244 38.4794 48.7244 38.457 48.7244C38.4 48.7094 38.4 48.7094 38.3534 48.6647C38.2944 48.5566 38.3005 48.453 38.3015 48.3323C38.3014 48.306 38.3012 48.2796 38.3011 48.2524C38.3008 48.1634 38.3011 48.0744 38.3014 47.9854C38.3013 47.9212 38.3011 47.857 38.301 47.7928C38.3006 47.6159 38.3008 47.439 38.3011 47.2621C38.3013 47.0715 38.301 46.8809 38.3007 46.6903C38.3003 46.3383 38.3004 45.9863 38.3006 45.6344C38.3008 45.3093 38.3009 44.9842 38.3008 44.6591C38.3008 44.6375 38.3008 44.616 38.3008 44.5938C38.3007 44.5063 38.3007 44.4189 38.3007 44.3314C38.3004 43.5107 38.3007 42.69 38.3011 41.8693C38.3015 41.1397 38.3015 40.4101 38.3011 39.6804C38.3006 38.8612 38.3004 38.042 38.3007 37.2227C38.3007 37.1354 38.3008 37.0482 38.3008 36.9609C38.3008 36.9394 38.3008 36.9179 38.3008 36.8958C38.3009 36.5708 38.3008 36.2458 38.3006 35.9209C38.3003 35.5515 38.3004 35.1821 38.3009 34.8127C38.3011 34.6241 38.3012 34.4355 38.3009 34.2469C38.3006 34.0745 38.3008 33.902 38.3012 33.7296C38.3013 33.667 38.3013 33.6044 38.3011 33.5418C38.3008 33.4571 38.3011 33.3725 38.3015 33.2878C38.3013 33.2632 38.3011 33.2385 38.3009 33.213C38.3025 33.0469 38.3025 33.0469 38.3527 32.9831C38.4191 32.9289 38.4656 32.9327 38.5498 32.932C38.596 32.9312 38.596 32.9312 38.6431 32.9305C38.6767 32.9304 38.7103 32.9303 38.745 32.9302C38.7804 32.9297 38.8157 32.9293 38.8522 32.9288C38.9664 32.9274 39.0806 32.9265 39.1948 32.9258C39.3045 32.9246 39.4142 32.9234 39.5238 32.9221C39.6001 32.9213 39.6764 32.9204 39.7527 32.9197C40.0329 32.9166 40.3128 32.9097 40.5929 32.9015C41.2047 32.8838 41.8164 32.8771 42.4285 32.8758Z" fill="#9BA4B5"/>
<path d="M58.0857 36.4968C58.1128 36.4962 58.14 36.4955 58.168 36.4949C58.207 36.4947 58.207 36.4947 58.2469 36.4944C58.2702 36.4942 58.2936 36.4939 58.3176 36.4936C58.3961 36.5072 58.4175 36.5307 58.4667 36.594C58.4777 36.6534 58.4777 36.6534 58.4778 36.7223C58.478 36.7485 58.4783 36.7746 58.4785 36.8016C58.4783 36.8445 58.4783 36.8445 58.478 36.8884C58.4782 36.9337 58.4782 36.9337 58.4784 36.9799C58.4788 37.08 58.4786 37.1801 58.4783 37.2802C58.4783 37.3496 58.4784 37.419 58.4785 37.4884C58.4787 37.6339 58.4785 37.7795 58.4781 37.925C58.4776 38.1119 58.4779 38.2987 58.4784 38.4855C58.4787 38.6288 58.4786 38.7722 58.4784 38.9155C58.4783 38.9844 58.4784 39.0533 58.4786 39.1222C58.4788 39.2184 58.4785 39.3146 58.478 39.4108C58.4782 39.4394 58.4783 39.468 58.4785 39.4975C58.4781 39.5368 58.4781 39.5368 58.4778 39.5768C58.4777 39.5996 58.4777 39.6223 58.4777 39.6457C58.4636 39.7217 58.4384 39.7483 58.3792 39.7949C58.3027 39.8064 58.3027 39.8064 58.2102 39.807C58.1759 39.8076 58.1416 39.8082 58.1063 39.8088C58.051 39.8093 58.051 39.8093 57.9945 39.8098C56.9294 39.8339 55.6939 40.0258 54.85 40.7521C54.8249 40.7716 54.7998 40.791 54.774 40.811C54.6727 40.9425 54.6841 41.0514 54.6861 41.2145C54.6859 41.2464 54.6857 41.2782 54.6856 41.3111C54.6851 41.4179 54.6857 41.5248 54.6863 41.6317C54.6862 41.7082 54.686 41.7848 54.6858 41.8614C54.6855 42.0263 54.6855 42.1912 54.686 42.3561C54.6867 42.5946 54.6865 42.8331 54.686 43.0716C54.6853 43.4586 54.6852 43.8457 54.6855 44.2327C54.6855 44.2559 54.6855 44.279 54.6856 44.3029C54.6856 44.3498 54.6856 44.3966 54.6857 44.4435C54.6857 44.4784 54.6857 44.4784 54.6857 44.514C54.6857 44.5372 54.6858 44.5605 54.6858 44.5845C54.686 44.843 54.686 45.1016 54.686 45.3601C54.686 45.3833 54.686 45.4065 54.686 45.4303C54.686 45.816 54.6857 46.2017 54.6851 46.5874C54.6848 46.8255 54.6848 47.0635 54.6853 47.3015C54.6857 47.4836 54.6856 47.6657 54.6853 47.8479C54.6853 47.9228 54.6854 47.9977 54.6857 48.0725C54.6861 48.1744 54.6859 48.2762 54.6856 48.378C54.6859 48.408 54.6861 48.438 54.6864 48.4689C54.6861 48.5096 54.6861 48.5096 54.6858 48.5511C54.6858 48.5746 54.6859 48.5981 54.6859 48.6223C54.6823 48.6412 54.6787 48.66 54.675 48.6795C54.5841 48.7416 54.5637 48.7469 54.4604 48.7475C54.4344 48.7478 54.4085 48.7481 54.3817 48.7484C54.3533 48.7484 54.3249 48.7484 54.2956 48.7485C54.2656 48.7487 54.2356 48.749 54.2048 48.7492C54.1054 48.7499 54.0061 48.7502 53.9067 48.7504C53.8378 48.7507 53.7689 48.7509 53.7 48.7512C53.5555 48.7517 53.4109 48.7519 53.2664 48.752C53.081 48.7522 52.8956 48.7533 52.7102 48.7547C52.5678 48.7556 52.4255 48.7558 52.2832 48.7558C52.2148 48.7559 52.1464 48.7563 52.0781 48.7569C51.9825 48.7577 51.887 48.7576 51.7915 48.7572C51.7631 48.7577 51.7348 48.7581 51.7056 48.7586C51.6795 48.7583 51.6535 48.758 51.6266 48.7577C51.6041 48.7577 51.5815 48.7578 51.5582 48.7579C51.4958 48.7393 51.4958 48.7393 51.4303 48.6871C51.3495 48.5331 51.3631 48.3818 51.3642 48.2096C51.364 48.1705 51.3638 48.1314 51.3636 48.0911C51.3631 47.9826 51.3633 47.8741 51.3636 47.7655C51.3638 47.6484 51.3633 47.5313 51.3629 47.4141C51.3623 47.2109 51.3622 47.0076 51.3623 46.8044C51.3625 46.509 51.362 46.2136 51.3613 45.9183C51.3603 45.4371 51.3597 44.9559 51.3595 44.4747C51.3593 44.0107 51.3589 43.5466 51.3582 43.0826C51.3582 43.04 51.3582 43.04 51.3581 42.9965C51.3577 42.6847 51.3572 42.3728 51.3567 42.061C51.3565 41.9775 51.3564 41.894 51.3563 41.8105C51.3562 41.7553 51.3561 41.7002 51.356 41.645C51.3554 41.2982 51.355 40.9515 51.3548 40.6047C51.355 39.3108 51.355 39.3108 51.3369 38.0171C51.3363 37.9906 51.3358 37.9642 51.3352 37.9369C51.3302 37.7104 51.3242 37.4842 51.3113 37.258C51.3097 37.2291 51.3081 37.2002 51.3064 37.1704C51.3033 37.1143 51.2998 37.0582 51.2961 37.0022C51.2947 36.9771 51.2932 36.952 51.2918 36.9261C51.2904 36.9038 51.2889 36.8815 51.2875 36.8586C51.2917 36.8034 51.2917 36.8034 51.35 36.7436C51.4353 36.7375 51.5179 36.7351 51.6033 36.7354C51.6295 36.7352 51.6558 36.735 51.6828 36.7349C51.7698 36.7345 51.8569 36.7345 51.9439 36.7346C52.0043 36.7345 52.0647 36.7343 52.1251 36.7342C52.2518 36.734 52.3785 36.734 52.5053 36.7341C52.6677 36.7343 52.8301 36.7338 52.9925 36.7331C53.1173 36.7327 53.2421 36.7326 53.3669 36.7327C53.4268 36.7327 53.4866 36.7326 53.5465 36.7323C53.6303 36.7319 53.7141 36.7321 53.7979 36.7324C53.8226 36.7322 53.8474 36.732 53.8729 36.7317C54.0089 36.733 54.0977 36.7431 54.2083 36.8333C54.3086 36.9608 54.3544 37.0865 54.387 37.2446C54.3918 37.2671 54.3966 37.2896 54.4015 37.3127C54.4671 37.6468 54.4811 37.9895 54.5 38.329C54.5194 38.3066 54.5389 38.2842 54.5589 38.261C55.2452 37.476 56.1267 36.8904 57.125 36.6239C57.1576 36.6147 57.1901 36.6055 57.2237 36.596C57.5095 36.5176 57.7905 36.4985 58.0857 36.4968Z" fill="#9BA4B5"/>
<path d="M41.4917 35.8461C44.7839 35.8461 44.7839 35.8461 45.5531 36.6164C45.7669 36.8406 45.9116 37.0797 46.0216 37.3718C46.0322 37.4 46.0322 37.4 46.0431 37.4287C46.1399 37.7035 46.1691 37.9822 46.1674 38.2729C46.1672 38.3177 46.1672 38.3177 46.167 38.3633C46.1574 38.9959 45.9969 39.597 45.5459 40.05C45.2109 40.3714 44.8435 40.5533 44.4083 40.6923C44.3889 40.6985 44.3695 40.7048 44.3495 40.7112C43.403 41.008 42.5027 40.9017 41.4917 40.9017C41.4917 39.2334 41.4917 37.565 41.4917 35.8461Z" fill="#EEEEEE"/>
</g>
<defs>
<clipPath id="clip0_165_325">
<rect width="35" height="35" fill="white" transform="translate(30 24)"/>
</clipPath>
</defs>
</svg>
