<svg width="93" height="124" viewBox="0 0 93 124" fill="none" xmlns="http://www.w3.org/2000/svg">
<path d="M35.8338 2.67699L65.7196 5.29166C79.1991 6.47097 89.1704 18.3543 87.9911 31.8337L85.3764 61.7196C84.1971 75.1991 72.3138 85.1703 58.8343 83.991L28.9485 81.3764C15.469 80.1971 5.4977 68.3138 6.677 54.8343L9.29168 24.9484C10.471 11.469 22.3543 1.49769 35.8338 2.67699Z" fill="#D9D9D9" stroke="#D9D9D9"/>
<rect x="17.8338" y="13.834" width="59" height="59" rx="19.5" fill="#9BA4B5" stroke="#9BA4B5"/>
<path d="M1.38215 115V104.091H5.47306C6.31112 104.091 7.01425 104.237 7.58243 104.528C8.15416 104.819 8.58563 105.227 8.87682 105.753C9.17156 106.275 9.31894 106.884 9.31894 107.58C9.31894 108.279 9.16979 108.887 8.87149 109.402C8.57675 109.913 8.14173 110.309 7.56645 110.589C6.99117 110.866 6.28449 111.005 5.44642 111.005H2.53271V109.364H5.18009C5.67014 109.364 6.07142 109.297 6.38392 109.162C6.69642 109.023 6.92725 108.823 7.07639 108.56C7.22909 108.294 7.30544 107.967 7.30544 107.58C7.30544 107.193 7.22909 106.863 7.07639 106.589C6.9237 106.312 6.6911 106.103 6.3786 105.961C6.0661 105.815 5.66304 105.742 5.16943 105.742H3.35835V115H1.38215ZM7.0178 110.057L9.71844 115H7.51318L4.86048 110.057H7.0178ZM13.4072 115.165C12.8887 115.165 12.4217 115.073 12.0063 114.888C11.5943 114.7 11.2676 114.423 11.0261 114.057C10.7882 113.691 10.6693 113.24 10.6693 112.704C10.6693 112.243 10.7545 111.861 10.9249 111.559C11.0954 111.257 11.328 111.016 11.6227 110.835C11.9175 110.653 12.2495 110.517 12.6188 110.424C12.9917 110.328 13.377 110.259 13.7747 110.217C14.2541 110.167 14.643 110.123 14.9413 110.083C15.2396 110.041 15.4562 109.977 15.5911 109.892C15.7296 109.803 15.7989 109.666 15.7989 109.482V109.45C15.7989 109.048 15.6799 108.738 15.442 108.517C15.2041 108.297 14.8614 108.187 14.4139 108.187C13.9416 108.187 13.567 108.29 13.29 108.496C13.0166 108.702 12.8319 108.945 12.736 109.226L10.9356 108.97C11.0776 108.473 11.312 108.058 11.6387 107.724C11.9654 107.386 12.3649 107.134 12.8372 106.967C13.3095 106.797 13.8315 106.712 14.4033 106.712C14.7975 106.712 15.1899 106.758 15.5805 106.85C15.9711 106.942 16.328 107.095 16.6511 107.308C16.9743 107.518 17.2335 107.804 17.4288 108.166C17.6277 108.528 17.7271 108.981 17.7271 109.524V115H15.8734V113.876H15.8095C15.6923 114.103 15.5272 114.316 15.3141 114.515C15.1046 114.711 14.8401 114.869 14.5205 114.989C14.2044 115.107 13.8333 115.165 13.4072 115.165ZM13.9079 113.748C14.295 113.748 14.6305 113.672 14.9146 113.519C15.1987 113.363 15.4171 113.157 15.5698 112.901C15.7261 112.646 15.8042 112.367 15.8042 112.065V111.101C15.7438 111.151 15.6408 111.197 15.4953 111.239C15.3532 111.282 15.1934 111.319 15.0158 111.351C14.8383 111.383 14.6625 111.412 14.4885 111.436C14.3145 111.461 14.1636 111.483 14.0357 111.5C13.7481 111.539 13.4906 111.603 13.2634 111.692C13.0361 111.781 12.8568 111.905 12.7254 112.065C12.594 112.221 12.5283 112.424 12.5283 112.672C12.5283 113.027 12.6579 113.295 12.9171 113.477C13.1764 113.658 13.5066 113.748 13.9079 113.748ZM26.1327 108.981L24.3749 109.173C24.3252 108.995 24.2381 108.828 24.1139 108.672C23.9931 108.516 23.8298 108.39 23.6238 108.294C23.4178 108.198 23.1657 108.15 22.8674 108.15C22.4661 108.15 22.1288 108.237 21.8553 108.411C21.5854 108.585 21.4523 108.81 21.4558 109.087C21.4523 109.325 21.5393 109.519 21.7168 109.668C21.8979 109.817 22.1962 109.94 22.6117 110.036L24.0073 110.334C24.7815 110.501 25.3568 110.765 25.7332 111.127C26.1131 111.49 26.3049 111.964 26.3085 112.55C26.3049 113.065 26.154 113.519 25.8557 113.913C25.5609 114.304 25.1508 114.609 24.6252 114.83C24.0997 115.05 23.496 115.16 22.8141 115.16C21.8127 115.16 21.0066 114.95 20.3958 114.531C19.785 114.109 19.421 113.521 19.3038 112.768L21.1842 112.587C21.2694 112.956 21.4505 113.235 21.7275 113.423C22.0045 113.612 22.3649 113.706 22.8088 113.706C23.2669 113.706 23.6345 113.612 23.9114 113.423C24.192 113.235 24.3323 113.002 24.3323 112.725C24.3323 112.491 24.2417 112.298 24.0606 112.145C23.883 111.992 23.606 111.875 23.2296 111.793L21.834 111.5C21.0492 111.337 20.4686 111.062 20.0922 110.675C19.7158 110.284 19.5293 109.79 19.5329 109.194C19.5293 108.69 19.6661 108.253 19.943 107.884C20.2236 107.511 20.6124 107.223 21.1096 107.021C21.6103 106.815 22.1874 106.712 22.8408 106.712C23.7996 106.712 24.5542 106.916 25.1046 107.324C25.6586 107.733 26.0013 108.285 26.1327 108.981ZM27.8985 118.068V106.818H29.7948V108.171H29.9066C30.0061 107.972 30.1464 107.761 30.3275 107.537C30.5086 107.31 30.7536 107.116 31.0625 106.957C31.3715 106.793 31.7657 106.712 32.2451 106.712C32.8772 106.712 33.4471 106.873 33.9549 107.196C34.4663 107.516 34.8711 107.99 35.1694 108.619C35.4713 109.244 35.6222 110.011 35.6222 110.92C35.6222 111.818 35.4748 112.582 35.1801 113.21C34.8853 113.839 34.4841 114.318 33.9763 114.648C33.4684 114.979 32.8932 115.144 32.2504 115.144C31.7816 115.144 31.3928 115.066 31.0839 114.909C30.7749 114.753 30.5263 114.565 30.3381 114.345C30.1535 114.121 30.0096 113.91 29.9066 113.711H29.8267V118.068H27.8985ZM29.7895 110.909C29.7895 111.438 29.864 111.902 30.0132 112.299C30.1659 112.697 30.3843 113.008 30.6684 113.232C30.956 113.452 31.304 113.562 31.7124 113.562C32.1385 113.562 32.4954 113.448 32.7831 113.221C33.0707 112.99 33.2873 112.676 33.4329 112.278C33.5821 111.877 33.6566 111.42 33.6566 110.909C33.6566 110.401 33.5839 109.95 33.4383 109.556C33.2927 109.162 33.076 108.853 32.7884 108.629C32.5008 108.406 32.1421 108.294 31.7124 108.294C31.3005 108.294 30.9507 108.402 30.663 108.619C30.3754 108.835 30.157 109.139 30.0079 109.529C29.8623 109.92 29.7895 110.38 29.7895 110.909ZM37.3587 115V104.091H39.287V108.171H39.3669C39.4663 107.972 39.6066 107.761 39.7877 107.537C39.9688 107.31 40.2138 107.116 40.5228 106.957C40.8317 106.793 41.2259 106.712 41.7053 106.712C42.3374 106.712 42.9074 106.873 43.4152 107.196C43.9265 107.516 44.3314 107.99 44.6297 108.619C44.9315 109.244 45.0824 110.011 45.0824 110.92C45.0824 111.818 44.9351 112.582 44.6403 113.21C44.3456 113.839 43.9443 114.318 43.4365 114.648C42.9287 114.979 42.3534 115.144 41.7106 115.144C41.2419 115.144 40.853 115.066 40.5441 114.909C40.2351 114.753 39.9866 114.565 39.7983 114.345C39.6137 114.121 39.4699 113.91 39.3669 113.711H39.255V115H37.3587ZM39.2497 110.909C39.2497 111.438 39.3243 111.902 39.4734 112.299C39.6261 112.697 39.8445 113.008 40.1286 113.232C40.4162 113.452 40.7642 113.562 41.1726 113.562C41.5988 113.562 41.9557 113.448 42.2433 113.221C42.5309 112.99 42.7476 112.676 42.8932 112.278C43.0423 111.877 43.1169 111.42 43.1169 110.909C43.1169 110.401 43.0441 109.95 42.8985 109.556C42.7529 109.162 42.5363 108.853 42.2486 108.629C41.961 108.406 41.6023 108.294 41.1726 108.294C40.7607 108.294 40.4109 108.402 40.1233 108.619C39.8356 108.835 39.6172 109.139 39.4681 109.529C39.3225 109.92 39.2497 110.38 39.2497 110.909ZM50.3439 115.16C49.5236 115.16 48.8151 114.989 48.2185 114.648C47.6255 114.304 47.1692 113.817 46.8496 113.189C46.53 112.557 46.3702 111.813 46.3702 110.957C46.3702 110.115 46.53 109.377 46.8496 108.741C47.1727 108.102 47.6237 107.605 48.2025 107.25C48.7814 106.891 49.4614 106.712 50.2427 106.712C50.7469 106.712 51.2228 106.793 51.6702 106.957C52.1212 107.116 52.519 107.365 52.8634 107.702C53.2114 108.04 53.4849 108.469 53.6837 108.991C53.8826 109.51 53.982 110.128 53.982 110.845V111.436H47.2757V110.137H52.1337C52.1301 109.767 52.0502 109.439 51.894 109.151C51.7377 108.86 51.5193 108.631 51.2388 108.464C50.9618 108.297 50.6386 108.214 50.2693 108.214C49.8751 108.214 49.5289 108.31 49.2306 108.501C48.9323 108.69 48.6997 108.938 48.5328 109.247C48.3695 109.553 48.286 109.888 48.2824 110.254V111.388C48.2824 111.864 48.3695 112.273 48.5435 112.614C48.7175 112.951 48.9607 113.21 49.2732 113.391C49.5857 113.569 49.9515 113.658 50.3705 113.658C50.6511 113.658 50.905 113.619 51.1322 113.54C51.3595 113.459 51.5566 113.34 51.7235 113.184C51.8904 113.027 52.0165 112.834 52.1017 112.603L53.9021 112.805C53.7885 113.281 53.5719 113.697 53.2523 114.052C52.9362 114.403 52.5314 114.677 52.0378 114.872C51.5442 115.064 50.9795 115.16 50.3439 115.16ZM55.6133 115V106.818H57.483V108.182H57.5682C57.7174 107.71 57.9731 107.346 58.3353 107.09C58.701 106.831 59.1183 106.701 59.587 106.701C59.6936 106.701 59.8125 106.706 59.9439 106.717C60.0789 106.724 60.1907 106.737 60.2795 106.754V108.528C60.1978 108.5 60.0682 108.475 59.8907 108.453C59.7167 108.429 59.548 108.416 59.3846 108.416C59.0331 108.416 58.717 108.493 58.4365 108.645C58.1595 108.794 57.9411 109.002 57.7813 109.268C57.6215 109.535 57.5416 109.842 57.5416 110.19V115H55.6133ZM61.5606 115V106.818H63.4303V108.182H63.5155C63.6646 107.71 63.9203 107.346 64.2825 107.09C64.6483 106.831 65.0656 106.701 65.5343 106.701C65.6408 106.701 65.7598 106.706 65.8912 106.717C66.0261 106.724 66.138 106.737 66.2268 106.754V108.528C66.1451 108.5 66.0155 108.475 65.8379 108.453C65.6639 108.429 65.4953 108.416 65.3319 108.416C64.9803 108.416 64.6643 108.493 64.3837 108.645C64.1068 108.794 63.8884 109.002 63.7286 109.268C63.5688 109.535 63.4889 109.842 63.4889 110.19V115H61.5606ZM68.9554 118.068C68.6926 118.068 68.4494 118.047 68.2256 118.004C68.0055 117.965 67.8297 117.919 67.6983 117.866L68.1457 116.364C68.4263 116.445 68.6766 116.484 68.8968 116.481C69.117 116.477 69.3105 116.408 69.4774 116.273C69.6479 116.142 69.7917 115.922 69.9089 115.613L70.074 115.17L67.107 106.818H69.1525L71.0381 112.997H71.1234L73.0143 106.818H75.0651L71.7892 115.991C71.6365 116.424 71.4341 116.795 71.182 117.104C70.9298 117.417 70.6209 117.654 70.2551 117.818C69.8929 117.985 69.4597 118.068 68.9554 118.068ZM80.2054 115V104.091H84.2963C85.1344 104.091 85.8375 104.247 86.4057 104.56C86.9774 104.872 87.4089 105.302 87.7001 105.849C87.9948 106.392 88.1422 107.01 88.1422 107.702C88.1422 108.402 87.9948 109.023 87.7001 109.567C87.4053 110.11 86.9703 110.538 86.395 110.85C85.8197 111.159 85.1113 111.314 84.2697 111.314H81.5584V109.689H84.0033C84.4934 109.689 84.8947 109.604 85.2072 109.434C85.5197 109.263 85.7505 109.029 85.8996 108.73C86.0523 108.432 86.1287 108.089 86.1287 107.702C86.1287 107.315 86.0523 106.974 85.8996 106.68C85.7505 106.385 85.5179 106.156 85.2018 105.993C84.8893 105.826 84.4863 105.742 83.9927 105.742H82.1816V115H80.2054ZM89.7735 115V106.818H91.7017V115H89.7735ZM90.7429 105.657C90.4375 105.657 90.1748 105.556 89.9546 105.353C89.7344 105.147 89.6243 104.901 89.6243 104.613C89.6243 104.322 89.7344 104.075 89.9546 103.873C90.1748 103.667 90.4375 103.564 90.7429 103.564C91.0519 103.564 91.3147 103.667 91.5313 103.873C91.7515 104.075 91.8616 104.322 91.8616 104.613C91.8616 104.901 91.7515 105.147 91.5313 105.353C91.3147 105.556 91.0519 105.657 90.7429 105.657Z" fill="#9BA4B5"/>
<g clip-path="url(#clip0_338_2)">
<path d="M39.4919 24.9872C39.5258 24.9872 39.5258 24.9872 39.5604 24.9873C39.8513 24.9942 40.1051 25.0803 40.3673 25.1723C40.5755 25.2451 40.6852 25.2642 40.9067 25.216C41.2108 25.1627 41.5979 25.1783 41.8708 25.2968C41.8973 25.3123 41.9238 25.3277 41.951 25.3436C42.2307 25.4979 42.4761 25.4946 42.8142 25.4808C43.2058 25.4668 43.5028 25.5479 43.7958 25.7535C43.8279 25.7822 43.8595 25.8113 43.8906 25.8407C44.0955 26.037 44.0955 26.037 44.3907 26.1158C44.4746 26.1173 44.5578 26.1159 44.6417 26.114C44.9215 26.1101 45.0482 26.1795 45.2542 26.3242C45.2931 26.3476 45.2931 26.3476 45.3329 26.3715C46.0059 26.776 46.4912 27.3196 46.8875 27.8996C46.8972 27.9136 46.9069 27.9276 46.9169 27.942C47.1564 28.2911 47.3449 28.6643 47.5 29.0411C47.5165 29.0016 47.5165 29.0016 47.5334 28.9613C47.9866 27.9006 48.7307 26.8594 49.9316 26.2131C49.9711 26.1916 50.0092 26.1685 50.0468 26.145C50.1497 26.1105 50.2305 26.1192 50.3408 26.1244C50.5599 26.1321 50.7359 26.1297 50.9078 26.0139C51.0147 25.9311 51.1125 25.8421 51.2103 25.7528C51.3846 25.6026 51.6226 25.5165 51.875 25.4795C52.0127 25.4764 52.1494 25.4828 52.287 25.488C52.6087 25.4948 52.8284 25.4748 53.0895 25.3256C53.2894 25.2127 53.5031 25.1948 53.7435 25.1984C53.7682 25.1983 53.7929 25.1982 53.8183 25.1982C53.9363 25.1989 54.0417 25.2048 54.1554 25.2302C54.3779 25.2721 54.5477 25.2084 54.7479 25.1384C55.1101 25.0133 55.4676 24.94 55.861 25.0224C55.982 25.0606 56.0796 25.0971 56.1775 25.1653C56.2448 25.2116 56.2448 25.2116 56.3201 25.2019C56.3445 25.1951 56.3689 25.1883 56.394 25.1813C56.4221 25.1742 56.4503 25.1672 56.4792 25.16C56.5246 25.1486 56.5246 25.1486 56.5708 25.137C57.0308 25.0397 57.4884 25.0132 57.9188 25.2007C58.1192 25.2989 58.1192 25.2989 58.175 25.3425C58.2193 25.3439 58.2637 25.3439 58.308 25.3431C58.3355 25.3428 58.363 25.3426 58.3914 25.3423C58.4491 25.3415 58.5067 25.3406 58.5644 25.3396C58.9297 25.3363 59.2708 25.3918 59.5458 25.5936C59.5651 25.6162 59.5843 25.6388 59.6042 25.6621C59.6834 25.6661 59.7568 25.6662 59.8357 25.6636C60.4181 25.655 61.0328 25.6955 61.4886 26.0117C61.5538 26.0612 61.6171 26.1097 61.675 26.1644C61.675 26.1795 61.675 26.1946 61.675 26.2101C61.6926 26.2097 61.7102 26.2094 61.7284 26.209C62.2399 26.1999 62.6763 26.2051 63.0714 26.4926C63.167 26.5726 63.2274 26.6567 63.2792 26.758C63.2912 26.7816 63.3032 26.8051 63.3156 26.8294C63.3788 27.085 63.3537 27.3575 63.1971 27.5899C63.1536 27.6462 63.1536 27.6462 63.183 27.6991C63.2367 27.7893 63.2943 27.8778 63.3527 27.9662C63.4786 28.1597 63.4938 28.3722 63.4353 28.5847C63.3594 28.7588 63.2423 28.9559 63.075 29.0868C63.0827 29.1418 63.0827 29.1418 63.1042 29.2009C63.2173 29.5564 63.1023 29.8297 62.8694 30.1399C62.8136 30.2043 62.7525 30.2543 62.6831 30.3097C62.5488 30.4343 62.5665 30.5492 62.575 30.7037C62.5901 30.9983 62.4494 31.241 62.2059 31.4634C62.1284 31.5267 62.0616 31.5722 61.9625 31.6145C61.8696 31.6619 61.8696 31.6619 61.8534 31.7475C61.8504 31.7786 61.8481 31.8097 61.8464 31.8408C61.8066 32.2017 61.5745 32.4897 61.2303 32.7303C61.1527 32.7793 61.0692 32.8203 60.9855 32.8626C60.7337 32.987 60.7337 32.987 60.6013 33.1907C60.5891 33.2381 60.5774 33.2857 60.5667 33.3334C60.4292 33.6458 60.0587 33.8465 59.6983 33.988C59.6007 34.0194 59.5088 34.0337 59.4055 34.0497C59.281 34.0768 59.281 34.0768 59.1918 34.1463C59.1409 34.2234 59.1034 34.3039 59.0653 34.3853C58.9668 34.5947 58.7463 34.7223 58.4958 34.8174C58.2587 34.8896 58.0142 34.9533 57.7667 35C57.8911 35.0658 58.0162 35.1307 58.1426 35.194C58.6145 35.4305 59.0589 35.6797 59.4736 35.976C59.5226 36.0109 59.572 36.0454 59.6217 36.0796C59.7745 36.185 59.9115 36.2932 60.0417 36.4156C60.0739 36.4442 60.0739 36.4442 60.1067 36.4734C60.633 36.9496 61.0092 37.5107 61.2667 38.1051C61.2747 38.1233 61.2827 38.1415 61.291 38.1603C61.5428 38.7411 61.6779 39.3864 61.6765 39.9995C61.6764 40.347 61.7492 40.5561 61.9958 40.8448C61.9958 40.8599 61.9958 40.8749 61.9958 40.8904C62.0155 40.8955 62.0351 40.9006 62.0553 40.9058C62.1675 40.9452 62.259 40.9981 62.3568 41.056C62.3771 41.068 62.3975 41.08 62.4185 41.0924C63.8564 41.958 64.7448 43.332 64.9784 44.7255C64.9977 44.8505 65.0055 44.974 65.007 45.0998C65.0072 45.1197 65.0075 45.1396 65.0078 45.1601C65.015 45.7869 64.9514 46.3623 64.7083 46.9635C64.702 46.9793 64.6956 46.9951 64.689 47.0113C64.423 47.6503 63.9739 48.2581 63.4105 48.764C63.3056 48.8586 63.24 48.9323 63.2045 49.0558C63.1938 49.0921 63.1938 49.0921 63.1828 49.1291C63.1761 49.1528 63.1694 49.1765 63.1625 49.2009C63.0674 49.5249 62.9544 49.8423 62.8234 50.1584C62.8123 50.1853 62.8123 50.1853 62.8009 50.2128C62.7193 50.409 62.6342 50.6038 62.5411 50.7969C62.5333 50.8131 62.5255 50.8294 62.5174 50.8461C62.5058 50.8701 62.5058 50.8701 62.494 50.8947C62.3681 51.1558 62.2595 51.4059 62.2086 51.6836C61.9555 53.0594 60.8374 54.4195 59.4292 55.2512C59.4099 55.2628 59.3906 55.2745 59.3707 55.2865C58.85 55.6009 58.2745 55.8927 57.6475 56.0596C57.5196 56.0963 57.4223 56.1542 57.3164 56.2201C57.2753 56.2449 57.2341 56.2696 57.1929 56.2944C57.172 56.307 57.1511 56.3196 57.1295 56.3325C56.4131 56.7585 55.6432 57.1344 54.85 57.4658C54.8152 57.4804 54.8152 57.4804 54.7798 57.4953C54.3248 57.6844 53.8523 57.835 53.3737 57.9827C53.3411 57.9929 53.3086 58.0032 53.275 58.0137C53.2568 58.0195 53.2385 58.0252 53.2197 58.0311C53.0955 58.0712 53.0187 58.1136 52.9268 58.1907C52.8255 58.2732 52.7238 58.3515 52.6126 58.4258C52.5609 58.4603 52.5098 58.4954 52.459 58.5306C51.8903 58.9236 51.2521 59.2499 50.5625 59.4978C50.5417 59.5053 50.5208 59.5128 50.4994 59.5206C48.7631 60.1394 46.6901 60.166 44.9042 59.6576C44.242 59.4582 43.6334 59.1916 43.0667 58.8585C43.0484 58.8478 43.0302 58.8371 43.0114 58.8261C42.7637 58.6798 42.5349 58.522 42.3083 58.3562C42.2323 58.3025 42.156 58.2491 42.0796 58.1958C42.0167 58.1507 42.0167 58.1507 41.963 58.105C41.8961 58.0566 41.8478 58.0381 41.7621 58.0152C41.7349 58.0076 41.7076 58 41.6794 57.9923C41.6352 57.9803 41.6352 57.9803 41.5901 57.9681C40.2236 57.5815 38.9186 56.9791 37.7825 56.2718C37.5761 56.1442 37.4013 56.0533 37.1469 55.9922C36.7462 55.8878 36.3476 55.6975 36.0083 55.5023C35.9909 55.4924 35.9735 55.4826 35.9555 55.4724C35.5474 55.241 35.1757 54.9912 34.818 54.7132C34.7798 54.6837 34.7798 54.6837 34.7409 54.6536C33.6741 53.8143 33.0451 52.7263 32.7589 51.5759C32.7532 51.5531 32.7475 51.5303 32.7417 51.5069C32.7378 51.49 32.734 51.4731 32.73 51.4557C32.698 51.3206 32.6512 51.1952 32.5901 51.0666C32.5811 51.0472 32.5721 51.0278 32.5629 51.0078C32.5438 50.9665 32.5246 50.9253 32.5053 50.8842C32.4549 50.7765 32.4054 50.6685 32.3559 50.5606C32.3462 50.5394 32.3365 50.5183 32.3265 50.4965C32.1381 50.0853 31.9815 49.672 31.8505 49.2472C31.843 49.2233 31.8355 49.1994 31.8278 49.1747C31.8161 49.1357 31.8053 49.0965 31.7963 49.057C31.7635 48.9225 31.6772 48.846 31.5641 48.7472C31.234 48.446 30.9629 48.1144 30.7292 47.7626C30.7174 47.7449 30.7056 47.7271 30.6934 47.7089C30.382 47.2345 30.174 46.7357 30.0583 46.2101C30.0502 46.1731 30.0502 46.1731 30.0419 46.1353C29.9971 45.9061 29.9901 45.6802 29.9908 45.4487C29.9909 45.3859 29.9902 45.3231 29.9895 45.2603C29.9877 44.8718 30.0484 44.4938 30.1695 44.1168C30.1771 44.0928 30.1847 44.0688 30.1926 44.044C30.5677 42.8853 31.4133 41.7673 32.6523 41.0488C32.6706 41.0382 32.6889 41.0276 32.7078 41.0166C32.7854 40.9727 32.8495 40.9385 32.9405 40.9134C33.0101 40.8948 33.0101 40.8948 33.035 40.8393C33.0441 40.8185 33.0532 40.7977 33.0625 40.7763C33.0809 40.7548 33.0993 40.7333 33.1182 40.7111C33.3106 40.4779 33.3185 40.2752 33.3214 40.0024C33.3264 39.5584 33.408 39.1092 33.5292 38.6758C33.535 38.655 33.5408 38.6341 33.5468 38.6126C33.7874 37.7749 34.2864 37.009 35.0167 36.3699C35.0313 36.3571 35.0459 36.3442 35.0609 36.331C35.2308 36.1823 35.4034 36.0407 35.6 35.9133C35.6268 35.8949 35.6535 35.8765 35.6811 35.8575C36.149 35.5372 36.6777 35.2794 37.2042 35.0229C37.1065 34.9719 37.011 34.9509 36.8997 34.9258C36.4872 34.8282 36.1484 34.6979 35.927 34.398C35.8907 34.3363 35.8741 34.2802 35.857 34.2138C35.8406 34.1565 35.8406 34.1565 35.8042 34.1096C35.7279 34.0794 35.6577 34.0679 35.5738 34.0553C35.2368 34.0025 34.9243 33.8523 34.6958 33.653C34.6718 33.6328 34.6477 33.6125 34.6229 33.5916C34.4902 33.4636 34.4105 33.324 34.3768 33.1621C34.3238 32.9928 34.1351 32.9239 33.9598 32.8354C33.8337 32.7688 33.7249 32.686 33.6167 32.6028C33.5957 32.5866 33.5747 32.5705 33.5531 32.5539C33.3233 32.3652 33.1515 32.1207 33.1495 31.855C33.1497 31.7271 33.1497 31.7271 33.0679 31.6217C33.0223 31.5952 32.9758 31.5695 32.9286 31.5448C32.6763 31.4087 32.4993 31.1715 32.4303 30.9408C32.4165 30.8676 32.4221 30.7973 32.4276 30.7236C32.447 30.5017 32.447 30.5017 32.3188 30.3111C32.2976 30.2945 32.2764 30.2779 32.2546 30.2608C31.9757 30.031 31.836 29.7188 31.8375 29.4064C31.8529 29.3162 31.8837 29.2315 31.9182 29.1448C31.9274 29.0662 31.896 29.0421 31.8339 28.9812C31.5897 28.7259 31.5172 28.4876 31.5458 28.1735C31.5915 28.0125 31.6871 27.8818 31.809 27.7486C31.846 27.6931 31.846 27.6931 31.817 27.6274C31.8045 27.6042 31.792 27.581 31.7792 27.5571C31.646 27.2744 31.5956 26.9958 31.7369 26.7075C31.8823 26.4887 32.1199 26.3465 32.4071 26.2551C32.7018 26.1833 33.0199 26.2039 33.325 26.2101C33.3338 26.1958 33.3426 26.1816 33.3517 26.1669C33.4999 25.9417 33.8437 25.8201 34.135 25.7449C34.4262 25.677 34.7395 25.6582 35.0423 25.6636C35.0647 25.664 35.0872 25.6643 35.1103 25.6647C35.1523 25.6658 35.1944 25.6675 35.2364 25.6698C35.3499 25.6735 35.39 25.6659 35.4786 25.6077C35.4994 25.588 35.5202 25.5683 35.5417 25.548C35.7326 25.4071 35.9946 25.3403 36.2551 25.3434C36.3083 25.3451 36.3615 25.3468 36.4146 25.3486C36.7631 25.36 36.7631 25.36 37.0556 25.2242C37.2996 25.0582 37.6575 25.0561 37.9628 25.0652C38.151 25.076 38.3395 25.1118 38.5168 25.1616C38.6681 25.2063 38.6681 25.2063 38.82 25.1817C38.8867 25.1469 38.8867 25.1469 38.9436 25.1076C39.1101 25.0132 39.2896 24.9867 39.4919 24.9872Z" fill="#9BA4B5"/>
<path d="M39.5375 25.8904C40.0632 26.0151 40.5105 26.2529 40.9245 26.5301C40.9406 26.5409 40.9567 26.5516 40.9733 26.5627C41.0167 26.5919 41.0594 26.6216 41.1021 26.6514C41.1248 26.664 41.1475 26.6765 41.1708 26.6895C41.2886 26.6588 41.3123 26.6114 41.375 26.5297C41.4449 26.3655 41.3939 26.2285 41.3167 26.073C41.7699 26.2926 42.1667 26.5324 42.5172 26.8471C42.5626 26.8876 42.609 26.9259 42.6583 26.9634C42.6935 26.9309 42.6935 26.9309 42.7294 26.8978C42.7492 26.8795 42.7492 26.8795 42.7694 26.8609C42.8289 26.802 42.8379 26.7599 42.8426 26.6864C42.8438 26.668 42.845 26.6496 42.8463 26.6307C42.848 26.6019 42.848 26.6019 42.8497 26.5725C42.851 26.5531 42.8523 26.5337 42.8536 26.5137C42.8567 26.4657 42.8596 26.4178 42.8625 26.3698C43.2173 26.4916 43.5194 26.8041 43.7667 27.0319C43.7951 27.0578 43.8235 27.0837 43.8519 27.1095C43.9899 27.2352 44.1273 27.361 44.2625 27.4886C44.3058 27.4773 44.3058 27.4773 44.35 27.4657C44.3799 27.4102 44.4042 27.3575 44.4266 27.3002C44.436 27.2773 44.436 27.2773 44.4457 27.2539C44.4786 27.173 44.5064 27.0928 44.525 27.0091C44.8443 27.1101 45.0987 27.4605 45.2975 27.6704C45.337 27.7119 45.377 27.7531 45.4172 27.7943C45.9674 28.3663 46.3899 29.0625 46.5375 29.7717C46.5428 29.7968 46.5482 29.822 46.5537 29.8479C46.6392 30.3984 46.4782 30.9105 46.0484 31.3547C45.8078 31.5807 45.4603 31.7876 45.1083 31.8949C45.0186 31.885 44.966 31.8618 44.8977 31.8162C44.8799 31.8045 44.8621 31.7929 44.8437 31.7808C44.8246 31.7681 44.8054 31.7554 44.7857 31.7423C42.7156 30.3973 40.2324 29.4271 36.5625 28.3333C36.7235 28.4059 36.886 28.4763 37.0492 28.5459C37.0768 28.5577 37.1045 28.5695 37.1329 28.5817C37.2906 28.6489 37.4487 28.7156 37.6074 28.7815C38.0227 28.954 38.4318 29.1328 38.8366 29.3201C38.9598 29.3767 39.0839 29.432 39.208 29.4874C39.8259 29.7641 40.4217 30.0637 41.0141 30.3724C41.0404 30.3861 41.0668 30.3999 41.094 30.414C41.8677 30.8174 42.6318 31.2421 43.3201 31.7329C43.3777 31.7738 43.4361 31.8139 43.4951 31.8536C43.6689 31.9726 43.8383 32.0954 44.0051 32.2205C44.039 32.2458 44.0732 32.271 44.1076 32.296C44.3384 32.4646 44.3384 32.4646 44.3619 32.5589C44.3493 32.6173 44.3232 32.6629 44.2917 32.7169C44.277 32.7469 44.2626 32.777 44.2484 32.8071C43.9173 33.4905 43.2357 33.9866 42.398 34.2897C41.7699 34.5047 41.1172 34.6273 40.4417 34.7032C40.4173 34.7059 40.3929 34.7087 40.3677 34.7116C39.8326 34.7693 39.2889 34.7532 38.75 34.7488C38.75 34.7338 38.75 34.7187 38.75 34.7032C38.8005 34.6855 38.8005 34.6855 38.8521 34.6675C39.0547 34.5878 39.2201 34.4837 39.3042 34.315C39.0753 34.2671 38.8466 34.2558 38.6114 34.2432C37.4616 34.1802 37.4616 34.1802 37 33.9726C37.0789 33.9314 37.1415 33.9102 37.2297 33.8855C37.3949 33.835 37.4851 33.7683 37.5833 33.6529C37.5519 33.6508 37.5205 33.6488 37.4881 33.6466C37.3217 33.6302 37.1663 33.5894 37.0073 33.5488C36.9593 33.5366 36.9593 33.5366 36.9104 33.5242C35.8122 33.2408 35.8122 33.2408 35.5125 32.9908C35.5452 32.9902 35.578 32.9897 35.6117 32.9891C35.9298 32.9821 35.9298 32.9821 36.2251 32.8959C36.2708 32.8767 36.2708 32.8767 36.3292 32.8767C36.3292 32.8616 36.3292 32.8465 36.3292 32.831C36.3041 32.825 36.2791 32.8189 36.2533 32.8126C36.1532 32.7851 36.0628 32.7519 35.9685 32.714C35.9512 32.7071 35.9339 32.7002 35.9161 32.693C35.8605 32.6707 35.805 32.6481 35.7495 32.6255C35.7306 32.6179 35.7116 32.6102 35.6921 32.6023C35.3012 32.4433 34.9171 32.2784 34.5792 32.0548C34.5569 32.0401 34.5346 32.0254 34.5116 32.0103C34.3942 31.9315 34.3942 31.9315 34.3458 31.8949C34.3458 31.8874 34.3458 31.8799 34.3458 31.8721C34.3705 31.8716 34.3705 31.8716 34.3957 31.8711C34.4714 31.8694 34.5472 31.8672 34.6229 31.865C34.6488 31.8645 34.6747 31.864 34.7013 31.8634C34.8729 31.858 35.0049 31.8345 35.1625 31.7808C35.1176 31.7551 35.0726 31.7294 35.0276 31.7037C34.9983 31.687 34.969 31.6702 34.9387 31.653C34.8739 31.6161 34.8085 31.5799 34.7428 31.544C34.5015 31.412 34.2744 31.2715 34.0542 31.1187C34.0369 31.1067 34.0196 31.0947 34.0017 31.0824C33.9491 31.0457 33.8967 31.0088 33.8445 30.9717C33.8203 30.9547 33.8203 30.9547 33.7956 30.9374C33.7172 30.8809 33.6553 30.832 33.6167 30.7534C33.6491 30.7539 33.6815 30.7545 33.7149 30.755C33.9513 30.7577 34.1741 30.7573 34.4042 30.7077C34.2533 30.5642 34.0858 30.4426 33.9083 30.3196C33.5877 30.0973 33.269 29.8648 33.0625 29.5662C33.0625 29.5511 33.0625 29.536 33.0625 29.5205C33.084 29.5238 33.1056 29.5271 33.1278 29.5305C33.4281 29.5735 33.6834 29.5981 33.9667 29.4977C33.8842 29.3698 33.7947 29.2903 33.6531 29.2009C33.6164 29.177 33.5798 29.153 33.5431 29.1291C33.5093 29.1074 33.4755 29.0856 33.4417 29.0639C33.1488 28.8729 32.9229 28.6648 32.7417 28.4018C32.7417 28.3867 32.7417 28.3717 32.7417 28.3561C32.7633 28.3578 32.7849 28.3594 32.8072 28.3611C33.0776 28.3798 33.3454 28.3813 33.6167 28.379C33.4489 27.9385 33.2294 27.5593 32.871 27.1934C32.8292 27.1461 32.8292 27.1461 32.8292 27.1004C33.8398 27.0891 33.8398 27.0891 34.8708 27.0776C34.8708 27.0625 34.8708 27.0475 34.8708 27.0319C34.8275 27.0206 34.8275 27.0206 34.7833 27.0091C34.7373 26.9725 34.7373 26.9725 34.6885 26.9263C34.5896 26.8349 34.4847 26.7501 34.375 26.6666C34.6942 26.5001 35.2303 26.5508 35.5889 26.6011C35.8514 26.6426 36.1086 26.699 36.3642 26.7615C36.3884 26.7673 36.4126 26.7731 36.4376 26.7791C36.459 26.7844 36.4803 26.7897 36.5023 26.7951C36.5716 26.8049 36.6136 26.8006 36.6792 26.7808C36.721 26.7154 36.7173 26.6709 36.7083 26.5981C36.6295 26.4775 36.5064 26.3914 36.3825 26.298C36.3292 26.2557 36.3292 26.2557 36.3292 26.2328C36.9234 26.2542 37.5306 26.3871 38.0793 26.5624C38.1427 26.5811 38.1427 26.5811 38.225 26.5525C38.2529 26.4616 38.2656 26.4109 38.2122 26.3256C38.0997 26.2204 37.9816 26.1165 37.8385 26.0362C37.8217 26.0257 37.8049 26.0153 37.7875 26.0045C37.7875 25.9895 37.7875 25.9744 37.7875 25.9589C37.9775 25.9715 38.1489 25.9988 38.3307 26.0431C38.3562 26.0492 38.3816 26.0553 38.4078 26.0616C38.7983 26.1574 39.1545 26.285 39.5128 26.4384C39.5882 26.4702 39.6648 26.5001 39.7417 26.5297C39.8253 26.4503 39.8566 26.4128 39.8656 26.3085C39.834 26.1708 39.7036 26.0656 39.5958 25.9589C39.567 25.925 39.567 25.925 39.5375 25.8904Z" fill="#EEEEEE"/>
<path d="M55.4917 25.8904C55.5205 25.9017 55.5205 25.9017 55.55 25.9132C55.5258 25.9363 55.5258 25.9363 55.501 25.9599C55.4799 25.9803 55.4588 26.0007 55.437 26.0217C55.416 26.0418 55.395 26.0619 55.3734 26.0827C55.2599 26.2005 55.2347 26.292 55.2583 26.4383C55.2968 26.4958 55.2968 26.4958 55.3458 26.5297C55.4515 26.4998 55.5456 26.4608 55.6422 26.4162C56.0432 26.2315 56.468 26.0899 56.9208 26.0045C56.9491 25.9992 56.9775 25.9938 57.0066 25.9882C57.1283 25.967 57.2083 25.9558 57.3292 25.9817C57.3007 26.0018 57.2722 26.0219 57.2429 26.0426C57.2054 26.0694 57.1679 26.0962 57.1305 26.123C57.1117 26.1362 57.093 26.1494 57.0737 26.163C56.9003 26.285 56.9003 26.285 56.8242 26.4526C56.8292 26.5128 56.8292 26.5128 56.8917 26.5753C56.9069 26.5713 56.9221 26.5672 56.9377 26.563C57.364 26.4506 57.7949 26.3525 58.2352 26.2799C58.2641 26.2751 58.293 26.2703 58.3228 26.2653C58.4709 26.2419 58.6073 26.2274 58.7583 26.2328C58.7328 26.2562 58.7073 26.2795 58.6818 26.3028C58.6659 26.3172 58.6501 26.3317 58.6338 26.3466C58.6006 26.3769 58.5672 26.4071 58.5338 26.4373C58.5182 26.4513 58.5027 26.4653 58.4867 26.4797C58.4724 26.4926 58.4581 26.5054 58.4433 26.5187C58.3697 26.5899 58.3723 26.6453 58.3792 26.7351C58.3974 26.766 58.4166 26.7966 58.4375 26.8265C58.4637 26.8193 58.4898 26.8121 58.5168 26.8047C59.2238 26.6149 59.9395 26.5039 60.6833 26.621C60.6833 26.7179 60.6114 26.7586 60.5302 26.825C60.5159 26.837 60.5016 26.849 60.4868 26.8614C60.408 26.9271 60.3277 26.9914 60.2458 27.0548C60.3282 27.087 60.3981 27.0813 60.4902 27.0823C60.5092 27.0825 60.5283 27.0827 60.548 27.083C60.6111 27.0837 60.6742 27.0843 60.7373 27.0848C60.7811 27.0853 60.8248 27.0858 60.8685 27.0863C60.9837 27.0875 61.0989 27.0886 61.214 27.0897C61.3315 27.0909 61.449 27.0922 61.5665 27.0934C61.7971 27.0959 62.0277 27.0982 62.2583 27.1004C62.2098 27.201 62.1433 27.2837 62.0651 27.3715C61.7885 27.6905 61.6065 28.0074 61.4708 28.379C61.7596 28.379 62.0483 28.379 62.3458 28.379C62.1159 28.739 61.7996 28.9937 61.3987 29.2432C61.2941 29.3128 61.2064 29.391 61.1208 29.4749C61.3023 29.5837 61.4491 29.5751 61.675 29.5662C61.7553 29.5549 61.8298 29.5384 61.9083 29.5205C61.9468 29.5205 61.9853 29.5205 62.025 29.5205C61.9859 29.6336 61.9209 29.7158 61.8281 29.8059C61.8142 29.8196 61.8003 29.8333 61.7859 29.8474C61.5533 30.071 61.2845 30.2701 61.0042 30.4566C60.9511 30.4931 60.8983 30.5297 60.8456 30.5665C60.8209 30.5836 60.7963 30.6007 60.7709 30.6183C60.7107 30.6585 60.7107 30.6585 60.6833 30.7077C60.8733 30.7459 61.0437 30.7593 61.2393 30.7562C61.2646 30.756 61.2898 30.7558 61.3158 30.7556C61.3772 30.7551 61.4386 30.7543 61.5 30.7534C61.2776 30.9587 61.0411 31.1343 60.7708 31.3013C60.7266 31.3289 60.7266 31.3289 60.6814 31.3571C60.4915 31.4741 60.2964 31.5822 60.093 31.6844C59.9929 31.7317 59.9929 31.7317 59.925 31.8036C60.1065 31.8445 60.2762 31.8584 60.4646 31.8636C60.4914 31.8644 60.5181 31.8653 60.5457 31.8662C60.611 31.8684 60.6763 31.8703 60.7417 31.8721C60.6298 31.9816 60.5153 32.0716 60.3698 32.1532C60.3509 32.1639 60.332 32.1746 60.3125 32.1856C60.0875 32.3099 59.8477 32.4113 59.6042 32.5114C59.5755 32.5232 59.5468 32.5351 59.5173 32.5472C59.0331 32.7468 59.0331 32.7468 58.8167 32.831C58.8167 32.8461 58.8167 32.8612 58.8167 32.8767C59.0686 32.9899 59.3208 32.9861 59.6042 32.9908C59.5007 33.0846 59.3778 33.1354 59.2396 33.192C59.2152 33.202 59.1909 33.212 59.1658 33.2223C58.9251 33.3183 58.6769 33.3869 58.4204 33.452C58.3512 33.47 58.2827 33.4892 58.2143 33.5089C57.9891 33.5739 57.773 33.6294 57.5333 33.6529C57.659 33.8393 57.8435 33.8868 58.0875 33.9497C58.0296 34.0404 57.8427 34.0664 57.7244 34.0991C57.3588 34.1942 56.9787 34.2117 56.5965 34.2298C56.3332 34.2427 56.0681 34.2614 55.8125 34.315C55.9078 34.5343 56.112 34.6238 56.3667 34.726C56.3667 34.7335 56.3667 34.7411 56.3667 34.7488C55.5215 34.76 54.6832 34.7522 53.8583 34.589C53.8116 34.5802 53.7648 34.5714 53.7181 34.5626C52.9491 34.4145 52.2384 34.1576 51.6417 33.7443C51.6196 33.7292 51.5975 33.7141 51.5748 33.6985C51.1915 33.4187 50.8285 32.9659 50.7375 32.557C50.7797 32.46 50.8781 32.3947 50.9689 32.3242C50.9862 32.3106 51.0035 32.297 51.0213 32.2831C51.058 32.2543 51.0947 32.2256 51.1315 32.197C51.1869 32.1539 51.2419 32.1106 51.2969 32.0673C51.5002 31.9079 51.7075 31.7608 51.9333 31.621C52.0008 31.5764 52.0673 31.5309 52.1339 31.4854C52.3238 31.3571 52.5199 31.2362 52.7208 31.1187C52.7405 31.1071 52.7603 31.0955 52.7806 31.0836C53.3678 30.7392 53.9709 30.4162 54.5915 30.1098C54.6667 30.0726 54.7416 30.0351 54.8165 29.9975C55.6703 29.5695 56.5563 29.1777 57.4495 28.8025C57.5342 28.7667 57.6187 28.7305 57.7031 28.6942C58.0128 28.561 58.3239 28.4316 58.6417 28.3105C58.4276 28.357 58.2197 28.4152 58.0109 28.4746C57.9902 28.4805 57.9694 28.4864 57.948 28.4925C57.1759 28.7125 56.4146 28.9574 55.6667 29.2237C55.6344 29.2352 55.6022 29.2466 55.5689 29.2585C54.8622 29.5105 54.1694 29.7769 53.4962 30.0805C53.4059 30.1208 53.3146 30.1597 53.2231 30.1986C52.2642 30.6073 51.3682 31.1064 50.5023 31.625C50.4787 31.6391 50.4551 31.6532 50.4308 31.6677C50.3797 31.6991 50.3297 31.7316 50.2804 31.7647C50.255 31.7816 50.2296 31.7986 50.2034 31.816C50.1806 31.8317 50.1579 31.8473 50.1345 31.8634C50.0667 31.8949 50.0667 31.8949 49.9902 31.8904C49.4956 31.7602 49.0206 31.4011 48.7805 31.0465C48.733 30.9708 48.6924 30.8934 48.6539 30.8148C48.6467 30.8 48.6395 30.7853 48.6321 30.7701C48.3288 30.1085 48.6248 29.3212 48.9868 28.7143C49.0424 28.6241 49.102 28.5357 49.1625 28.4475C49.1721 28.433 49.1818 28.4186 49.1917 28.4038C49.5244 27.9072 49.986 27.3524 50.5625 27.0091C50.5724 27.0361 50.5822 27.063 50.5924 27.0908C50.6055 27.1264 50.6186 27.1619 50.6318 27.1975C50.6382 27.2152 50.6447 27.233 50.6514 27.2512C50.6578 27.2685 50.6642 27.2857 50.6707 27.3034C50.6765 27.3192 50.6823 27.335 50.6883 27.3512C50.7094 27.3996 50.7362 27.4434 50.7667 27.4886C50.893 27.4526 50.963 27.3761 51.0456 27.2973C51.0767 27.2683 51.1078 27.2393 51.139 27.2103C51.1547 27.1957 51.1704 27.1811 51.1866 27.1661C51.2697 27.09 51.3567 27.0167 51.4437 26.9433C51.5148 26.8832 51.5837 26.8223 51.6508 26.7594C51.7505 26.6693 51.8607 26.5883 51.9716 26.5068C51.9898 26.4934 52.008 26.4799 52.0267 26.4661C52.1596 26.3698 52.1596 26.3698 52.225 26.3698C52.2266 26.4095 52.2266 26.4095 52.2283 26.4499C52.2302 26.4851 52.2322 26.5202 52.2341 26.5553C52.2348 26.5727 52.2354 26.5901 52.2361 26.608C52.2442 26.7408 52.2755 26.8431 52.4 26.9406C52.4577 26.9414 52.4577 26.9414 52.5167 26.9178C52.5751 26.8693 52.5751 26.8693 52.6315 26.8079C52.9184 26.5252 53.3266 26.2149 53.7708 26.0959C53.7564 26.1222 53.742 26.1486 53.7271 26.1758C53.6826 26.2716 53.6533 26.3601 53.6833 26.4612C53.7341 26.5415 53.7934 26.6157 53.8583 26.6895C53.9732 26.659 54.0419 26.6216 54.1281 26.5553C54.4716 26.3076 54.867 26.116 55.2875 25.9589C55.3065 25.9518 55.3255 25.9446 55.3451 25.9373C55.3931 25.9201 55.4423 25.9051 55.4917 25.8904Z" fill="#EEEEEE"/>
<path d="M45.2185 40.2061C46.0745 40.8153 46.478 41.717 46.5424 42.6017C46.6033 43.7908 46.0099 44.9972 44.9971 45.8789C44.9656 45.9054 44.9656 45.9054 44.9334 45.9325C44.8791 45.9782 44.8278 46.0252 44.7766 46.073C44.4342 46.3791 44.002 46.6143 43.5625 46.8264C43.5348 46.8403 43.507 46.8541 43.4784 46.8684C43.2189 46.9934 42.9417 47.0828 42.6583 47.1689C42.6369 47.1755 42.6155 47.1821 42.5934 47.1888C42.0611 47.3489 41.5181 47.4054 40.9503 47.4058C40.9121 47.4058 40.874 47.4059 40.8348 47.4059C40.4763 47.4027 40.1216 47.3767 39.7781 47.293C39.7539 47.2872 39.7296 47.2814 39.7046 47.2754C38.672 47.0158 37.8427 46.4419 37.3479 45.6922C37.2546 45.5447 37.1748 45.3947 37.1039 45.2397C37.095 45.2205 37.0861 45.2014 37.0769 45.1816C36.9203 44.8184 36.8641 44.4475 36.8697 44.0659C36.8706 44.0038 36.8703 43.9417 36.8699 43.8796C36.8705 43.5104 36.9312 43.1549 37.062 42.7996C37.0707 42.7757 37.0794 42.7517 37.0884 42.7271C37.2916 42.1898 37.6247 41.6825 38.05 41.2328C38.0692 41.2124 38.0692 41.2124 38.0888 41.1916C38.358 40.9083 38.6606 40.6329 39.0125 40.4109C39.0435 40.3904 39.0744 40.37 39.1054 40.3495C39.3783 40.1711 39.6667 40.0239 39.975 39.8858C39.9939 39.8772 40.0129 39.8686 40.0324 39.8598C41.6995 39.1094 43.7673 39.198 45.2185 40.2061Z" fill="#EEEEEE"/>
<path d="M52.5167 39.1681C52.5374 39.1682 52.5581 39.1683 52.5795 39.1684C53.9227 39.1761 55.1425 39.6119 56.1239 40.3179C56.1703 40.3504 56.2182 40.3817 56.2672 40.4119C56.3301 40.4519 56.3802 40.491 56.4323 40.5394C56.4873 40.5901 56.5424 40.6399 56.6008 40.6882C57.6641 41.5717 58.1792 42.7976 58.1551 43.9948C58.1156 44.9407 57.5785 45.8181 56.7094 46.464C55.8443 47.0618 54.7258 47.2643 53.5958 47.2146C52.6662 47.1373 51.7801 46.8458 51.0292 46.4155C51.0112 46.4053 50.9932 46.3951 50.9747 46.3845C50.277 45.983 49.7122 45.4714 49.2792 44.8859C49.2679 44.8707 49.2566 44.8555 49.245 44.8399C48.5863 43.9415 48.2435 42.7349 48.5792 41.7123C48.5859 41.6918 48.5926 41.6713 48.5996 41.6501C48.7782 41.1244 49.0598 40.6661 49.5125 40.2511C49.542 40.2235 49.542 40.2235 49.5721 40.1952C50.2998 39.5343 51.4083 39.1599 52.5167 39.1681Z" fill="#EEEEEE"/>
<path d="M48.6083 46.7351C48.6439 46.7395 48.6795 46.7439 48.7161 46.7485C49.2284 46.8229 49.7286 46.9717 50.1833 47.1689C50.2186 47.1836 50.2539 47.1983 50.2892 47.213C50.678 47.3775 51.0026 47.5935 51.3208 47.831C51.3454 47.8488 51.3699 47.8665 51.3952 47.8848C51.743 48.144 52.0097 48.4555 52.225 48.7899C52.2352 48.8057 52.2454 48.8215 52.256 48.8378C52.7816 49.6672 52.8309 50.616 52.4606 51.4904C52.258 51.9413 51.952 52.3334 51.5542 52.694C51.5344 52.7123 51.5145 52.7306 51.4941 52.7495C51.3684 52.8635 51.2363 52.964 51.0875 53.0593C51.0588 53.0781 51.0301 53.0969 51.0005 53.1162C50.3434 53.5383 49.536 53.8543 48.6958 53.9726C48.6762 53.9756 48.6565 53.9787 48.6363 53.9818C47.2906 54.1874 45.8568 53.977 44.7 53.4018C44.4299 53.259 44.1767 53.0991 43.9417 52.9223C43.92 52.9064 43.92 52.9064 43.8979 52.8902C43.3055 52.4545 42.8524 51.8776 42.6583 51.2557C42.651 51.2331 42.6436 51.2106 42.636 51.1873C42.6123 51.1114 42.591 51.0354 42.5708 50.9589C42.5647 50.9361 42.5587 50.9132 42.5524 50.8897C42.3531 50.0012 42.6703 49.0751 43.3219 48.3419C43.4822 48.1656 43.661 48.0082 43.8542 47.8538C43.8763 47.8354 43.8984 47.8169 43.9212 47.7979C45.1089 46.8258 46.9661 46.5183 48.6083 46.7351Z" fill="#EEEEEE"/>
<path d="M59.8904 48.292C60.3726 48.609 60.5645 49.1706 60.6833 49.6348C60.6887 49.6548 60.6941 49.6749 60.6997 49.6956C60.9011 50.4682 60.871 51.3245 60.5667 52.0777C60.5547 52.1096 60.5427 52.1415 60.5307 52.1735C60.3801 52.5614 60.1498 52.9186 59.8375 53.2421C59.8077 53.2736 59.7779 53.3052 59.7481 53.3368C59.5784 53.5149 59.4024 53.6843 59.2076 53.8458C59.1496 53.8941 59.095 53.9432 59.0409 53.9941C58.3489 54.612 57.3724 55.0718 56.3667 55.2969C56.3426 55.3024 56.3185 55.308 56.2936 55.3137C55.9278 55.3958 55.5748 55.4214 55.1964 55.421C55.1761 55.421 55.1558 55.421 55.135 55.421C54.5704 55.4195 53.9375 55.3549 53.5083 55.0357C53.1326 54.7076 53.0601 54.292 53.0632 53.8675C53.0635 53.8174 53.0632 53.7674 53.0629 53.7174C53.0606 52.0802 54.2312 50.6257 55.653 49.5045C55.6859 49.4785 55.7188 49.4525 55.7517 49.4265C55.957 49.2639 56.1669 49.1149 56.3958 48.9727C56.4258 48.9527 56.4557 48.9326 56.4853 48.9123C57.3495 48.3247 58.7952 47.6728 59.8904 48.292Z" fill="#EEEEEE"/>
<path d="M38.7773 49.5819C38.9039 49.6649 39.027 49.7507 39.149 49.8378C39.2077 49.8795 39.2675 49.9198 39.3279 49.96C39.5802 50.1322 39.8212 50.3223 40.0333 50.5251C40.0568 50.5471 40.0803 50.5692 40.1045 50.592C40.8878 51.3406 41.3843 52.2577 41.5687 53.2109C41.5771 53.2543 41.5866 53.2975 41.5965 53.3406C41.6727 53.8811 41.6525 54.4889 41.2 54.9315C41.1861 54.9457 41.1723 54.9599 41.158 54.9745C41.0064 55.1116 40.801 55.1706 40.5875 55.2283C40.5356 55.2425 40.5356 55.2425 40.4826 55.2571C39.4068 55.5012 38.2423 55.215 37.2917 54.8173C36.8429 54.6166 36.4385 54.3668 36.0667 54.0867C36.0483 54.073 36.03 54.0593 36.0111 54.0451C35.7574 53.8542 35.5222 53.6594 35.3132 53.4376C35.2815 53.4042 35.2488 53.3715 35.2159 53.3389C35.0466 53.1669 34.9294 52.9811 34.8125 52.7853C34.8029 52.7696 34.7932 52.7539 34.7833 52.7376C34.6035 52.4428 34.469 52.1383 34.3458 51.8264C34.3392 51.8097 34.3326 51.7929 34.3258 51.7757C34.2339 51.5383 34.1823 51.2957 34.1417 51.0502C34.1388 51.033 34.136 51.0158 34.133 50.9981C34.1078 50.8273 34.1071 50.6569 34.107 50.4851C34.1067 50.4561 34.1063 50.4272 34.1059 50.3974C34.105 49.888 34.2398 49.3454 34.6718 48.9456C35.8151 48.0525 37.7922 48.9593 38.7773 49.5819Z" fill="#EEEEEE"/>
<path d="M48.7833 34.9543C48.8192 34.9617 48.8551 34.969 48.8921 34.9766C48.9838 34.9971 49.0728 35.0205 49.1625 35.0457C49.1827 35.0511 49.2029 35.0566 49.2237 35.0622C50.3184 35.3593 51.4761 35.8688 52.0074 36.7154C52.164 37.0105 52.1667 37.3523 52.0142 37.6496C51.6516 38.2221 50.9569 38.5413 50.2085 38.742C49.7576 38.8597 49.311 38.9381 48.8417 38.9954C48.8196 38.9982 48.7975 39.001 48.7748 39.0039C47.911 39.1098 46.8998 39.0894 46.0494 38.9386C46.0004 38.9299 45.9514 38.9216 45.9023 38.9134C45.4733 38.8415 45.0704 38.7498 44.6708 38.6073C44.6495 38.5997 44.6282 38.5921 44.6063 38.5843C43.9168 38.3343 43.2932 37.9756 42.9792 37.4201C42.9651 37.3967 42.9651 37.3967 42.9508 37.3729C42.8444 37.1687 42.8478 36.9129 42.9482 36.708C43.4451 35.9028 44.5825 35.3498 45.6284 35.0639C46.6355 34.7975 47.7505 34.7301 48.7833 34.9543Z" fill="#EEEEEE"/>
<path d="M47.695 55.1741C47.7268 55.174 47.7585 55.174 47.7912 55.174C49.1498 55.1742 51.0638 55.2544 52.1083 56.0274C52.4079 56.2672 52.4079 56.2672 52.4109 56.464C52.4076 56.611 52.37 56.7199 52.2833 56.8493C52.271 56.8678 52.2586 56.8863 52.2458 56.9053C51.9273 57.347 51.4073 57.7026 50.8833 57.9909C50.8638 58.0016 50.8442 58.0124 50.824 58.0235C49.5711 58.7048 48.0109 59.0734 46.4862 58.8608C45.9873 58.7825 45.5105 58.662 45.05 58.4931C45.0304 58.4861 45.0108 58.479 44.9905 58.4717C44.5022 58.2939 44.036 58.0772 43.6208 57.8082C43.6052 57.7982 43.5895 57.7883 43.5734 57.778C43.1227 57.4908 42.5919 57.1432 42.4943 56.6695C42.5082 56.4843 42.6626 56.2981 42.8354 56.1771C42.8539 56.1654 42.8725 56.1536 42.8917 56.1415C42.9102 56.1296 42.9288 56.1176 42.9479 56.1052C43.7862 55.609 44.9069 55.4039 45.925 55.274C45.96 55.2694 45.9949 55.2649 46.031 55.2602C46.5855 55.1912 47.1339 55.1742 47.695 55.1741Z" fill="#EEEEEE"/>
<path d="M34.5828 41.6552C34.892 41.7935 35.0413 42.0654 35.1388 42.3216C35.3879 43.0978 35.3264 43.9604 35.2022 44.7481C35.1932 44.8075 35.1855 44.8666 35.179 44.9261C35.0747 45.8545 34.7708 46.8604 34.2292 47.694C34.2201 47.7083 34.2111 47.7225 34.2018 47.7371C34.0388 47.9903 33.8113 48.259 33.4746 48.3858C33.3182 48.426 33.1812 48.4113 33.0333 48.3561C32.3393 47.9388 31.9155 47.2851 31.6625 46.6438C31.6565 46.6288 31.6504 46.6139 31.6442 46.5984C31.4741 46.1736 31.4223 45.7639 31.4219 45.3224C31.4219 45.3025 31.4218 45.2826 31.4218 45.2621C31.4223 44.9712 31.4344 44.691 31.5167 44.4064C31.5215 44.3881 31.5264 44.3699 31.5314 44.3512C31.8139 43.2987 32.6422 42.3913 33.7843 41.8001C34.2807 41.5506 34.2807 41.5506 34.5828 41.6552Z" fill="#EEEEEE"/>
<path d="M60.4928 41.5581C60.6817 41.6455 60.8584 41.746 61.0333 41.8493C61.0507 41.8595 61.0681 41.8697 61.0861 41.8802C61.179 41.9354 61.2671 41.994 61.3542 42.0548C61.3689 42.0648 61.3836 42.0749 61.3987 42.0852C62.0915 42.5596 62.6279 43.1907 62.9 43.8813C62.9097 43.9059 62.9097 43.9059 62.9196 43.9311C63.3563 45.0689 63.1674 46.3154 62.4535 47.3589C62.2652 47.6268 62.0307 47.86 61.7625 48.0822C61.7434 48.098 61.7244 48.1139 61.7047 48.1303C61.569 48.2401 61.4774 48.2941 61.2758 48.2991C61.0818 48.2963 60.9732 48.2486 60.8292 48.1507C60.8028 48.1337 60.8028 48.1337 60.7758 48.1164C60.0957 47.6368 59.8711 46.737 59.6625 46.0731C59.6549 46.0492 59.6474 46.0254 59.6396 46.0008C59.5479 45.7071 59.4849 45.4096 59.4237 45.1113C59.42 45.0934 59.4163 45.0756 59.4125 45.0572C59.3125 44.5717 59.2731 44.0953 59.2741 43.6033C59.2742 43.5131 59.2735 43.4229 59.2728 43.3327C59.2711 42.7918 59.2819 42.0722 59.7926 41.653C59.9934 41.5098 60.2423 41.4591 60.4928 41.5581Z" fill="#EEEEEE"/>
<path d="M55.1708 35.685C55.2001 35.6893 55.2293 35.6935 55.2594 35.698C56.7021 35.9148 57.9623 36.5218 58.8008 37.4692C59.2817 38.0289 59.5505 38.6557 59.6788 39.3187C59.6876 39.3633 59.6972 39.4077 59.7075 39.4521C59.7488 39.6384 59.76 39.8213 59.7592 40.0099C59.7591 40.0592 59.7598 40.1085 59.7605 40.1578C59.7606 40.1894 59.7606 40.221 59.7606 40.2527C59.7607 40.2809 59.7608 40.3092 59.7609 40.3383C59.7492 40.4164 59.7336 40.4478 59.6625 40.5023C59.3433 40.5856 59.0577 40.4708 58.7742 40.3614C58.4534 40.2345 58.151 40.0899 57.8542 39.9315C57.8316 39.9195 57.809 39.9075 57.7857 39.8952C57.2519 39.6101 56.7395 39.3033 56.241 38.9816C56.1702 38.936 56.0988 38.8909 56.0276 38.8456C55.7578 38.6725 55.4938 38.4941 55.2354 38.3105C55.1774 38.2695 55.1188 38.2293 55.0596 38.1892C54.8248 38.0289 54.5964 37.8631 54.378 37.6892C54.3244 37.648 54.269 37.6096 54.212 37.5714C54.0069 37.4329 53.8194 37.281 53.6436 37.1199C53.5969 37.0786 53.5481 37.0403 53.4974 37.002C53.3881 36.9178 53.2928 36.826 53.1968 36.7324C53.153 36.6898 53.1085 36.6477 53.0633 36.606C52.8271 36.3872 52.5532 36.1297 52.5039 35.8376C52.5167 35.7763 52.5167 35.7763 52.5675 35.7397C52.6865 35.682 52.8173 35.6769 52.9542 35.6621C52.9899 35.6579 53.0257 35.6536 53.0625 35.6492C53.7488 35.5754 54.491 35.5802 55.1708 35.685Z" fill="#EEEEEE"/>
<path d="M40.4654 35.5209C40.5015 35.5209 40.5015 35.5209 40.5383 35.5209C40.8981 35.5212 41.2518 35.53 41.6083 35.5708C41.6423 35.5744 41.6762 35.5779 41.7112 35.5816C41.9104 35.6055 41.9104 35.6055 41.9808 35.6467C42.0357 35.7053 42.023 35.7594 42.0096 35.8285C41.7948 36.4309 40.9462 36.9838 40.396 37.4132C40.3319 37.4633 40.2679 37.5135 40.2039 37.5637C40.1624 37.5962 40.1209 37.6287 40.0794 37.6611C40.0606 37.6758 40.0419 37.6906 40.0225 37.7057C39.9113 37.7924 39.7968 37.8749 39.6778 37.9551C39.5952 38.0112 39.5154 38.0696 39.4354 38.1279C39.0736 38.3903 38.6959 38.6384 38.3125 38.8813C38.297 38.8912 38.2814 38.9011 38.2654 38.9113C37.9475 39.1138 37.6212 39.307 37.2917 39.4978C37.2691 39.5109 37.2466 39.524 37.2234 39.5375C36.7888 39.7898 36.3429 40.0187 35.8643 40.2169C35.8374 40.2282 35.8105 40.2394 35.7828 40.251C35.5315 40.3528 35.2472 40.4656 34.9583 40.4338C34.8579 40.3853 34.8208 40.3619 34.7833 40.274C34.7309 39.6843 34.8185 39.0795 35.0458 38.516C35.0521 38.5002 35.0583 38.4843 35.0647 38.468C35.3166 37.8369 35.7508 37.283 36.3292 36.8037C36.3491 36.7869 36.369 36.7701 36.3896 36.7528C36.7042 36.496 37.0753 36.2967 37.4667 36.1188C37.4959 36.1054 37.4959 36.1054 37.5258 36.0918C38.42 35.6901 39.441 35.52 40.4654 35.5209Z" fill="#EEEEEE"/>
<path d="M58.7583 28.2876C58.614 28.3404 58.4696 28.3931 58.3208 28.4474C58.3305 28.4173 58.3401 28.3872 58.35 28.3561C58.42 28.3264 58.42 28.3264 58.5068 28.3033C58.5353 28.2954 58.5638 28.2875 58.5931 28.2793C58.6708 28.2648 58.6708 28.2648 58.7583 28.2876Z" fill="#9BA4B5"/>
</g>
<defs>
<clipPath id="clip0_338_2">
<rect width="35" height="35" fill="white" transform="translate(30 25)"/>
</clipPath>
</defs>
</svg>
