<svg width="87" height="129" viewBox="0 0 87 129" fill="none" xmlns="http://www.w3.org/2000/svg">
<path d="M31.8338 2.67699L61.7196 5.29166C75.1991 6.47097 85.1704 18.3543 83.9911 31.8337L81.3764 61.7196C80.1971 75.1991 68.3138 85.1703 54.8343 83.991L24.9485 81.3764C11.469 80.1971 1.4977 68.3138 2.677 54.8343L5.29168 24.9484C6.47098 11.469 18.3543 1.49769 31.8338 2.67699Z" fill="#D9D9D9" stroke="#D9D9D9"/>
<rect x="13.8338" y="13.834" width="59" height="59" rx="19.5" fill="#9BA4B5" stroke="#9BA4B5"/>
<path d="M34.5363 26.1244C33.5449 26.5045 32.858 27.182 32.3818 28.2561C31.9681 29.198 31.8276 29.9416 31.7808 31.4041C31.7417 32.8583 31.8354 33.8746 32.1711 35.6097C32.3038 36.2872 32.4286 36.9399 32.4443 37.0556C32.4755 37.2456 32.4286 37.2787 31.7495 37.5513C29.9229 38.2619 28.4788 39.1873 27.425 40.311C26.3634 41.4429 25.9185 42.5088 26.0122 43.7481C26.1136 45.2271 27.066 46.6482 28.7677 47.8463C29.4546 48.3338 31.0236 49.1518 31.8432 49.4575C32.1242 49.5566 32.3818 49.6723 32.4208 49.7053C32.4521 49.7384 32.3974 50.168 32.2881 50.6638C31.8666 52.5889 31.812 53.1012 31.812 55.0677C31.812 56.7284 31.8276 56.9928 31.9837 57.5877C32.3662 59.0667 33.0687 60.0912 34.0445 60.5952C36.1989 61.7106 39.0715 60.5208 42.7247 57.0258L43.3101 56.4557L43.9424 57.0506C45.7378 58.7196 47.6268 59.8764 49.1646 60.2399C49.5705 60.3391 49.9608 60.3639 50.5072 60.3391C51.2019 60.306 51.3424 60.2647 51.8654 59.9921C53.692 59.0336 54.496 56.6127 54.1682 53.0764C54.0979 52.3493 53.8872 50.9612 53.7311 50.1928C53.692 49.9945 53.7232 49.9697 54.2619 49.788C55.1361 49.4905 56.4787 48.9039 57.2125 48.4825C59.9212 46.9457 61.256 44.971 60.9594 42.9384C60.6315 40.6663 58.2195 38.5593 54.4804 37.2621C54.1135 37.1382 53.7857 37.006 53.7545 36.973C53.7154 36.9399 53.7779 36.4359 53.8872 35.8493C54.6053 31.9164 54.176 28.9419 52.6694 27.5125C50.796 25.7361 47.6971 26.5293 44.161 29.6938C43.7004 30.1069 43.3023 30.4457 43.2711 30.4457C43.2399 30.4457 42.9511 30.173 42.6232 29.8425C40.9371 28.1404 39.1027 26.868 37.5415 26.3062C36.9015 26.0748 36.6673 26.0335 35.8633 26.0087C35.1061 25.9839 34.8485 26.0087 34.5363 26.1244ZM37.1044 27.5621C38.5407 28.0661 40.0394 29.1154 41.8738 30.8918L42.4202 31.4206L41.866 32.032C41.1869 32.7839 40.3283 33.8828 39.5399 34.9735L38.9544 35.7997L38.5017 35.8575C37.5572 35.9732 35.7462 36.3202 34.786 36.5681C34.2318 36.7086 33.7557 36.7912 33.7166 36.7581C33.6152 36.6425 33.2639 34.8578 33.1234 33.7424C32.9673 32.4782 33.0141 30.4209 33.2092 29.6607C33.7635 27.5621 35.0827 26.8432 37.1044 27.5621ZM51.0224 28.0082C51.8654 28.2726 52.5446 29.2228 52.8178 30.5283C53.0832 31.7759 52.9348 34.7173 52.5289 36.3202L52.4509 36.6177L51.8186 36.469C51.0146 36.2707 49.2036 35.9402 48.1888 35.8162L47.3926 35.7171L46.5652 34.5521C46.1125 33.9076 45.3943 32.9492 44.965 32.4286L44.1922 31.4785L44.3561 31.2802C44.4498 31.1727 44.8791 30.7927 45.3084 30.4209C47.6424 28.4296 49.6564 27.5786 51.0224 28.0082ZM44.0439 33.3292C44.442 33.825 44.9884 34.5273 45.2538 34.8908L45.7378 35.5601L43.2243 35.5849C41.8348 35.6014 40.6951 35.6014 40.6795 35.6014C40.6015 35.5683 43.1462 32.4369 43.2555 32.4286C43.2867 32.4286 43.6458 32.8335 44.0439 33.3292ZM46.0422 36.9482L46.6979 36.9977L47.1819 37.7909C48.2825 39.5921 50.1091 43.1202 50.1091 43.4507C50.1091 43.5251 49.8671 44.1034 49.5705 44.7314C48.4542 47.0779 46.8696 49.821 46.5418 49.9532C45.9485 50.1928 39.9536 50.0937 39.6569 49.8375C39.212 49.4492 36.1365 43.8886 36.1365 43.4672C36.1365 43.145 37.9865 39.6913 39.0949 37.9397L39.6413 37.0721L40.1331 37.0225C40.4063 36.9977 40.7654 36.9564 40.9371 36.9482C41.5538 36.8903 45.4021 36.8903 46.0422 36.9482ZM51.1941 37.6835C51.6859 37.7909 52.1074 37.8983 52.123 37.9149C52.1933 37.9975 50.9209 41.7652 50.8272 41.7652C50.796 41.7652 50.5775 41.3686 50.3433 40.8811C50.1091 40.4019 49.5705 39.3856 49.1412 38.6337C48.7196 37.8818 48.3606 37.2374 48.345 37.2126C48.3059 37.1382 50.1559 37.4439 51.1941 37.6835ZM37.9318 37.3365C37.9318 37.3448 37.6274 37.8818 37.2527 38.518C36.8702 39.1542 36.3238 40.1623 36.0194 40.7571C35.7228 41.352 35.4495 41.8478 35.4261 41.8478C35.3637 41.8478 34.5284 39.6087 34.263 38.7659C34.1694 38.4519 34.1225 38.171 34.1538 38.1297C34.3333 37.9562 37.9318 37.196 37.9318 37.3365ZM54.4258 38.6337C57.0954 39.6748 58.8752 40.9885 59.4918 42.4014C59.9992 43.5416 59.7416 44.6157 58.7034 45.7311C58.0868 46.3921 57.111 47.0862 56.0182 47.6315C55.1205 48.0776 53.411 48.7304 53.3564 48.6395C53.3408 48.6064 53.2315 48.2429 53.1144 47.838C52.8802 47.0035 52.2167 45.1197 51.8108 44.1199L51.5376 43.459L52.0294 42.2196C52.3026 41.5338 52.7085 40.3771 52.9348 39.6417C53.1768 38.8568 53.3876 38.2949 53.45 38.2949C53.4969 38.2949 53.9418 38.4519 54.4258 38.6337ZM33.2092 39.5756C33.5761 40.6828 34.0445 41.9304 34.4114 42.7814C34.5441 43.0954 34.6533 43.3929 34.6533 43.4424C34.6533 43.5003 34.427 44.1034 34.1538 44.7892C33.8727 45.475 33.4668 46.5739 33.2483 47.2349L32.8424 48.4329L32.3272 48.2346C31.4139 47.8959 29.7902 47.0035 29.1502 46.4995C28.3696 45.8881 27.7841 45.2106 27.4953 44.5909C27.3158 44.2026 27.2767 44.0125 27.2767 43.5003C27.2767 42.9549 27.308 42.8062 27.5421 42.3105C28.1276 41.0546 29.6653 39.8648 31.9993 38.8651C32.4052 38.6915 32.7721 38.5593 32.8111 38.5676C32.8502 38.5841 33.0297 39.0386 33.2092 39.5756ZM35.8633 45.8633C36.2379 46.6482 37.1434 48.2759 37.7211 49.2179C37.885 49.4823 37.9865 49.6971 37.9474 49.6971C37.7523 49.6971 35.9647 49.3253 35.1061 49.1104C34.427 48.9369 34.1069 48.8213 34.1069 48.7469C34.1069 48.4908 35.3403 45.0701 35.4261 45.0701C35.4495 45.0701 35.6447 45.4337 35.8633 45.8633ZM51.2644 46.2434C51.803 47.7637 52.1543 48.97 52.084 49.0443C51.9591 49.1683 48.4308 49.8541 48.3528 49.7632C48.3372 49.7467 48.462 49.4905 48.6416 49.2013C49.0865 48.4577 50.195 46.3839 50.5072 45.7063C50.6477 45.4006 50.7882 45.1528 50.8194 45.1528C50.8507 45.1528 51.0458 45.6485 51.2644 46.2434ZM34.7704 50.3994C35.3949 50.5646 37.2683 50.9117 38.7593 51.1513C38.9466 51.1761 39.0793 51.3083 39.3837 51.7379C39.977 52.5972 41.0386 53.9605 41.7567 54.7785L42.4046 55.5221L41.827 56.0839C38.8998 58.9758 36.1911 60.2317 34.6377 59.4219C33.9352 59.0584 33.4981 58.4057 33.1936 57.2737C33.0063 56.5797 32.9751 54.3158 33.1312 53.126C33.2483 52.2089 33.6073 50.3168 33.6932 50.168C33.7166 50.135 33.7869 50.1267 33.8571 50.1433C33.9352 50.168 34.3411 50.2837 34.7704 50.3994ZM52.4899 50.4324C52.5133 50.482 52.6226 51.0604 52.7397 51.7379C53.0129 53.4152 53.0363 55.5964 52.7787 56.5797C52.3338 58.2983 51.5688 59.0336 50.2262 59.0336C48.7743 59.0336 46.6433 57.8438 44.5747 55.8691L44.1688 55.489L44.9494 54.5306C45.3787 54.0101 46.089 53.0681 46.534 52.4402C46.9711 51.8205 47.3614 51.2835 47.4004 51.2587C47.4395 51.2256 47.7517 51.1843 48.0952 51.1513C48.7977 51.0934 51.1629 50.672 51.8264 50.4903C52.365 50.3498 52.4353 50.3415 52.4899 50.4324ZM45.6675 51.4735C44.8401 52.6468 43.3648 54.4893 43.2399 54.4893C43.1696 54.4893 41.8738 52.9525 41.1869 52.0519L40.6873 51.3826L43.2086 51.3909C44.8713 51.3909 45.7066 51.4157 45.6675 51.4735Z" fill="#EEEEEE"/>
<path d="M42.5919 39.6252C41.6942 39.8483 40.6482 40.7076 40.2032 41.5999C38.9777 44.0291 40.375 46.9705 42.9509 47.4001C43.7159 47.5241 44.4184 47.4001 45.16 47.0201C47.0647 46.0203 47.7672 43.6407 46.7758 41.5669C46.5261 41.0381 45.8001 40.2697 45.3005 40.0053C44.4809 39.5674 43.4271 39.4186 42.5919 39.6252ZM44.6058 41.1207C45.4332 41.5751 45.9016 42.3435 45.9562 43.335C46.0187 44.4752 45.5425 45.3345 44.5824 45.8303C43.552 46.3673 42.4201 46.136 41.6473 45.2271C40.4686 43.839 40.9994 41.6577 42.6777 40.9802C43.1461 40.7902 44.1218 40.8646 44.6058 41.1207Z" fill="#EEEEEE"/>
<path d="M13.3944 120V109.091H17.4853C18.3233 109.091 19.0265 109.237 19.5946 109.528C20.1664 109.819 20.5978 110.227 20.889 110.753C21.1838 111.275 21.3311 111.884 21.3311 112.58C21.3311 113.279 21.182 113.887 20.8837 114.402C20.589 114.913 20.1539 115.309 19.5787 115.589C19.0034 115.866 18.2967 116.005 17.4586 116.005H14.5449V114.364H17.1923C17.6824 114.364 18.0836 114.297 18.3961 114.162C18.7086 114.023 18.9395 113.823 19.0886 113.56C19.2413 113.294 19.3176 112.967 19.3176 112.58C19.3176 112.193 19.2413 111.863 19.0886 111.589C18.9359 111.312 18.7033 111.103 18.3908 110.961C18.0783 110.815 17.6752 110.742 17.1816 110.742H15.3706V120H13.3944ZM19.03 115.057L21.7306 120H19.5254L16.8727 115.057H19.03ZM26.57 120.16C25.7496 120.16 25.0412 119.989 24.4446 119.648C23.8516 119.304 23.3952 118.817 23.0756 118.189C22.756 117.557 22.5962 116.813 22.5962 115.957C22.5962 115.115 22.756 114.377 23.0756 113.741C23.3988 113.102 23.8498 112.605 24.4286 112.25C25.0075 111.891 25.6875 111.712 26.4688 111.712C26.973 111.712 27.4489 111.793 27.8963 111.957C28.3473 112.116 28.745 112.365 29.0895 112.702C29.4375 113.04 29.7109 113.469 29.9098 113.991C30.1087 114.51 30.2081 115.128 30.2081 115.845V116.436H23.5018V115.137H28.3597C28.3562 114.767 28.2763 114.439 28.12 114.151C27.9638 113.86 27.7454 113.631 27.4648 113.464C27.1879 113.297 26.8647 113.214 26.4954 113.214C26.1012 113.214 25.755 113.31 25.4567 113.501C25.1584 113.69 24.9258 113.938 24.7589 114.247C24.5955 114.553 24.5121 114.888 24.5085 115.254V116.388C24.5085 116.864 24.5955 117.273 24.7695 117.614C24.9435 117.951 25.1868 118.21 25.4993 118.391C25.8118 118.569 26.1776 118.658 26.5966 118.658C26.8771 118.658 27.131 118.619 27.3583 118.54C27.5856 118.459 27.7827 118.34 27.9496 118.184C28.1165 118.027 28.2425 117.834 28.3278 117.603L30.1282 117.805C30.0146 118.281 29.7979 118.697 29.4783 119.052C29.1623 119.403 28.7575 119.677 28.2638 119.872C27.7702 120.064 27.2056 120.16 26.57 120.16ZM34.1938 120.165C33.6753 120.165 33.2084 120.073 32.7929 119.888C32.3809 119.7 32.0542 119.423 31.8128 119.057C31.5748 118.691 31.4559 118.24 31.4559 117.704C31.4559 117.243 31.5411 116.861 31.7116 116.559C31.882 116.257 32.1146 116.016 32.4094 115.835C32.7041 115.653 33.0361 115.517 33.4055 115.424C33.7783 115.328 34.1636 115.259 34.5613 115.217C35.0407 115.167 35.4296 115.123 35.7279 115.083C36.0262 115.041 36.2428 114.977 36.3778 114.892C36.5162 114.803 36.5855 114.666 36.5855 114.482V114.45C36.5855 114.048 36.4665 113.738 36.2286 113.517C35.9907 113.297 35.648 113.187 35.2006 113.187C34.7282 113.187 34.3536 113.29 34.0766 113.496C33.8032 113.702 33.6185 113.945 33.5226 114.226L31.7222 113.97C31.8643 113.473 32.0986 113.058 32.4253 112.724C32.752 112.386 33.1515 112.134 33.6238 111.967C34.0961 111.797 34.6182 111.712 35.1899 111.712C35.5841 111.712 35.9765 111.758 36.3671 111.85C36.7577 111.942 37.1146 112.095 37.4378 112.308C37.7609 112.518 38.0202 112.804 38.2155 113.166C38.4143 113.528 38.5138 113.981 38.5138 114.524V120H36.6601V118.876H36.5961C36.479 119.103 36.3138 119.316 36.1008 119.515C35.8912 119.711 35.6267 119.869 35.3071 119.989C34.991 120.107 34.6199 120.165 34.1938 120.165ZM34.6945 118.748C35.0816 118.748 35.4172 118.672 35.7013 118.519C35.9854 118.363 36.2037 118.157 36.3564 117.901C36.5127 117.646 36.5908 117.367 36.5908 117.065V116.101C36.5305 116.151 36.4275 116.197 36.2819 116.239C36.1398 116.282 35.98 116.319 35.8025 116.351C35.6249 116.383 35.4491 116.412 35.2751 116.436C35.1011 116.461 34.9502 116.483 34.8224 116.5C34.5347 116.539 34.2773 116.603 34.05 116.692C33.8227 116.781 33.6434 116.905 33.512 117.065C33.3806 117.221 33.3149 117.424 33.3149 117.672C33.3149 118.027 33.4445 118.295 33.7037 118.477C33.963 118.658 34.2932 118.748 34.6945 118.748ZM44.0216 120.16C43.2048 120.16 42.5035 119.98 41.9175 119.622C41.3351 119.263 40.8859 118.768 40.5699 118.136C40.2574 117.5 40.1011 116.768 40.1011 115.941C40.1011 115.11 40.2609 114.377 40.5805 113.741C40.9001 113.102 41.3511 112.605 41.9335 112.25C42.5194 111.891 43.2119 111.712 44.0109 111.712C44.675 111.712 45.2627 111.834 45.7741 112.079C46.289 112.321 46.6991 112.663 47.0045 113.107C47.3099 113.548 47.4839 114.062 47.5265 114.652H45.6835C45.6089 114.258 45.4314 113.929 45.1508 113.667C44.8738 113.4 44.5028 113.267 44.0376 113.267C43.6434 113.267 43.2971 113.374 42.9988 113.587C42.7006 113.796 42.468 114.098 42.301 114.492C42.1377 114.886 42.056 115.359 42.056 115.909C42.056 116.467 42.1377 116.946 42.301 117.347C42.4644 117.745 42.6934 118.052 42.9882 118.269C43.2865 118.482 43.6363 118.588 44.0376 118.588C44.3216 118.588 44.5756 118.535 44.7993 118.429C45.0265 118.319 45.2165 118.161 45.3692 117.955C45.5219 117.749 45.6267 117.498 45.6835 117.203H47.5265C47.4804 117.782 47.3099 118.295 47.0152 118.743C46.7204 119.187 46.3192 119.535 45.8113 119.787C45.3035 120.036 44.7069 120.16 44.0216 120.16ZM53.1955 111.818V113.31H48.492V111.818H53.1955ZM49.6532 109.858H51.5815V117.539C51.5815 117.798 51.6206 117.997 51.6987 118.136C51.7804 118.271 51.8869 118.363 52.0183 118.413C52.1497 118.462 52.2953 118.487 52.4551 118.487C52.5758 118.487 52.6859 118.478 52.7853 118.461C52.8883 118.443 52.9664 118.427 53.0197 118.413L53.3446 119.92C53.2417 119.956 53.0943 119.995 52.9025 120.037C52.7143 120.08 52.4835 120.105 52.21 120.112C51.7271 120.126 51.2921 120.053 50.905 119.893C50.5179 119.73 50.2108 119.478 49.9835 119.137C49.7598 118.796 49.6497 118.37 49.6532 117.859V109.858ZM58.5289 111.818H60.4571V120.469C60.4571 121.058 60.3453 121.545 60.1215 121.928C59.8978 122.312 59.5747 122.598 59.1521 122.786C58.7295 122.974 58.2164 123.068 57.6127 123.068C57.5416 123.068 57.4759 123.066 57.4156 123.063C57.3552 123.063 57.2895 123.061 57.2185 123.058V121.486C57.2718 121.49 57.3197 121.491 57.3623 121.491C57.4049 121.495 57.4493 121.497 57.4955 121.497C57.8648 121.497 58.1294 121.406 58.2892 121.225C58.449 121.048 58.5289 120.787 58.5289 120.442V111.818ZM59.4877 110.657C59.1787 110.657 58.9142 110.556 58.694 110.353C58.4774 110.147 58.3691 109.901 58.3691 109.613C58.3691 109.322 58.4774 109.075 58.694 108.873C58.9142 108.667 59.1787 108.564 59.4877 108.564C59.7931 108.564 60.0541 108.667 60.2707 108.873C60.4909 109.075 60.6009 109.322 60.6009 109.613C60.6009 109.901 60.4909 110.147 60.2707 110.353C60.0541 110.556 59.7931 110.657 59.4877 110.657ZM68.9066 113.981L67.1488 114.173C67.0991 113.995 67.0121 113.828 66.8878 113.672C66.767 113.516 66.6037 113.39 66.3977 113.294C66.1918 113.198 65.9396 113.15 65.6413 113.15C65.2401 113.15 64.9027 113.237 64.6293 113.411C64.3594 113.585 64.2262 113.81 64.2298 114.087C64.2262 114.325 64.3132 114.519 64.4908 114.668C64.6719 114.817 64.9702 114.94 65.3857 115.036L66.7812 115.334C67.5554 115.501 68.1307 115.765 68.5071 116.127C68.8871 116.49 69.0788 116.964 69.0824 117.55C69.0788 118.065 68.9279 118.519 68.6296 118.913C68.3349 119.304 67.9247 119.609 67.3991 119.83C66.8736 120.05 66.2699 120.16 65.5881 120.16C64.5866 120.16 63.7805 119.95 63.1697 119.531C62.5589 119.109 62.195 118.521 62.0778 117.768L63.9581 117.587C64.0433 117.956 64.2244 118.235 64.5014 118.423C64.7784 118.612 65.1388 118.706 65.5827 118.706C66.0408 118.706 66.4084 118.612 66.6854 118.423C66.9659 118.235 67.1062 118.002 67.1062 117.725C67.1062 117.491 67.0156 117.298 66.8345 117.145C66.657 116.992 66.38 116.875 66.0036 116.793L64.608 116.5C63.8232 116.337 63.2425 116.062 62.8661 115.675C62.4897 115.284 62.3033 114.79 62.3068 114.194C62.3033 113.69 62.44 113.253 62.717 112.884C62.9975 112.511 63.3864 112.223 63.8835 112.021C64.3842 111.815 64.9613 111.712 65.6147 111.712C66.5735 111.712 67.3281 111.916 67.8786 112.324C68.4325 112.733 68.7752 113.285 68.9066 113.981Z" fill="#9BA4B5"/>
</svg>
