<svg width="87" height="124" viewBox="0 0 87 124" fill="none" xmlns="http://www.w3.org/2000/svg">
<path d="M5.29168 24.9484C6.47098 11.469 18.3543 1.49769 31.8338 2.67699L61.7196 5.29166C75.1991 6.47097 85.1704 18.3543 83.9911 31.8337L81.3764 61.7196C80.1971 75.1991 68.3138 85.1703 54.8343 83.991L24.9485 81.3764C11.469 80.1971 1.4977 68.3138 2.677 54.8343L5.29168 24.9484Z" fill="#D9D9D9" stroke="#D9D9D9"/>
<rect x="13.8338" y="13.834" width="59" height="59" rx="19.5" fill="#9BA4B5" stroke="#9BA4B5"/>
<path d="M42.5014 25.7C42.4307 25.7 26.4014 30.6957 26.4014 30.6957V52.6309C26.4014 52.6309 26.5703 52.6974 26.8307 52.8059C26.8307 52.8059 42.4181 59.3014 42.5014 59.3014C42.5847 59.3014 58.1721 52.8059 58.1721 52.8059C58.4325 52.6974 58.6014 52.6227 58.6014 52.6227V30.693C58.6014 30.693 42.5721 25.7 42.5014 25.7ZM42.5014 27.1342L55.5621 31.2303L49.2402 33.2127L42.5014 35.3264L35.7611 33.2127L29.4406 31.2303L42.5014 27.1342ZM27.8014 32.1832L41.8014 36.5733V57.5486L27.8014 51.6943V32.1832ZM57.2014 32.1832V51.6943L43.2014 57.5486V36.5733L57.2014 32.1832ZM55.4691 36.0606L53.9967 36.5678L52.6637 46.6973L51.0025 37.6014L49.7023 38.0498L47.9715 48.5266L46.5428 39.1395L44.9322 39.6945L47.0828 52.1606L48.6113 51.5344L50.3613 41.3297L52.0457 50.1276L53.4936 49.5342L55.4691 36.0606ZM33.7814 37.6697C33.6705 37.668 33.5612 37.6724 33.4561 37.6834C33.0375 37.7268 32.681 37.8601 32.3828 38.0799C32.0853 38.2997 31.8541 38.5988 31.691 38.9754C31.5279 39.3513 31.4477 39.792 31.4477 40.3016C31.4477 40.8168 31.5253 41.3007 31.6814 41.7522C31.8382 42.2037 32.055 42.63 32.3322 43.0318C32.6108 43.4343 32.9445 43.8176 33.3316 44.183C33.7208 44.5491 34.1466 44.9037 34.61 45.2453C35.0349 45.5617 35.3836 45.8465 35.6559 46.0971C35.9282 46.3477 36.1423 46.586 36.2984 46.8121C36.4545 47.0382 36.5637 47.2642 36.6225 47.4889C36.6813 47.7136 36.71 47.9565 36.71 48.2176C36.71 48.7384 36.5585 49.1049 36.2561 49.3086C35.9558 49.5158 35.507 49.5119 34.9148 49.2977C34.6152 49.1899 34.3371 49.0448 34.0795 48.867C33.8219 48.6892 33.5992 48.4751 33.4109 48.2231C33.224 47.9718 33.0771 47.6832 32.9693 47.3563C32.8615 47.0294 32.808 46.6657 32.808 46.2639L31.1537 45.6815C31.1537 46.3521 31.2615 46.9744 31.4764 47.5477C31.6913 48.1231 31.9746 48.6422 32.3281 49.1049C32.683 49.5697 33.0853 49.9673 33.5354 50.2998C33.9869 50.633 34.4472 50.8884 34.9162 51.0613C35.4454 51.2566 35.928 51.3533 36.3627 51.3512C36.7988 51.3491 37.171 51.2532 37.4797 51.06C37.7898 50.8668 38.0281 50.5814 38.1961 50.2041C38.3648 49.8268 38.449 49.3625 38.449 48.8137C38.449 48.2943 38.3817 47.8053 38.2494 47.344C38.1157 46.8841 37.9126 46.4406 37.6396 46.0164C37.3666 45.5936 37.0251 45.1822 36.6156 44.7818C36.2075 44.3835 35.7262 43.9839 35.1732 43.5856C34.4711 43.0795 33.9521 42.6133 33.6133 42.1842C33.2752 41.7572 33.1061 41.3073 33.1061 40.8348C33.1061 40.5835 33.1407 40.3622 33.2086 40.169C33.2765 39.9751 33.3836 39.8222 33.5271 39.7109C33.6699 39.5989 33.8502 39.535 34.0672 39.5168C34.2849 39.4986 34.5448 39.5371 34.8438 39.633C35.1622 39.7345 35.4364 39.8755 35.6709 40.0568C35.9054 40.2381 36.1007 40.4484 36.2547 40.6899C36.4087 40.9321 36.523 41.1979 36.5979 41.4856C36.6735 41.7733 36.7113 42.0743 36.7113 42.3879L38.4422 42.9567C38.4422 42.4135 38.3606 41.8754 38.1947 41.342C38.0288 40.8086 37.7905 40.3117 37.4811 39.8504C37.1724 39.3912 36.7956 38.9856 36.3504 38.6363C35.9066 38.2877 35.4083 38.0285 34.8574 37.857C34.4721 37.7379 34.1141 37.6749 33.7814 37.6697Z" fill="#EEEEEE"/>
<path d="M9.35325 107.09C9.30353 106.625 9.09402 106.262 8.7247 106.003C8.35893 105.744 7.88308 105.614 7.29714 105.614C6.88521 105.614 6.53187 105.676 6.23713 105.801C5.94238 105.925 5.71689 106.094 5.56064 106.307C5.40439 106.52 5.32449 106.763 5.32093 107.037C5.32093 107.264 5.37243 107.461 5.47541 107.628C5.58194 107.795 5.72576 107.937 5.90687 108.054C6.08798 108.168 6.28862 108.263 6.50879 108.342C6.72896 108.42 6.95091 108.485 7.17463 108.539L8.19735 108.794C8.60929 108.89 9.00524 109.02 9.38521 109.183C9.76873 109.347 10.1114 109.553 10.4133 109.801C10.7187 110.05 10.9601 110.35 11.1377 110.701C11.3153 111.053 11.404 111.465 11.404 111.937C11.404 112.576 11.2407 113.139 10.914 113.626C10.5873 114.109 10.115 114.487 9.49707 114.76C8.88272 115.03 8.13876 115.165 7.26518 115.165C6.41646 115.165 5.6796 115.034 5.0546 114.771C4.43315 114.508 3.94664 114.125 3.59508 113.62C3.24707 113.116 3.05886 112.502 3.03045 111.777H4.9747C5.00311 112.157 5.12029 112.473 5.32626 112.725C5.53223 112.978 5.80034 113.166 6.13059 113.29C6.4644 113.414 6.83727 113.477 7.2492 113.477C7.67889 113.477 8.05531 113.413 8.37846 113.285C8.70517 113.153 8.96085 112.972 9.14551 112.741C9.33017 112.507 9.42427 112.234 9.42782 111.921C9.42427 111.637 9.34082 111.403 9.17747 111.218C9.01412 111.03 8.78507 110.874 8.49032 110.749C8.19913 110.621 7.85822 110.508 7.4676 110.408L6.22647 110.089C5.32804 109.858 4.61781 109.508 4.09579 109.039C3.57733 108.567 3.31809 107.94 3.31809 107.159C3.31809 106.516 3.4921 105.953 3.84011 105.471C4.19167 104.988 4.6693 104.613 5.27299 104.347C5.87669 104.077 6.56028 103.942 7.32378 103.942C8.09792 103.942 8.77619 104.077 9.35858 104.347C9.94451 104.613 10.4044 104.984 10.7382 105.46C11.072 105.932 11.2442 106.475 11.2549 107.09H9.35325ZM16.6495 115.16C15.8505 115.16 15.158 114.984 14.5721 114.632C13.9862 114.281 13.5316 113.789 13.2085 113.157C12.8888 112.525 12.729 111.786 12.729 110.941C12.729 110.096 12.8888 109.355 13.2085 108.72C13.5316 108.084 13.9862 107.591 14.5721 107.239C15.158 106.887 15.8505 106.712 16.6495 106.712C17.4485 106.712 18.141 106.887 18.7269 107.239C19.3129 107.591 19.7656 108.084 20.0852 108.72C20.4084 109.355 20.57 110.096 20.57 110.941C20.57 111.786 20.4084 112.525 20.0852 113.157C19.7656 113.789 19.3129 114.281 18.7269 114.632C18.141 114.984 17.4485 115.16 16.6495 115.16ZM16.6602 113.615C17.0934 113.615 17.4556 113.496 17.7468 113.258C18.038 113.017 18.2546 112.694 18.3967 112.289C18.5423 111.884 18.6151 111.433 18.6151 110.936C18.6151 110.435 18.5423 109.982 18.3967 109.577C18.2546 109.169 18.038 108.844 17.7468 108.603C17.4556 108.361 17.0934 108.24 16.6602 108.24C16.2163 108.24 15.8469 108.361 15.5522 108.603C15.261 108.844 15.0426 109.169 14.897 109.577C14.755 109.982 14.6839 110.435 14.6839 110.936C14.6839 111.433 14.755 111.884 14.897 112.289C15.0426 112.694 15.261 113.017 15.5522 113.258C15.8469 113.496 16.2163 113.615 16.6602 113.615ZM24.1349 104.091V115H22.2066V104.091H24.1349ZM26.1177 115V106.818H28.046V115H26.1177ZM27.0872 105.657C26.7818 105.657 26.519 105.556 26.2988 105.353C26.0787 105.147 25.9686 104.901 25.9686 104.613C25.9686 104.322 26.0787 104.075 26.2988 103.873C26.519 103.667 26.7818 103.564 27.0872 103.564C27.3961 103.564 27.6589 103.667 27.8755 103.873C28.0957 104.075 28.2058 104.322 28.2058 104.613C28.2058 104.901 28.0957 105.147 27.8755 105.353C27.6589 105.556 27.3961 105.657 27.0872 105.657ZM33.0651 115.144C32.4223 115.144 31.847 114.979 31.3392 114.648C30.8314 114.318 30.4301 113.839 30.1354 113.21C29.8406 112.582 29.6933 111.818 29.6933 110.92C29.6933 110.011 29.8424 109.244 30.1407 108.619C30.4426 107.99 30.8492 107.516 31.3605 107.196C31.8719 106.873 32.4419 106.712 33.0704 106.712C33.5498 106.712 33.944 106.793 34.2529 106.957C34.5619 107.116 34.8069 107.31 34.988 107.537C35.1691 107.761 35.3094 107.972 35.4088 108.171H35.4887V104.091H37.4223V115H35.526V113.711H35.4088C35.3094 113.91 35.1656 114.121 34.9774 114.345C34.7892 114.565 34.5406 114.753 34.2316 114.909C33.9227 115.066 33.5338 115.144 33.0651 115.144ZM33.6031 113.562C34.0115 113.562 34.3595 113.452 34.6471 113.232C34.9347 113.008 35.1531 112.697 35.3023 112.299C35.4514 111.902 35.526 111.438 35.526 110.909C35.526 110.38 35.4514 109.92 35.3023 109.529C35.1567 109.139 34.9401 108.835 34.6524 108.619C34.3683 108.402 34.0186 108.294 33.6031 108.294C33.1734 108.294 32.8147 108.406 32.5271 108.629C32.2394 108.853 32.0228 109.162 31.8772 109.556C31.7316 109.95 31.6588 110.401 31.6588 110.909C31.6588 111.42 31.7316 111.877 31.8772 112.278C32.0264 112.676 32.2448 112.99 32.5324 113.221C32.8236 113.448 33.1805 113.562 33.6031 113.562ZM41.1657 115L38.8539 106.818H40.8194L42.2576 112.571H42.3322L43.8024 106.818H45.7466L47.2168 112.539H47.2967L48.7136 106.818H50.6845L48.3674 115H46.3592L44.8251 109.471H44.7132L43.1792 115H41.1657ZM55.3653 115.16C54.5663 115.16 53.8738 114.984 53.2879 114.632C52.702 114.281 52.2474 113.789 51.9243 113.157C51.6047 112.525 51.4449 111.786 51.4449 110.941C51.4449 110.096 51.6047 109.355 51.9243 108.72C52.2474 108.084 52.702 107.591 53.2879 107.239C53.8738 106.887 54.5663 106.712 55.3653 106.712C56.1643 106.712 56.8568 106.887 57.4427 107.239C58.0287 107.591 58.4814 108.084 58.801 108.72C59.1242 109.355 59.2858 110.096 59.2858 110.941C59.2858 111.786 59.1242 112.525 58.801 113.157C58.4814 113.789 58.0287 114.281 57.4427 114.632C56.8568 114.984 56.1643 115.16 55.3653 115.16ZM55.376 113.615C55.8092 113.615 56.1714 113.496 56.4626 113.258C56.7538 113.017 56.9704 112.694 57.1125 112.289C57.2581 111.884 57.3309 111.433 57.3309 110.936C57.3309 110.435 57.2581 109.982 57.1125 109.577C56.9704 109.169 56.7538 108.844 56.4626 108.603C56.1714 108.361 55.8092 108.24 55.376 108.24C54.9321 108.24 54.5628 108.361 54.268 108.603C53.9768 108.844 53.7584 109.169 53.6128 109.577C53.4708 109.982 53.3998 110.435 53.3998 110.936C53.3998 111.433 53.4708 111.884 53.6128 112.289C53.7584 112.694 53.9768 113.017 54.268 113.258C54.5628 113.496 54.9321 113.615 55.376 113.615ZM60.9224 115V106.818H62.7921V108.182H62.8773C63.0265 107.71 63.2821 107.346 63.6444 107.09C64.0101 106.831 64.4274 106.701 64.8961 106.701C65.0027 106.701 65.1216 106.706 65.253 106.717C65.388 106.724 65.4998 106.737 65.5886 106.754V108.528C65.5069 108.5 65.3773 108.475 65.1998 108.453C65.0257 108.429 64.8571 108.416 64.6937 108.416C64.3422 108.416 64.0261 108.493 63.7456 108.645C63.4686 108.794 63.2502 109.002 63.0904 109.268C62.9306 109.535 62.8507 109.842 62.8507 110.19V115H60.9224ZM68.6275 112.433L68.6222 110.105H68.9311L71.8714 106.818H74.1246L70.5078 110.845H70.1083L68.6275 112.433ZM66.8697 115V104.091H68.7979V115H66.8697ZM72.0046 115L69.3413 111.277L70.641 109.918L74.3111 115H72.0046ZM81.8763 108.981L80.1185 109.173C80.0688 108.995 79.9818 108.828 79.8575 108.672C79.7368 108.516 79.5734 108.39 79.3675 108.294C79.1615 108.198 78.9094 108.15 78.6111 108.15C78.2098 108.15 77.8724 108.237 77.599 108.411C77.3291 108.585 77.1959 108.81 77.1995 109.087C77.1959 109.325 77.2829 109.519 77.4605 109.668C77.6416 109.817 77.9399 109.94 78.3554 110.036L79.751 110.334C80.5251 110.501 81.1004 110.765 81.4768 111.127C81.8568 111.49 82.0486 111.964 82.0521 112.55C82.0486 113.065 81.8976 113.519 81.5993 113.913C81.3046 114.304 80.8944 114.609 80.3689 114.83C79.8433 115.05 79.2396 115.16 78.5578 115.16C77.5564 115.16 76.7503 114.95 76.1395 114.531C75.5287 114.109 75.1647 113.521 75.0475 112.768L76.9278 112.587C77.0131 112.956 77.1942 113.235 77.4711 113.423C77.7481 113.612 78.1086 113.706 78.5525 113.706C79.0106 113.706 79.3781 113.612 79.6551 113.423C79.9356 113.235 80.0759 113.002 80.0759 112.725C80.0759 112.491 79.9854 112.298 79.8042 112.145C79.6267 111.992 79.3497 111.875 78.9733 111.793L77.5777 111.5C76.7929 111.337 76.2123 111.062 75.8358 110.675C75.4594 110.284 75.273 109.79 75.2765 109.194C75.273 108.69 75.4097 108.253 75.6867 107.884C75.9672 107.511 76.3561 107.223 76.8532 107.021C77.354 106.815 77.931 106.712 78.5844 106.712C79.5432 106.712 80.2979 106.916 80.8483 107.324C81.4023 107.733 81.7449 108.285 81.8763 108.981Z" fill="#9BA4B5"/>
</svg>
