<svg width="95" height="126" viewBox="0 0 95 126" fill="none" xmlns="http://www.w3.org/2000/svg">
<path d="M10.2917 24.9484C11.471 11.469 23.3543 1.49769 36.8338 2.67699L66.7196 5.29166C80.1991 6.47097 90.1704 18.3543 88.9911 31.8337L86.3764 61.7196C85.1971 75.1991 73.3138 85.1703 59.8343 83.991L29.9485 81.3764C16.469 80.1971 6.4977 68.3138 7.677 54.8343L10.2917 24.9484Z" fill="#D9D9D9" stroke="#D9D9D9"/>
<rect x="18.8338" y="13.834" width="59" height="59" rx="19.5" fill="#9BA4B5" stroke="#9BA4B5"/>
<path d="M47.5 28C42.8333 28 39.9167 31.3331 38.75 37.9993C40.5 34.6662 42.5417 33.4169 44.875 34.2494C46.2065 34.7246 47.158 36.1051 48.2117 37.6326C49.9267 40.1196 51.9122 42.9995 56.25 42.9995C60.9167 42.9995 63.8333 39.6664 65 32.9991C63.25 36.3322 61.2083 37.5825 58.875 36.75C57.5443 36.2749 56.5927 34.8944 55.5391 33.3669C53.8233 30.8788 51.8371 28 47.5 28ZM38.75 42.9995C34.0833 42.9995 31.1667 46.3326 30 52.9998C31.75 49.6667 33.7917 48.4164 36.125 49.25C37.4557 49.7261 38.4073 51.1056 39.4609 52.632C41.1767 55.1201 43.1629 58 47.5 58C52.1667 58 55.0833 54.6669 56.25 47.9997C54.5 51.3328 52.4583 52.5831 50.125 51.7495C48.7935 51.2744 47.842 49.8939 46.7883 48.3675C45.0733 45.8793 43.0878 42.9995 38.75 42.9995Z" fill="#EEEEEE"/>
<path d="M0.782138 107.748V106.091H9.48597V107.748H6.11417V117H4.15394V107.748H0.782138ZM12.3198 117.165C11.8013 117.165 11.3343 117.073 10.9189 116.888C10.5069 116.7 10.1802 116.423 9.93874 116.057C9.70082 115.691 9.58185 115.24 9.58185 114.704C9.58185 114.243 9.66708 113.861 9.83754 113.559C10.008 113.257 10.2406 113.016 10.5353 112.835C10.8301 112.653 11.1621 112.517 11.5314 112.424C11.9043 112.328 12.2896 112.259 12.6873 112.217C13.1667 112.167 13.5556 112.123 13.8539 112.083C14.1522 112.041 14.3688 111.977 14.5037 111.892C14.6422 111.803 14.7115 111.666 14.7115 111.482V111.45C14.7115 111.048 14.5925 110.738 14.3546 110.517C14.1167 110.297 13.774 110.187 13.3265 110.187C12.8542 110.187 12.4796 110.29 12.2026 110.496C11.9292 110.702 11.7445 110.945 11.6486 111.226L9.84819 110.97C9.99023 110.473 10.2246 110.058 10.5513 109.724C10.878 109.386 11.2775 109.134 11.7498 108.967C12.2221 108.797 12.7441 108.712 13.3159 108.712C13.71 108.712 14.1025 108.758 14.4931 108.85C14.8837 108.942 15.2406 109.095 15.5637 109.308C15.8869 109.518 16.1461 109.804 16.3414 110.166C16.5403 110.528 16.6397 110.981 16.6397 111.524V117H14.786V115.876H14.7221C14.6049 116.103 14.4398 116.316 14.2267 116.515C14.0172 116.711 13.7527 116.869 13.4331 116.989C13.117 117.107 12.7459 117.165 12.3198 117.165ZM12.8205 115.748C13.2076 115.748 13.5431 115.672 13.8272 115.519C14.1113 115.363 14.3297 115.157 14.4824 114.901C14.6387 114.646 14.7168 114.367 14.7168 114.065V113.101C14.6564 113.151 14.5534 113.197 14.4078 113.239C14.2658 113.282 14.106 113.319 13.9284 113.351C13.7509 113.383 13.5751 113.412 13.4011 113.436C13.2271 113.461 13.0762 113.483 12.9483 113.5C12.6607 113.539 12.4032 113.603 12.176 113.692C11.9487 113.781 11.7694 113.905 11.638 114.065C11.5066 114.221 11.4409 114.424 11.4409 114.672C11.4409 115.027 11.5705 115.295 11.8297 115.477C12.089 115.658 12.4192 115.748 12.8205 115.748ZM18.5787 117V108.818H20.5069V117H18.5787ZM19.5481 107.657C19.2427 107.657 18.9799 107.556 18.7598 107.353C18.5396 107.147 18.4295 106.901 18.4295 106.613C18.4295 106.322 18.5396 106.075 18.7598 105.873C18.9799 105.667 19.2427 105.564 19.5481 105.564C19.8571 105.564 20.1199 105.667 20.3365 105.873C20.5566 106.075 20.6667 106.322 20.6667 106.613C20.6667 106.901 20.5566 107.147 20.3365 107.353C20.1199 107.556 19.8571 107.657 19.5481 107.657ZM24.4181 106.091V117H22.4898V106.091H24.4181ZM28.0895 117L25.7777 108.818H27.7433L29.1815 114.571H29.256L30.7262 108.818H32.6705L34.1406 114.539H34.2205L35.6374 108.818H37.6083L35.2912 117H33.283L31.7489 111.471H31.6371L30.103 117H28.0895ZM38.9546 117V108.818H40.8829V117H38.9546ZM39.9241 107.657C39.6187 107.657 39.3559 107.556 39.1357 107.353C38.9156 107.147 38.8055 106.901 38.8055 106.613C38.8055 106.322 38.9156 106.075 39.1357 105.873C39.3559 105.667 39.6187 105.564 39.9241 105.564C40.233 105.564 40.4958 105.667 40.7124 105.873C40.9326 106.075 41.0427 106.322 41.0427 106.613C41.0427 106.901 40.9326 107.147 40.7124 107.353C40.4958 107.556 40.233 107.657 39.9241 107.657ZM44.794 112.206V117H42.8658V108.818H44.7088V110.208H44.8047C44.9929 109.75 45.293 109.386 45.7049 109.116C46.1204 108.847 46.6335 108.712 47.2443 108.712C47.8089 108.712 48.3008 108.832 48.7198 109.074C49.1424 109.315 49.4691 109.665 49.6999 110.123C49.9343 110.581 50.0497 111.137 50.0462 111.79V117H48.1179V112.089C48.1179 111.542 47.9759 111.114 47.6918 110.805C47.4112 110.496 47.0224 110.342 46.5252 110.342C46.1879 110.342 45.8878 110.416 45.625 110.565C45.3658 110.711 45.1616 110.922 45.0124 111.199C44.8668 111.476 44.794 111.812 44.794 112.206ZM55.0426 117.144C54.3999 117.144 53.8246 116.979 53.3168 116.648C52.8089 116.318 52.4077 115.839 52.1129 115.21C51.8182 114.582 51.6708 113.818 51.6708 112.92C51.6708 112.011 51.82 111.244 52.1183 110.619C52.4201 109.99 52.8267 109.516 53.3381 109.196C53.8494 108.873 54.4194 108.712 55.0479 108.712C55.5273 108.712 55.9215 108.793 56.2305 108.957C56.5394 109.116 56.7844 109.31 56.9656 109.537C57.1467 109.761 57.2869 109.972 57.3864 110.171H57.4663V106.091H59.3999V117H57.5036V115.711H57.3864C57.2869 115.91 57.1431 116.121 56.9549 116.345C56.7667 116.565 56.5181 116.753 56.2092 116.909C55.9002 117.066 55.5114 117.144 55.0426 117.144ZM55.5806 115.562C55.989 115.562 56.337 115.452 56.6246 115.232C56.9123 115.008 57.1307 114.697 57.2798 114.299C57.429 113.902 57.5036 113.438 57.5036 112.909C57.5036 112.38 57.429 111.92 57.2798 111.529C57.1342 111.139 56.9176 110.835 56.63 110.619C56.3459 110.402 55.9961 110.294 55.5806 110.294C55.1509 110.294 54.7923 110.406 54.5046 110.629C54.217 110.853 54.0004 111.162 53.8548 111.556C53.7092 111.95 53.6364 112.401 53.6364 112.909C53.6364 113.42 53.7092 113.877 53.8548 114.278C54.0039 114.676 54.2223 114.99 54.5099 115.221C54.8011 115.448 55.158 115.562 55.5806 115.562ZM74.5983 109.772H72.6061C72.5493 109.445 72.4445 109.156 72.2918 108.903C72.1391 108.648 71.9491 108.431 71.7219 108.254C71.4946 108.076 71.2354 107.943 70.9442 107.854C70.6565 107.762 70.3458 107.716 70.012 107.716C69.4189 107.716 68.8934 107.865 68.4353 108.163C67.9772 108.458 67.6185 108.891 67.3593 109.463C67.1001 110.031 66.9704 110.725 66.9704 111.545C66.9704 112.38 67.1001 113.083 67.3593 113.655C67.6221 114.223 67.9807 114.653 68.4353 114.944C68.8934 115.232 69.4172 115.375 70.0067 115.375C70.3334 115.375 70.6388 115.333 70.9229 115.248C71.2105 115.159 71.468 115.029 71.6952 114.859C71.926 114.688 72.1196 114.479 72.2758 114.23C72.4356 113.982 72.5457 113.697 72.6061 113.378L74.5983 113.388C74.5237 113.907 74.3621 114.393 74.1135 114.848C73.8685 115.303 73.5471 115.704 73.1494 116.052C72.7517 116.396 72.2865 116.666 71.7538 116.862C71.2211 117.053 70.6299 117.149 69.98 117.149C69.0212 117.149 68.1654 116.927 67.4126 116.483C66.6597 116.039 66.0667 115.398 65.6334 114.56C65.2002 113.722 64.9836 112.717 64.9836 111.545C64.9836 110.37 65.202 109.365 65.6388 108.531C66.0756 107.692 66.6704 107.051 67.4232 106.608C68.176 106.164 69.0283 105.942 69.98 105.942C70.5873 105.942 71.1519 106.027 71.6739 106.197C72.1959 106.368 72.6611 106.618 73.0695 106.949C73.4779 107.275 73.8135 107.676 74.0763 108.152C74.3426 108.625 74.5166 109.164 74.5983 109.772ZM82.3366 109.09C82.2869 108.625 82.0774 108.262 81.7081 108.003C81.3423 107.744 80.8665 107.614 80.2805 107.614C79.8686 107.614 79.5153 107.676 79.2205 107.801C78.9258 107.925 78.7003 108.094 78.544 108.307C78.3878 108.52 78.3079 108.763 78.3043 109.037C78.3043 109.264 78.3558 109.461 78.4588 109.628C78.5653 109.795 78.7092 109.937 78.8903 110.054C79.0714 110.168 79.272 110.263 79.4922 110.342C79.7124 110.42 79.9343 110.485 80.158 110.539L81.1808 110.794C81.5927 110.89 81.9886 111.02 82.3686 111.183C82.7521 111.347 83.0948 111.553 83.3967 111.801C83.7021 112.05 83.9435 112.35 84.1211 112.701C84.2987 113.053 84.3874 113.465 84.3874 113.937C84.3874 114.576 84.2241 115.139 83.8974 115.626C83.5707 116.109 83.0984 116.487 82.4805 116.76C81.8661 117.03 81.1222 117.165 80.2486 117.165C79.3999 117.165 78.663 117.034 78.038 116.771C77.4165 116.508 76.93 116.125 76.5785 115.62C76.2305 115.116 76.0423 114.502 76.0138 113.777H77.9581C77.9865 114.157 78.1037 114.473 78.3097 114.725C78.5156 114.978 78.7837 115.166 79.114 115.29C79.4478 115.414 79.8207 115.477 80.2326 115.477C80.6623 115.477 81.0387 115.413 81.3619 115.285C81.6886 115.153 81.9442 114.972 82.1289 114.741C82.3136 114.507 82.4077 114.234 82.4112 113.921C82.4077 113.637 82.3242 113.403 82.1609 113.218C81.9975 113.03 81.7685 112.874 81.4737 112.749C81.1825 112.621 80.8416 112.508 80.451 112.408L79.2099 112.089C78.3114 111.858 77.6012 111.508 77.0792 111.039C76.5607 110.567 76.3015 109.94 76.3015 109.159C76.3015 108.516 76.4755 107.953 76.8235 107.471C77.1751 106.988 77.6527 106.613 78.2564 106.347C78.8601 106.077 79.5437 105.942 80.3072 105.942C81.0813 105.942 81.7596 106.077 82.342 106.347C82.9279 106.613 83.3878 106.984 83.7216 107.46C84.0554 107.932 84.2276 108.475 84.2383 109.09H82.3366ZM92.0779 109.09C92.0281 108.625 91.8186 108.262 91.4493 108.003C91.0835 107.744 90.6077 107.614 90.0218 107.614C89.6098 107.614 89.2565 107.676 88.9617 107.801C88.667 107.925 88.4415 108.094 88.2852 108.307C88.129 108.52 88.0491 108.763 88.0455 109.037C88.0455 109.264 88.097 109.461 88.2 109.628C88.3066 109.795 88.4504 109.937 88.6315 110.054C88.8126 110.168 89.0132 110.263 89.2334 110.342C89.4536 110.42 89.6755 110.485 89.8992 110.539L90.922 110.794C91.3339 110.89 91.7298 111.02 92.1098 111.183C92.4933 111.347 92.836 111.553 93.1379 111.801C93.4433 112.05 93.6847 112.35 93.8623 112.701C94.0399 113.053 94.1286 113.465 94.1286 113.937C94.1286 114.576 93.9653 115.139 93.6386 115.626C93.3119 116.109 92.8396 116.487 92.2217 116.76C91.6073 117.03 90.8634 117.165 89.9898 117.165C89.1411 117.165 88.4042 117.034 87.7792 116.771C87.1578 116.508 86.6713 116.125 86.3197 115.62C85.9717 115.116 85.7835 114.502 85.7551 113.777H87.6993C87.7277 114.157 87.8449 114.473 88.0509 114.725C88.2568 114.978 88.5249 115.166 88.8552 115.29C89.189 115.414 89.5619 115.477 89.9738 115.477C90.4035 115.477 90.7799 115.413 91.1031 115.285C91.4298 115.153 91.6855 114.972 91.8701 114.741C92.0548 114.507 92.1489 114.234 92.1524 113.921C92.1489 113.637 92.0654 113.403 91.9021 113.218C91.7387 113.03 91.5097 112.874 91.2149 112.749C90.9237 112.621 90.5828 112.508 90.1922 112.408L88.9511 112.089C88.0526 111.858 87.3424 111.508 86.8204 111.039C86.3019 110.567 86.0427 109.94 86.0427 109.159C86.0427 108.516 86.2167 107.953 86.5647 107.471C86.9163 106.988 87.3939 106.613 87.9976 106.347C88.6013 106.077 89.2849 105.942 90.0484 105.942C90.8225 105.942 91.5008 106.077 92.0832 106.347C92.6691 106.613 93.129 106.984 93.4628 107.46C93.7966 107.932 93.9688 108.475 93.9795 109.09H92.0779Z" fill="#9BA4B5"/>
</svg>
